<svg xmlns="http://www.w3.org/2000/svg" version="1.1" xmlns:xlink="http://www.w3.org/1999/xlink" xmlns:svgjs="http://svgjs.dev/svgjs" width="1200" height="630" preserveAspectRatio="none" viewBox="0 0 1200 630">
    <g mask="url(&quot;#SvgjsMask1086&quot;)" fill="none">
        <rect width="1200" height="630" x="0" y="0" fill="rgba(255, 255, 255, 1)"></rect>
        <path d="M -87.24221403864556,149 C 32.76,232.8 272.76,578.6 512.7577859613544,568 C 752.76,557.4 872.76,102.2 1112.7577859613543,96 C 1352.76,89.8 1695.31,520 1712.7577859613543,537 C 1730.21,554 1302.55,252.2 1200,181" stroke="rgba(69, 189, 219, 1)" stroke-width="2"></path>
        <path d="M -500.8780222648011,398 C -380.88,354 -140.88,142 99.12197773519895,178 C 339.12,214 459.12,589.4 699.1219777351989,578 C 939.12,566.6 1198.95,166.4 1299.121977735199,121 C 1399.3,75.6 1219.82,305 1200,351" stroke="rgba(69, 189, 219, 1)" stroke-width="2"></path>
        <path d="M -538.4091243994352,159 C -418.41,209.4 -178.41,431 61.5908756005648,411 C 301.59,391 421.59,70.2 661.5908756005648,59 C 901.59,47.8 1153.91,312.4 1261.5908756005647,355 C 1369.27,397.6 1212.32,288.6 1200,272" stroke="rgba(69, 189, 219, 1)" stroke-width="2"></path>
        <path d="M -615.0745684756126,388 C -495.07,369.6 -255.07,259.8 -15.074568475612615,296 C 224.93,332.2 344.93,599.4 584.9254315243874,569 C 824.93,538.6 1061.91,140.6 1184.9254315243875,144 C 1307.94,147.4 1196.99,497.6 1200,586" stroke="rgba(69, 189, 219, 1)" stroke-width="2"></path>
        <path d="M -870.094050834211,419 C -750.09,362.4 -510.09,151 -270.09405083421103,136 C -30.09,121 89.91,314.8 329.90594916578897,344 C 569.91,373.2 755.89,282.8 929.905949165789,282 C 1103.92,281.2 1145.98,328.4 1200,340" stroke="rgba(69, 189, 219, 1)" stroke-width="2"></path>
        <path d="M -328.690264472049,412 C -208.69,346.4 31.31,89 271.309735527951,84 C 511.31,79 631.31,358.6 871.309735527951,387 C 1111.31,415.4 1405.57,194 1471.309735527951,226 C 1537.05,258 1254.26,482.8 1200,547" stroke="rgba(69, 189, 219, 1)" stroke-width="2"></path>
        <path d="M -678.1377152365505,319 C -558.14,310 -318.14,249.4 -78.13771523655055,274 C 161.86,298.6 281.86,477 521.8622847634495,442 C 761.86,407 986.23,112.2 1121.8622847634495,99 C 1257.49,85.8 1184.37,320.6 1200,376" stroke="rgba(69, 189, 219, 1)" stroke-width="2"></path>
        <path d="M -1051.7183761054112,44 C -931.72,141 -691.72,501.8 -451.71837610541127,529 C -211.72,556.2 -91.72,214.8 148.28162389458873,180 C 388.28,145.2 537.94,377.2 748.2816238945887,355 C 958.63,332.8 1109.66,126.2 1200,69" stroke="rgba(69, 189, 219, 1)" stroke-width="2"></path>
    </g>
    <defs>
        <mask id="SvgjsMask1086">
            <rect width="1200" height="630" fill="#ffffff"></rect>
        </mask>
    </defs>
</svg>