<svg xmlns="http://www.w3.org/2000/svg" version="1.1" xmlns:xlink="http://www.w3.org/1999/xlink" xmlns:svgjs="http://svgjs.dev/svgjs" width="1440" height="560" preserveAspectRatio="none" viewBox="0 0 1440 560"><g mask="url(&quot;#SvgjsMask1158&quot;)" fill="none"><rect width="1440" height="560" x="0" y="0" fill="rgba(255, 255, 255, 1)"></rect><path d="M1026.7547944203047 331.74253536836744L882.9515055733093 248.71766784220114 799.926638047143 392.5209566891966 943.7299268941384 475.5458242153629z" fill="rgba(137, 148, 255, 0.47)" class="triangle-float3"></path><path d="M447.11 342.2 a158.68 158.68 0 1 0 317.36 0 a158.68 158.68 0 1 0 -317.36 0z" fill="rgba(137, 148, 255, 0.47)" class="triangle-float3"></path><path d="M1191.6282602835436 462.4302510951872L1171.7478611720455 603.8866410020535 1313.204251078912 623.7670401135514 1333.0846501904098 482.3106502066851z" fill="rgba(137, 148, 255, 0.47)" class="triangle-float1"></path><path d="M111.45128839125755 116.05023274957726L210.63598346475015 41.309204068736236 135.89495478390916-57.8754910047564 36.71025971041652 16.865537676084642z" fill="rgba(137, 148, 255, 0.47)" class="triangle-float2"></path><path d="M497.74 549.19 a170.7 170.7 0 1 0 341.4 0 a170.7 170.7 0 1 0 -341.4 0z" fill="rgba(137, 148, 255, 0.47)" class="triangle-float3"></path><path d="M1016.1314789983797 8.981447547163736L1056.0663357992998 90.86003785900955 1137.9449261111458 50.92518105808938 1098.0100693102256-30.953409253756437z" fill="rgba(137, 148, 255, 0.47)" class="triangle-float1"></path><path d="M13.83 245.89 a100.67 100.67 0 1 0 201.34 0 a100.67 100.67 0 1 0 -201.34 0z" fill="rgba(137, 148, 255, 0.47)" class="triangle-float2"></path><path d="M1009.4968808781442 198.98244560631096L1063.91903641762 357.03586171062136 1221.9724525219303 302.6137061711456 1167.5502969824547 144.56029006683528z" fill="rgba(137, 148, 255, 0.47)" class="triangle-float2"></path></g><defs><mask id="SvgjsMask1158"><rect width="1440" height="560" fill="#ffffff"></rect></mask></defs></svg>