<svg xmlns="http://www.w3.org/2000/svg" version="1.1" xmlns:xlink="http://www.w3.org/1999/xlink" xmlns:svgjs="http://svgjs.dev/svgjs" width="1440" height="560" preserveAspectRatio="none" viewBox="0 0 1440 560"><g mask="url(&quot;#SvgjsMask1088&quot;)" fill="none"><path d="M8.66 252.12L104.79 307.62L104.79 418.62L8.66 474.12L-87.47 418.62L-87.47 307.62zM297.05 418.62L393.19 474.12L393.19 585.12L297.05 640.62L200.92 585.12L200.92 474.12zM393.19 252.12L489.32 307.62L489.32 418.62L393.19 474.12L297.05 418.62L297.05 307.62zM585.45 -80.88L681.58 -25.38L681.58 85.62L585.45 141.12L489.32 85.62L489.32 -25.38zM681.58 85.62L777.71 141.12L777.71 252.12L681.58 307.62L585.45 252.12L585.45 141.12zM777.71 252.12L873.84 307.62L873.84 418.62L777.71 474.12L681.58 418.62L681.58 307.62zM969.98 -80.88L1066.11 -25.38L1066.11 85.62L969.98 141.12L873.84 85.62L873.84 -25.38zM1066.11 85.62L1162.24 141.12L1162.24 252.12L1066.11 307.62L969.98 252.12L969.98 141.12zM1066.11 418.62L1162.24 474.12L1162.24 585.12L1066.11 640.62L969.98 585.12L969.98 474.12zM1162.24 252.12L1258.37 307.62L1258.37 418.62L1162.24 474.12L1066.11 418.62L1066.11 307.62zM1450.63 85.62L1546.76 141.12L1546.76 252.12L1450.63 307.62L1354.5 252.12L1354.5 141.12z" stroke="#03305d" stroke-width="2"></path><path d="M-2.44 252.12 a11.1 11.1 0 1 0 22.2 0 a11.1 11.1 0 1 0 -22.2 0zM93.69 307.62 a11.1 11.1 0 1 0 22.2 0 a11.1 11.1 0 1 0 -22.2 0zM93.69 418.62 a11.1 11.1 0 1 0 22.2 0 a11.1 11.1 0 1 0 -22.2 0zM-2.44 474.12 a11.1 11.1 0 1 0 22.2 0 a11.1 11.1 0 1 0 -22.2 0zM-98.57 418.62 a11.1 11.1 0 1 0 22.2 0 a11.1 11.1 0 1 0 -22.2 0zM-98.57 307.62 a11.1 11.1 0 1 0 22.2 0 a11.1 11.1 0 1 0 -22.2 0zM285.95 418.62 a11.1 11.1 0 1 0 22.2 0 a11.1 11.1 0 1 0 -22.2 0zM382.09 474.12 a11.1 11.1 0 1 0 22.2 0 a11.1 11.1 0 1 0 -22.2 0zM382.09 585.12 a11.1 11.1 0 1 0 22.2 0 a11.1 11.1 0 1 0 -22.2 0zM285.95 640.62 a11.1 11.1 0 1 0 22.2 0 a11.1 11.1 0 1 0 -22.2 0zM189.82 585.12 a11.1 11.1 0 1 0 22.2 0 a11.1 11.1 0 1 0 -22.2 0zM189.82 474.12 a11.1 11.1 0 1 0 22.2 0 a11.1 11.1 0 1 0 -22.2 0zM382.09 252.12 a11.1 11.1 0 1 0 22.2 0 a11.1 11.1 0 1 0 -22.2 0zM478.22 307.62 a11.1 11.1 0 1 0 22.2 0 a11.1 11.1 0 1 0 -22.2 0zM478.22 418.62 a11.1 11.1 0 1 0 22.2 0 a11.1 11.1 0 1 0 -22.2 0zM285.95 307.62 a11.1 11.1 0 1 0 22.2 0 a11.1 11.1 0 1 0 -22.2 0zM574.35 -80.88 a11.1 11.1 0 1 0 22.2 0 a11.1 11.1 0 1 0 -22.2 0zM670.48 -25.38 a11.1 11.1 0 1 0 22.2 0 a11.1 11.1 0 1 0 -22.2 0zM670.48 85.62 a11.1 11.1 0 1 0 22.2 0 a11.1 11.1 0 1 0 -22.2 0zM574.35 141.12 a11.1 11.1 0 1 0 22.2 0 a11.1 11.1 0 1 0 -22.2 0zM478.22 85.62 a11.1 11.1 0 1 0 22.2 0 a11.1 11.1 0 1 0 -22.2 0zM478.22 -25.38 a11.1 11.1 0 1 0 22.2 0 a11.1 11.1 0 1 0 -22.2 0zM766.61 141.12 a11.1 11.1 0 1 0 22.2 0 a11.1 11.1 0 1 0 -22.2 0zM766.61 252.12 a11.1 11.1 0 1 0 22.2 0 a11.1 11.1 0 1 0 -22.2 0zM670.48 307.62 a11.1 11.1 0 1 0 22.2 0 a11.1 11.1 0 1 0 -22.2 0zM574.35 252.12 a11.1 11.1 0 1 0 22.2 0 a11.1 11.1 0 1 0 -22.2 0zM862.74 307.62 a11.1 11.1 0 1 0 22.2 0 a11.1 11.1 0 1 0 -22.2 0zM862.74 418.62 a11.1 11.1 0 1 0 22.2 0 a11.1 11.1 0 1 0 -22.2 0zM766.61 474.12 a11.1 11.1 0 1 0 22.2 0 a11.1 11.1 0 1 0 -22.2 0zM670.48 418.62 a11.1 11.1 0 1 0 22.2 0 a11.1 11.1 0 1 0 -22.2 0zM958.88 -80.88 a11.1 11.1 0 1 0 22.2 0 a11.1 11.1 0 1 0 -22.2 0zM1055.01 -25.38 a11.1 11.1 0 1 0 22.2 0 a11.1 11.1 0 1 0 -22.2 0zM1055.01 85.62 a11.1 11.1 0 1 0 22.2 0 a11.1 11.1 0 1 0 -22.2 0zM958.88 141.12 a11.1 11.1 0 1 0 22.2 0 a11.1 11.1 0 1 0 -22.2 0zM862.74 85.62 a11.1 11.1 0 1 0 22.2 0 a11.1 11.1 0 1 0 -22.2 0zM862.74 -25.38 a11.1 11.1 0 1 0 22.2 0 a11.1 11.1 0 1 0 -22.2 0zM1151.14 141.12 a11.1 11.1 0 1 0 22.2 0 a11.1 11.1 0 1 0 -22.2 0zM1151.14 252.12 a11.1 11.1 0 1 0 22.2 0 a11.1 11.1 0 1 0 -22.2 0zM1055.01 307.62 a11.1 11.1 0 1 0 22.2 0 a11.1 11.1 0 1 0 -22.2 0zM958.88 252.12 a11.1 11.1 0 1 0 22.2 0 a11.1 11.1 0 1 0 -22.2 0zM1055.01 418.62 a11.1 11.1 0 1 0 22.2 0 a11.1 11.1 0 1 0 -22.2 0zM1151.14 474.12 a11.1 11.1 0 1 0 22.2 0 a11.1 11.1 0 1 0 -22.2 0zM1151.14 585.12 a11.1 11.1 0 1 0 22.2 0 a11.1 11.1 0 1 0 -22.2 0zM1055.01 640.62 a11.1 11.1 0 1 0 22.2 0 a11.1 11.1 0 1 0 -22.2 0zM958.88 585.12 a11.1 11.1 0 1 0 22.2 0 a11.1 11.1 0 1 0 -22.2 0zM958.88 474.12 a11.1 11.1 0 1 0 22.2 0 a11.1 11.1 0 1 0 -22.2 0zM1247.27 307.62 a11.1 11.1 0 1 0 22.2 0 a11.1 11.1 0 1 0 -22.2 0zM1247.27 418.62 a11.1 11.1 0 1 0 22.2 0 a11.1 11.1 0 1 0 -22.2 0zM1439.53 85.62 a11.1 11.1 0 1 0 22.2 0 a11.1 11.1 0 1 0 -22.2 0zM1535.66 141.12 a11.1 11.1 0 1 0 22.2 0 a11.1 11.1 0 1 0 -22.2 0zM1535.66 252.12 a11.1 11.1 0 1 0 22.2 0 a11.1 11.1 0 1 0 -22.2 0zM1439.53 307.62 a11.1 11.1 0 1 0 22.2 0 a11.1 11.1 0 1 0 -22.2 0zM1343.4 252.12 a11.1 11.1 0 1 0 22.2 0 a11.1 11.1 0 1 0 -22.2 0zM1343.4 141.12 a11.1 11.1 0 1 0 22.2 0 a11.1 11.1 0 1 0 -22.2 0z" fill="#03305d"></path><path d="M22.82 462.83L100.76 507.83L100.76 597.83L22.82 642.83L-55.12 597.83L-55.12 507.83zM178.71 462.83L256.65 507.83L256.65 597.83L178.71 642.83L100.76 597.83L100.76 507.83zM412.54 57.83L490.49 102.83L490.49 192.83L412.54 237.83L334.6 192.83L334.6 102.83zM334.6 462.83L412.54 507.83L412.54 597.83L334.6 642.83L256.65 597.83L256.65 507.83zM568.43 57.83L646.38 102.83L646.38 192.83L568.43 237.83L490.49 192.83L490.49 102.83zM568.43 327.83L646.38 372.83L646.38 462.83L568.43 507.83L490.49 462.83L490.49 372.83zM646.38 -77.17L724.32 -32.17L724.32 57.83L646.38 102.83L568.43 57.83L568.43 -32.17zM724.32 57.83L802.27 102.83L802.27 192.83L724.32 237.83L646.38 192.83L646.38 102.83zM646.38 192.83L724.32 237.83L724.32 327.83L646.38 372.83L568.43 327.83L568.43 237.83zM802.27 192.83L880.21 237.83L880.21 327.83L802.27 372.83L724.32 327.83L724.32 237.83zM880.21 327.83L958.15 372.83L958.15 462.83L880.21 507.83L802.27 462.83L802.27 372.83zM802.27 462.83L880.21 507.83L880.21 597.83L802.27 642.83L724.32 597.83L724.32 507.83zM1036.1 57.83L1114.04 102.83L1114.04 192.83L1036.1 237.83L958.15 192.83L958.15 102.83zM958.15 192.83L1036.1 237.83L1036.1 327.83L958.15 372.83L880.21 327.83L880.21 237.83zM1114.04 -77.17L1191.99 -32.17L1191.99 57.83L1114.04 102.83L1036.1 57.83L1036.1 -32.17zM1114.04 192.83L1191.99 237.83L1191.99 327.83L1114.04 372.83L1036.1 327.83L1036.1 237.83zM1269.93 -77.17L1347.88 -32.17L1347.88 57.83L1269.93 102.83L1191.99 57.83L1191.99 -32.17zM1425.82 -77.17L1503.77 -32.17L1503.77 57.83L1425.82 102.83L1347.88 57.83L1347.88 -32.17zM1425.82 192.83L1503.77 237.83L1503.77 327.83L1425.82 372.83L1347.88 327.83L1347.88 237.83zM1503.77 327.83L1581.71 372.83L1581.71 462.83L1503.77 507.83L1425.82 462.83L1425.82 372.83zM1425.82 462.83L1503.77 507.83L1503.77 597.83L1425.82 642.83L1347.88 597.83L1347.88 507.83z" stroke="rgba(0, 0, 0, 0)" stroke-width="2"></path></g><defs><mask id="SvgjsMask1088"><rect width="1440" height="560" fill="#ffffff"></rect></mask></defs></svg>