<svg xmlns="http://www.w3.org/2000/svg" version="1.1" xmlns:xlink="http://www.w3.org/1999/xlink" xmlns:svgjs="http://svgjs.com/svgjs" width="1200" height="560" preserveAspectRatio="none" viewBox="0 0 1200 560"><g mask="url(&quot;#SvgjsMask3604&quot;)" fill="none"><rect width="1200" height="560" x="0" y="0" fill="rgba(255, 255, 255, 1)"></rect><rect width="366.08000000000004" height="366.08000000000004" clip-path="url(&quot;#SvgjsClipPath3605&quot;)" x="953.73" y="-66.21" fill="url(#SvgjsPattern3606)" transform="rotate(193.62, 1136.77, 116.83)"></rect><rect width="312" height="312" clip-path="url(&quot;#SvgjsClipPath3607&quot;)" x="227.54" y="261.05" fill="url(#SvgjsPattern3608)" transform="rotate(249.84, 383.54, 417.05)"></rect><rect width="272.84" height="272.84" clip-path="url(&quot;#SvgjsClipPath3609&quot;)" x="868.81" y="164.02" fill="url(#SvgjsPattern3610)" transform="rotate(303.19, 1005.23, 300.44)"></rect><rect width="336" height="336" clip-path="url(&quot;#SvgjsClipPath3611&quot;)" x="854.68" y="359.37" fill="url(#SvgjsPattern3612)" transform="rotate(229.75, 1022.68, 527.37)"></rect><rect width="156" height="156" clip-path="url(&quot;#SvgjsClipPath3613&quot;)" x="812.99" y="289.58" fill="url(#SvgjsPattern3614)" transform="rotate(138.52, 890.99, 367.58)"></rect><path d="M676.34 315.47 L573.93 292.08L572.7859918181914 356.1240081818086z" fill="rgba(64, 158, 255, 1)"></path><path d="M1097.93 505.1L1096.56 492.37 1108.69 488.24 1107.32 475.51 1119.45 471.39 1118.08 458.65 1130.21 454.53" stroke="rgba(64, 158, 255, 1)" stroke-width="1.95" stroke-dasharray="2, 2"></path><circle r="59.39852033647138" cx="897.28" cy="257.43" stroke="rgba(249, 115, 22, 1)" stroke-width="2.63"></circle><rect width="223.68" height="223.68" clip-path="url(&quot;#SvgjsClipPath3615&quot;)" x="936.6" y="374.75" fill="url(#SvgjsPattern3616)" transform="rotate(265.42, 1048.44, 486.59)"></rect><path d="M670.89 514.06a5.6 5.6 0 1 0 1.03 11.15 5.6 5.6 0 1 0-1.03-11.15zM672.36 529.99a5.6 5.6 0 1 0 1.03 11.15 5.6 5.6 0 1 0-1.03-11.15zM673.83 545.92a5.6 5.6 0 1 0 1.02 11.15 5.6 5.6 0 1 0-1.02-11.15zM675.29 561.85a5.6 5.6 0 1 0 1.03 11.16 5.6 5.6 0 1 0-1.03-11.16z" stroke="rgba(249, 115, 22, 1)" stroke-width="1.41"></path></g><defs><mask id="SvgjsMask3604"><rect width="1200" height="560" fill="#ffffff"></rect></mask><pattern x="0" y="0" width="8.32" height="8.32" patternUnits="userSpaceOnUse" id="SvgjsPattern3606"><path d="M0 8.32L4.16 0L8.32 8.32" stroke="rgba(249, 115, 22, 1)" fill="none"></path></pattern><clipPath id="SvgjsClipPath3605"><circle r="91.52000000000001" cx="1136.77" cy="116.83"></circle></clipPath><pattern x="0" y="0" width="6" height="6" patternUnits="userSpaceOnUse" id="SvgjsPattern3608"><path d="M0 6L3 0L6 6" stroke="rgba(249, 115, 22, 1)" fill="none"></path></pattern><clipPath id="SvgjsClipPath3607"><circle r="78" cx="383.54" cy="417.05"></circle></clipPath><pattern x="0" y="0" width="7.18" height="7.18" patternUnits="userSpaceOnUse" id="SvgjsPattern3610"><path d="M0 7.18L3.59 0L7.18 7.18" stroke="rgba(249, 115, 22, 1)" fill="none"></path></pattern><clipPath id="SvgjsClipPath3609"><circle r="68.21" cx="1005.23" cy="300.44"></circle></clipPath><pattern x="0" y="0" width="8" height="8" patternUnits="userSpaceOnUse" id="SvgjsPattern3612"><path d="M4 1L4 7M1 4L7 4" stroke="rgba(64, 158, 255, 1)" fill="none" stroke-width="1.7"></path></pattern><clipPath id="SvgjsClipPath3611"><circle r="84" cx="1022.68" cy="527.37"></circle></clipPath><pattern x="0" y="0" width="6" height="6" patternUnits="userSpaceOnUse" id="SvgjsPattern3614"><path d="M0 6L3 0L6 6" stroke="rgba(249, 115, 22, 1)" fill="none"></path></pattern><clipPath id="SvgjsClipPath3613"><circle r="39" cx="890.99" cy="367.58"></circle></clipPath><pattern x="0" y="0" width="13.98" height="13.98" patternUnits="userSpaceOnUse" id="SvgjsPattern3616"><path d="M6.99 1L6.99 12.98M1 6.99L12.98 6.99" stroke="rgba(249, 115, 22, 1)" fill="none" stroke-width="1.84"></path></pattern><clipPath id="SvgjsClipPath3615"><circle r="55.92" cx="1048.44" cy="486.59"></circle></clipPath></defs></svg>