<svg xmlns="http://www.w3.org/2000/svg" version="1.1" xmlns:xlink="http://www.w3.org/1999/xlink" xmlns:svgjs="http://svgjs.com/svgjs" width="1200" height="560" preserveAspectRatio="none" viewBox="0 0 1200 560"><g mask="url(&quot;#SvgjsMask3663&quot;)" fill="none"><rect width="1200" height="560" x="0" y="0" fill="rgba(255, 255, 255, 1)"></rect><rect width="84" height="84" clip-path="url(&quot;#SvgjsClipPath3664&quot;)" x="1022.9" y="347.58" fill="url(#SvgjsPattern3665)" transform="rotate(338.86, 1064.9, 389.58)"></rect><rect width="156" height="156" clip-path="url(&quot;#SvgjsClipPath3666&quot;)" x="783.06" y="-69.99" fill="url(#SvgjsPattern3667)" transform="rotate(267.79, 861.06, 8.01)"></rect><path d="M384.82 159.32 L363.55 292.7L299.1407384310486 150.96573843104855z" stroke="rgba(223, 0, 169, 1)" stroke-width="1.44" stroke-dasharray="3, 3"></path><path d="M455.48 493.62L451.39 481.49 462.32 474.83 458.23 462.7 469.17 456.04 465.07 443.9 476.01 437.25" stroke="rgba(0, 0, 0, 1)" stroke-width="1" stroke-dasharray="3, 2"></path><rect width="168" height="168" clip-path="url(&quot;#SvgjsClipPath3668&quot;)" x="537.82" y="212.55" fill="url(#SvgjsPattern3669)" transform="rotate(74.04, 621.82, 296.55)"></rect><path d="M631.47 465.45L618.69 464.71 616.61 452.07 603.83 451.32 601.75 438.68 588.97 437.94 586.89 425.3M636.83 459.51L624.04 458.76 621.97 446.13 609.18 445.38 607.11 432.74 594.32 431.99 592.25 419.35M642.18 453.57L629.4 452.82 627.32 440.18 614.54 439.43 612.46 426.8 599.68 426.05 597.6 413.41" stroke="rgba(0, 0, 0, 1)" stroke-width="1.7" stroke-dasharray="2, 2"></path><path d="M705.23 537.23L713.92 527.83 725 534.24 733.69 524.84 744.78 531.25 753.47 521.85 764.55 528.26" stroke="rgba(0, 0, 0, 1)" stroke-width="2.53"></path><rect width="348" height="348" clip-path="url(&quot;#SvgjsClipPath3670&quot;)" x="234.39" y="301.69" fill="url(#SvgjsPattern3671)" transform="rotate(47.97, 408.39, 475.69)"></rect><rect width="302.71999999999997" height="302.71999999999997" clip-path="url(&quot;#SvgjsClipPath3672&quot;)" x="144.89" y="274.25" fill="url(#SvgjsPattern3673)" transform="rotate(235.01, 296.25, 425.61)"></rect><rect width="156" height="156" clip-path="url(&quot;#SvgjsClipPath3674&quot;)" x="836.02" y="117.43" fill="url(#SvgjsPattern3675)" transform="rotate(36.5, 914.02, 195.43)"></rect></g><defs><mask id="SvgjsMask3663"><rect width="1200" height="560" fill="#ffffff"></rect></mask><pattern x="0" y="0" width="84" height="6" patternUnits="userSpaceOnUse" id="SvgjsPattern3665"><rect width="84" height="3" x="0" y="0" fill="rgba(0, 0, 0, 1)"></rect><rect width="84" height="3" x="0" y="3" fill="rgba(0, 0, 0, 0)"></rect></pattern><clipPath id="SvgjsClipPath3664"><circle r="21" cx="1064.9" cy="389.58"></circle></clipPath><pattern x="0" y="0" width="6" height="6" patternUnits="userSpaceOnUse" id="SvgjsPattern3667"><path d="M0 6L3 0L6 6" stroke="rgba(0, 0, 0, 1)" fill="none"></path></pattern><clipPath id="SvgjsClipPath3666"><circle r="39" cx="861.06" cy="8.01"></circle></clipPath><pattern x="0" y="0" width="6" height="6" patternUnits="userSpaceOnUse" id="SvgjsPattern3669"><path d="M3 1L3 5M1 3L5 3" stroke="rgba(223, 0, 169, 1)" fill="none" stroke-width="1.97"></path></pattern><clipPath id="SvgjsClipPath3668"><circle r="42" cx="621.82" cy="296.55"></circle></clipPath><pattern x="0" y="0" width="348" height="6" patternUnits="userSpaceOnUse" id="SvgjsPattern3671"><rect width="348" height="3" x="0" y="0" fill="rgba(223, 0, 169, 1)"></rect><rect width="348" height="3" x="0" y="3" fill="rgba(0, 0, 0, 0)"></rect></pattern><clipPath id="SvgjsClipPath3670"><circle r="87" cx="408.39" cy="475.69"></circle></clipPath><pattern x="0" y="0" width="6.88" height="6.88" patternUnits="userSpaceOnUse" id="SvgjsPattern3673"><path d="M0 6.88L3.44 0L6.88 6.88" stroke="rgba(0, 0, 0, 1)" fill="none"></path></pattern><clipPath id="SvgjsClipPath3672"><circle r="75.67999999999999" cx="296.25" cy="425.61"></circle></clipPath><pattern x="0" y="0" width="6" height="6" patternUnits="userSpaceOnUse" id="SvgjsPattern3675"><path d="M0 6L3 0L6 6" stroke="rgba(223, 0, 169, 1)" fill="none"></path></pattern><clipPath id="SvgjsClipPath3674"><circle r="39" cx="914.02" cy="195.43"></circle></clipPath></defs></svg>