<?xml version="1.0" encoding="UTF-8"?>
<svg xmlns="http://www.w3.org/2000/svg" xmlns:xlink="http://www.w3.org/1999/xlink" xmlns:svgjs="http://svgjs.dev/svgjs" version="1.1" viewBox="0 0 800 800" opacity="1" width="1200" height="630">
  <defs>
    <linearGradient x1="50%" y1="0%" x2="50%" y2="100%" id="ccchaos-grad">
      <stop stop-color="hsl(290, 87%, 47%)" stop-opacity="1" offset="0%"></stop>
      <stop stop-color="hsl(37, 91%, 55%)" stop-opacity="1" offset="100%"></stop>
    </linearGradient>
  </defs>
  <g stroke-width="2" stroke="url(#ccchaos-grad)" fill="none" stroke-linecap="round">
    <path d="M116.91 108.08Q126.04 110.96 135.17 113.97 144.31 116.99 153.44 119.87 162.58 122.48 171.71 124.71 180.84 126.46 189.98 127.65 199.11 128.22 208.25 128.15 217.38 127.44 226.51 126.12 235.65 124.26 244.78 121.93 253.91 119.25 263.05 116.33 272.18 113.3 281.32 110.31 290.45 107.48 299.58 104.94 308.72 102.81 317.85 101.19 326.98 100.15 336.12 99.73 345.25 99.95 354.39 100.81 363.52 102.26 372.65 104.24 381.79 106.66 390.92 109.42 400.05 112.37 409.19 115.41 418.32 118.37 427.46 121.15 436.59 123.59 445.72 125.61 454.86 127.1 463.99 128 473.12 128.27 482.26 127.89 491.39 126.89 500.53 125.31 509.66 123.21 518.79 120.7 527.93 117.89 537.06 114.9 546.19 111.87 555.33 108.94 564.46 106.23 573.6 103.88 582.73 101.98 591.86 100.62 601 99.87 610.13 99.75 619.27 100.28 628.4 101.43 637.53 103.14 646.67 105.34 655.8 107.93 664.93 110.8 674.07 113.81 683.2 116.83 692.34 119.72 701.47 122.35 710.4 131.49 717.44 140.62 722.04 149.75 723.85 158.89 722.72 168.02 718.75 177.15 712.24 186.29 703.7 195.42 693.78 204.55 683.26 213.69 672.95 222.82 663.66 231.96 656.09 241.09 650.84 250.22 648.32 259.36 648.72 268.49 652 277.62 657.92 286.76 666.02 295.89 675.66 305.03 686.11 314.16 696.54 323.29 706.16 332.43 714.22 341.56 720.09 350.69 723.31 359.83 723.65 368.96 721.06 378.1 715.76 387.23 708.15 396.36 698.83 405.5 688.51 414.63 677.99 423.76 668.1 432.9 659.59 442.03 653.13 451.16 649.21 460.3 648.15 469.43 650.02 478.57 654.68 487.7 661.76 496.83 670.73 505.97 680.87 515.1 691.41 524.23 701.54 533.37 710.46 542.5 717.48 551.64 722.06 560.77 723.85 569.9 722.7 579.04 718.71 588.17 712.19 597.3 703.63 606.44 693.71 615.57 683.18 624.71 672.88 633.84 663.6 642.97 656.04 652.11 650.81 661.24 648.31 670.37 648.73 679.51 652.03 688.64 648.86 692.29 631.34 678 622.66 670.82 613.97 664.33 605.29 658.82 596.6 654.54 579.23 651.16 561.86 652.53 553.18 655.92 544.49 660.67 535.81 666.57 527.12 673.34 518.44 680.68 509.75 688.26 501.07 695.74 492.38 702.78 483.7 709.06 475.01 714.3 466.33 718.27 457.64 720.77 448.96 721.71 440.27 721.04 431.59 718.79 422.9 715.06 414.22 710.02 405.53 703.89 396.85 696.96 388.16 689.53 379.48 681.94 370.79 674.53 362.11 667.65 353.42 661.59 344.74 656.63 336.06 652.99 318.69 651.09 301.32 653.95 292.63 658.01 283.95 663.34 275.26 669.68 266.58 676.76 257.89 684.26 249.21 691.83 240.52 699.14 231.84 705.86 223.15 711.69 214.47 716.35 197.1 720.62 179.73 720.17 171.04 717.2 162.36 712.82 153.67 707.23 144.99 700.69 136.3 693.48 127.62 685.93 118.93 678.39 110.25 671.19 108.72 662.39 107.6 653.59 106.98 644.79 106.9 636 107.37 627.2 108.36 618.4 109.78 609.6 111.53 600.8 113.47 592 115.45 583.2 117.31 574.41 118.92 565.61 120.15 556.81 120.9 548.01 121.12 539.21 120.78 530.41 119.92 521.61 118.6 512.81 116.92 504.02 115.01 495.22 113.03 486.42 111.12 477.62 109.43 468.82 108.1 460.02 107.22 451.22 106.87 442.43 107.07 433.63 107.81 424.83 109.03 416.03 110.63 407.23 112.49 398.43 114.47 389.63 116.41 380.84 118.17 372.04 119.6 363.24 120.59 354.44 121.08 345.64 121.02 336.84 120.41 328.04 119.31 319.25 117.79 310.45 115.98 301.65 114.02 292.85 112.05 284.05 110.24 275.25 108.71 266.45 107.6 257.66 106.98 248.86 106.9 240.06 107.38 231.26 108.37 222.46 109.79 213.66 111.54 204.86 113.48 196.07 115.46 187.27 117.33 178.47 118.93 169.67 120.16 160.87 120.91 152.07 121.12 143.27 120.78 134.47 119.91 125.68 118.59 116.88 116.91 108.08" stroke-dasharray="2 3" transform="rotate(0, 400, 400)" opacity="0.36"></path>
    <path d="M130.34 122.58Q148.17 128.54 165.99 133.92 183.82 137.82 201.65 139.61 219.47 138.98 237.3 136.05 255.13 131.28 272.96 125.48 290.78 119.6 308.61 114.61 326.44 111.34 344.26 110.32 362.09 111.72 379.92 115.32 397.74 120.51 415.57 126.45 433.4 132.14 451.23 136.66 469.05 139.25 486.88 139.48 504.71 137.33 522.53 133.13 540.36 127.6 558.19 121.63 576.02 116.22 593.84 112.26 611.67 110.4 629.5 110.95 647.32 113.82 665.15 118.54 682.98 124.32 700.8 130.22 710.94 147.63 710.94 165.05 700.83 182.47 683.44 199.88 663.67 217.3 647.09 234.72 638.37 252.13 639.96 269.55 651.42 286.97 669.52 304.38 689.16 321.8 704.81 339.22 712.06 356.63 708.88 374.05 696.15 391.47 677.47 408.88 658.09 426.3 643.47 443.72 637.73 461.13 642.48 478.55 656.39 495.97 675.54 513.38 694.54 530.8 708.03 548.22 712.22 565.63 705.93 583.05 690.92 600.47 671.43 617.88 652.94 635.3 640.67 652.72 633.72 671.76 612.92 659.48 596.46 648.14 579.99 641.23 563.53 639.9 547.06 644.37 530.59 653.89 514.13 666.9 497.66 681.25 481.2 694.56 464.73 704.64 448.27 709.83 431.8 709.26 415.34 703.04 398.87 692.18 382.41 678.49 365.94 664.22 349.48 651.73 333.01 643.08 316.55 639.7 300.08 642.15 283.61 650.03 267.15 662.03 250.68 676.17 234.22 690.11 217.75 701.56 201.29 708.63 184.82 710.13 168.36 705.84 151.89 696.45 135.43 683.52 118.96 669.18 117.35 652.1 117.89 635.02 120.43 617.94 124.26 600.86 128.29 583.77 131.4 566.69 132.7 549.61 131.83 532.53 129.04 515.45 125.11 498.37 121.14 481.29 118.26 464.2 117.28 447.12 118.47 430.04 121.49 412.96 125.51 395.88 129.38 378.8 132.01 361.72 132.67 344.63 131.17 327.55 127.93 310.47 123.86 293.39 120.11 276.31 117.74 259.23 117.41 242.15 119.22 225.06 122.65 207.98 126.74 190.9 130.34 173.82 132.44 156.74 132.44 139.66 130.34 122.58" stroke-dasharray="2 8" transform="rotate(4.04, 400, 400)" opacity="0.56"></path>
    <path d="M143.43 137.45Q160.73 143.09 178.02 147.65 195.31 150.44 212.61 151.02 229.9 149.32 247.19 145.58 264.49 140.39 281.78 134.52 299.08 128.88 316.37 124.32 333.66 121.54 350.96 120.97 368.25 122.68 385.54 126.42 402.84 131.62 420.13 137.49 437.43 143.13 454.72 147.68 472.01 150.45 489.31 151.02 506.6 149.3 523.89 145.55 541.19 140.35 558.48 134.48 575.78 128.85 593.07 124.3 610.36 121.53 627.66 120.97 644.95 122.7 662.24 126.45 679.54 131.66 696.83 137.53 700.63 154.09 694.91 170.65 681.14 187.21 662.92 203.78 644.98 220.34 631.98 236.9 627.31 253.47 632.17 270.03 645.32 286.59 663.32 303.15 681.49 319.72 695.12 336.28 700.65 352.84 696.65 369.4 684.16 385.97 666.43 402.53 648.06 419.09 633.84 435.66 627.45 452.22 630.57 468.78 642.38 485.34 659.81 501.91 678.33 518.47 693.12 535.03 700.34 551.59 698.1 568.16 687 584.72 669.91 601.28 651.29 617.85 635.97 634.41 627.94 650.97 629.28 667.53 613.62 653.97 597.96 641.94 582.3 633.26 566.64 629.27 550.98 630.57 535.32 636.96 519.65 647.47 503.99 660.5 488.33 674.06 472.67 686.09 457.01 694.75 441.35 698.72 425.69 697.41 410.03 691 394.37 680.48 378.71 667.45 363.05 653.89 347.38 641.87 331.72 633.22 316.06 629.26 300.4 630.6 284.74 637.02 269.08 647.55 253.42 660.59 237.76 674.14 222.1 686.15 206.44 694.79 190.78 698.73 175.12 697.38 159.45 690.94 143.79 680.4 128.13 667.36 127.83 650.8 129.65 634.24 133.12 617.68 137.34 601.12 141.21 584.56 143.72 568 144.23 551.44 142.59 534.88 139.24 518.32 135.05 501.76 131.1 485.2 128.43 468.64 127.72 452.08 129.16 435.52 132.39 418.96 136.55 402.4 140.56 385.84 143.39 369.28 144.3 352.72 143.04 336.17 139.96 319.61 135.84 303.05 131.76 286.49 128.79 269.93 127.69 253.37 128.74 236.81 131.69 220.25 135.75 203.69 139.88 187.13 143 170.57 144.29 154.01 143.43 137.45" stroke-dasharray="9 2" transform="rotate(8.08, 400, 400)" opacity="0.52"></path>
    <path d="M155.83 152.44Q172.49 157.4 189.15 160.9 205.8 162.45 222.46 161.84 239.12 159.15 255.77 154.76 272.43 149.28 289.09 143.48 305.74 138.17 322.4 134.1 339.05 131.83 355.71 131.69 372.37 133.69 389.02 137.56 405.68 142.75 422.34 148.53 438.99 154.1 455.65 158.67 472.31 161.61 488.96 162.5 505.62 161.22 522.28 157.94 538.93 153.14 555.59 147.47 572.24 141.74 588.9 136.74 605.56 133.18 622.21 131.55 638.87 132.09 655.53 134.72 672.18 139.06 688.84 144.52 686.58 160.24 676.28 175.95 660.41 191.67 642.77 207.39 627.57 223.11 618.46 238.83 617.61 254.54 625.22 270.26 639.48 285.98 656.97 301.7 673.51 317.41 685.14 333.13 689.09 348.85 684.39 364.57 672.19 380.29 655.39 396 638.02 411.72 624.23 427.44 617.33 443.16 618.96 458.87 628.73 474.59 644.3 490.31 661.96 506.03 677.47 521.75 687.13 537.46 688.62 553.18 681.58 568.9 667.71 584.62 650.32 600.34 633.56 616.05 621.46 631.77 616.9 647.49 601.94 635.36 586.97 625.7 572.01 619.86 557.05 618.66 542.09 622.28 527.12 630.19 512.16 641.3 497.2 654.05 482.24 666.65 467.27 677.34 452.31 684.61 437.35 687.46 422.39 685.48 407.42 678.95 392.46 668.78 377.5 656.4 362.53 643.55 347.57 632.02 332.61 623.42 317.65 618.97 302.68 619.28 287.72 624.32 272.76 633.37 257.8 645.18 242.83 658.07 227.87 670.26 212.91 680.03 197.95 686.01 182.98 687.36 168.02 683.91 153.06 676.12 138.09 665.09 139.22 649.07 142.2 633.05 146.33 617.03 150.62 601.01 154.04 584.99 155.78 568.97 155.41 552.95 153.03 536.93 149.21 520.91 144.85 504.89 141.01 488.87 138.6 472.85 138.2 456.83 139.9 440.81 143.3 424.79 147.59 408.76 151.73 392.74 154.74 376.72 155.89 360.7 154.92 344.68 152.05 328.66 147.98 312.64 143.66 296.62 140.15 280.6 138.27 264.58 138.48 248.56 140.73 232.54 144.47 216.52 148.82 200.5 152.74 184.48 155.28 168.46 155.83 152.44" stroke-dasharray="7 8" transform="rotate(12.12, 400, 400)" opacity="0.96"></path>
    <path d="M167.25 167.25Q183.17 171.22 199.08 173.5 215 173.79 230.92 172.05 246.84 168.5 262.75 163.61 278.67 158 294.59 152.39 310.51 147.5 326.42 143.95 342.34 142.21 358.26 142.49 374.17 144.76 390.09 148.73 406.01 153.88 421.93 159.57 437.84 165.05 453.76 169.63 469.68 172.72 485.6 173.91 501.51 173.07 517.43 170.29 533.35 165.93 549.27 160.56 565.18 154.85 581.1 149.55 597.02 145.34 612.94 142.74 628.85 142.11 644.77 143.51 660.69 146.77 676.61 151.47 669.2 166.36 655.83 181.25 639.43 196.15 623.59 211.04 611.78 225.93 606.6 240.82 609.18 255.72 618.96 270.61 633.78 285.5 650.41 300.39 665.19 315.29 674.89 330.18 677.37 345.07 672.1 359.96 660.22 374.86 644.35 389.75 627.96 404.64 614.65 419.53 607.34 434.43 607.62 449.32 615.44 464.21 629.09 479.11 645.56 494 661.25 508.89 672.72 523.78 677.45 538.68 674.41 553.57 664.26 568.46 649.22 583.35 632.61 598.25 618.05 613.14 608.74 628.03 594.37 617.97 580.01 611 565.65 608 551.28 609.36 536.92 614.91 522.56 623.93 508.19 635.28 493.83 647.48 479.47 658.98 465.1 668.3 450.74 674.24 436.37 676.05 422.01 673.49 407.65 666.89 393.28 657.1 378.92 645.36 364.56 633.2 350.19 622.16 335.83 613.67 321.47 608.81 307.1 608.21 292.74 611.94 278.38 619.53 264.01 630 249.65 642.01 235.29 654.02 220.92 664.48 206.56 672.06 192.19 675.78 177.83 675.17 163.47 670.3 149.1 661.8 151.59 646.35 155.48 630.89 159.93 615.44 163.95 599.98 166.66 584.53 167.47 569.07 166.21 553.62 163.14 538.16 158.95 522.71 154.54 507.26 150.9 491.8 148.81 476.35 148.73 460.89 150.69 445.44 154.24 429.98 158.62 414.53 162.87 399.07 166.04 383.62 167.45 368.16 166.79 352.71 164.2 337.25 160.24 321.8 155.8 306.34 151.84 290.89 149.22 275.43 148.53 259.98 149.92 244.53 153.07 229.07 157.31 213.62 161.69 198.16 165.27 182.71 167.25 167.25" stroke-dasharray="5 4" transform="rotate(16.16, 400, 400)" opacity="0.52"></path>
    <path d="M177.49 181.61Q192.58 184.37 207.67 185.33 222.76 184.38 237.86 181.63 252.95 177.4 268.04 172.19 283.13 166.6 298.22 161.3 313.31 156.89 328.4 153.9 343.5 152.68 358.59 153.36 373.68 155.88 388.77 159.93 403.86 165.04 418.95 170.61 434.04 175.99 449.13 180.56 464.23 183.77 479.32 185.26 494.41 184.84 509.5 182.56 524.59 178.7 539.68 173.71 554.77 168.16 569.86 162.71 584.96 157.99 600.05 154.57 615.14 152.83 630.23 152.98 647.29 163.89 634.47 186.86 618.97 200.96 605.88 215.05 597.82 229.15 596.39 243.24 601.89 257.34 613.22 271.43 628.1 285.53 643.56 299.62 656.51 313.72 664.35 327.81 665.51 341.91 659.77 356 648.27 370.1 633.31 384.19 617.89 398.29 605.09 412.39 597.47 426.48 596.57 440.58 602.55 454.67 614.23 468.77 629.26 482.86 644.64 496.96 657.29 511.05 664.67 525.15 665.32 539.24 659.1 553.34 647.25 567.43 632.15 581.53 616.82 595.62 604.33 609.72 590.48 602.17 576.64 598 562.79 597.68 548.95 601.27 535.1 608.33 521.26 618.04 507.41 629.27 493.57 640.7 479.72 651 465.88 658.95 452.03 663.64 438.19 664.5 424.34 661.44 410.5 654.82 396.65 645.42 382.81 634.32 368.96 622.84 355.12 612.31 341.27 603.97 327.43 598.78 313.59 597.37 299.74 599.89 285.9 606.06 272.05 615.13 258.21 626.07 244.36 637.58 230.52 648.32 216.67 657.03 202.83 662.7 188.98 664.66 175.14 662.68 161.29 656.99 164.9 642.13 169.33 627.28 173.69 612.42 177.11 597.57 178.91 582.71 178.72 567.85 176.59 553 172.93 538.14 168.49 523.29 164.15 508.43 160.78 493.58 159.05 478.72 159.31 463.87 161.51 449.01 165.21 434.15 169.66 419.3 173.98 404.44 177.31 389.59 178.96 374.73 178.63 359.88 176.36 345.02 172.62 330.17 168.16 315.31 163.86 300.45 160.59 285.6 159 270.74 159.41 255.89 161.74 241.03 165.52 226.18 170 211.32 174.27 196.47 177.49 181.61" stroke-dasharray="11 1" transform="rotate(20.200000000000003, 400, 400)" opacity="0.40"></path>
    <path d="M186.52 195.24Q200.73 196.66 214.93 196.31 229.13 194.23 243.33 190.63 257.54 185.9 271.74 180.55 285.94 175.14 300.14 170.24 314.34 166.38 328.55 163.97 342.75 163.25 356.95 164.32 371.15 167.05 385.35 171.16 399.56 176.2 413.76 181.65 427.96 186.92 442.16 191.46 456.36 194.78 470.57 196.53 484.77 196.52 498.97 194.75 513.17 191.42 527.37 186.88 541.58 181.6 555.78 176.16 569.98 171.12 584.18 167.02 598.38 164.3 612.59 163.25 627.28 171.86 613.14 193.07 599.75 206.4 590.04 219.74 585.78 233.07 587.74 246.4 595.56 259.73 607.83 273.06 622.31 286.39 636.36 299.73 647.44 313.06 653.53 326.39 653.53 339.72 647.42 353.05 636.33 366.39 622.27 379.72 607.8 393.05 595.54 406.38 587.73 419.71 585.78 433.04 590.06 446.38 599.78 459.71 613.17 473.04 627.8 486.37 641.02 499.7 650.41 513.03 654.27 526.37 651.9 539.7 643.73 553.03 631.25 566.36 616.71 579.69 602.78 593.03 589.4 588.2 576.02 586.76 562.64 588.85 549.26 594.24 535.88 602.37 522.5 612.37 509.12 623.19 495.74 633.66 482.36 642.68 468.98 649.29 455.61 652.79 442.23 652.81 428.85 649.34 415.47 642.75 402.09 633.75 388.71 623.28 375.33 612.47 361.95 602.45 348.57 594.3 335.19 588.88 321.81 586.76 308.43 588.18 295.05 592.97 281.67 600.63 268.3 610.35 254.92 621.1 241.54 631.73 228.16 641.11 214.78 648.25 201.4 652.38 188.02 653.08 174.64 650.26 178.97 636.04 183.49 621.83 187.38 607.61 189.92 593.39 190.66 579.17 189.45 564.95 186.53 550.73 182.42 536.51 177.87 522.29 173.71 508.07 170.69 493.85 169.36 479.63 169.96 465.41 172.39 451.19 176.2 436.97 180.7 422.75 185.08 408.53 188.53 394.31 190.42 380.1 190.43 365.88 188.53 351.66 185.09 337.44 180.71 323.22 176.21 309 172.4 294.78 169.96 280.56 169.35 266.34 170.68 252.12 173.7 237.9 177.86 223.68 182.41 209.46 186.52 195.24" stroke-dasharray="8 6" transform="rotate(24.24, 400, 400)" opacity="0.12"></path>
    <path d="M194.48 207.93Q207.76 207.97 221.04 206.39 234.32 203.34 247.6 199.1 260.88 194.08 274.16 188.76 287.44 183.66 300.72 179.26 314 175.99 327.28 174.16 340.56 173.95 353.84 175.36 367.11 178.28 380.39 182.42 393.67 187.38 406.95 192.69 420.23 197.84 433.51 202.33 446.79 205.73 460.07 207.71 473.35 208.1 486.63 206.84 499.91 204.06 513.19 200.03 526.47 195.13 539.75 189.84 553.03 184.65 566.31 180.08 579.59 176.55 592.87 174.41 605.99 180.7 592.76 200.16 582.36 212.76 576.33 225.37 575.67 237.97 580.49 250.58 589.99 263.18 602.61 275.79 616.28 288.39 628.76 301 637.99 313.6 642.45 326.2 641.42 338.81 635.05 351.41 624.41 364.02 611.23 376.62 597.69 389.23 586 401.83 578.09 414.44 575.26 427.04 577.97 439.65 585.79 452.25 597.41 464.85 610.94 477.46 624.15 490.06 634.87 502.67 641.33 515.27 642.49 527.88 638.14 540.48 629 553.09 616.57 565.69 602.9 578.3 589.96 576.2 577.03 577.25 564.09 581.35 551.16 588.1 538.22 596.86 525.29 606.78 512.35 616.91 499.41 626.28 486.48 634 473.54 639.31 460.61 641.72 447.67 640.98 434.74 637.18 421.8 630.67 408.86 622.09 395.93 612.24 382.99 602.09 370.06 592.59 357.12 584.67 344.19 579.09 331.25 576.37 318.32 576.79 305.38 580.29 292.44 586.55 279.51 594.96 266.57 604.72 253.64 614.89 240.7 624.49 227.77 632.61 214.83 638.46 197.71 634.66 197.68 614.3 200.73 600.75 202.18 587.2 201.8 573.66 199.64 560.11 196.06 546.57 191.64 533.02 187.13 519.48 183.24 505.93 180.64 492.38 179.73 478.84 180.67 465.29 183.32 451.75 187.22 438.2 191.74 424.66 196.14 411.11 199.7 397.56 201.82 384.02 202.17 370.47 200.68 356.93 197.6 343.38 193.43 329.84 188.86 316.29 184.65 302.75 181.47 289.2 179.87 275.65 180.09 262.11 182.1 248.56 185.57 235.02 189.94 221.47 194.48 207.93" stroke-dasharray="9 2" transform="rotate(28.28, 400, 400)" opacity="0.92"></path>
    <path d="M201.65 219.49Q214 218.24 226.36 215.59 238.71 211.77 251.07 207.11 263.42 202 275.78 196.9 288.14 192.23 300.49 188.41 312.85 185.76 325.2 184.5 337.56 184.76 349.91 186.5 362.27 189.57 374.62 193.72 386.98 198.58 399.34 203.73 411.69 208.74 424.05 213.16 436.4 216.62 448.76 218.82 461.11 219.57 473.47 218.81 485.82 216.59 498.18 213.12 510.54 208.69 522.89 203.68 535.25 198.53 547.6 193.67 559.96 189.54 572.31 186.47 584.63 190.59 574.16 208.34 567.23 220.25 564.85 232.16 567.37 244.08 574.41 255.99 584.93 267.9 597.38 279.82 609.92 291.73 620.7 303.64 628.13 315.56 631.11 327.47 629.19 339.38 622.67 351.3 612.5 363.21 600.19 375.12 587.56 387.04 576.47 398.95 568.55 410.86 564.99 422.78 566.3 434.69 572.29 446.6 582.08 458.52 594.22 470.43 606.92 482.34 618.29 494.26 626.68 506.17 630.82 518.08 630.12 530 624.67 541.91 615.28 553.82 603.34 565.74 590.86 566.18 578.38 569.36 565.9 575.01 553.41 582.64 540.93 591.6 528.45 601.11 515.97 610.35 503.48 618.52 491 624.92 478.52 629.01 466.04 630.42 453.55 629.04 441.07 624.98 428.59 618.59 416.11 610.43 403.63 601.2 391.14 591.69 378.66 582.73 366.18 575.08 353.7 569.4 341.21 566.19 328.73 565.73 316.25 568.04 303.77 572.93 291.28 579.99 278.8 588.59 266.32 598.01 253.84 607.43 241.36 616.03 228.87 623.08 212.29 622.7 211.54 604.59 213.49 591.76 213.74 578.92 212.26 566.08 209.26 553.25 205.19 540.41 200.64 527.57 196.3 514.74 192.8 501.9 190.65 489.06 190.19 476.22 191.46 463.39 194.29 450.55 198.26 437.71 202.78 424.88 207.19 412.04 210.82 399.2 213.16 386.37 213.84 373.53 212.78 360.69 210.12 347.86 206.26 335.02 201.78 322.18 197.32 309.35 193.56 296.51 191.04 283.67 190.14 270.83 190.99 258 193.47 245.16 197.2 232.32 201.65 219.49" stroke-dasharray="4 5" transform="rotate(32.32, 400, 400)" opacity="0.70"></path>
    <path d="M208.46 229.84Q219.92 227.45 231.37 223.96 242.83 219.62 254.29 214.77 265.75 209.78 277.21 205.04 288.67 200.92 300.13 197.72 311.58 195.7 323.04 195.01 334.5 195.7 345.96 197.72 357.42 200.92 368.88 205.05 380.34 209.79 391.79 214.77 403.25 219.62 414.71 223.96 426.17 227.46 437.63 229.84 449.09 230.92 460.55 230.63 472 228.98 483.46 226.1 494.92 222.21 506.38 217.62 517.84 212.66 529.3 207.74 540.76 203.21 552.21 199.44 564.38 201.6 557.93 217.75 554.61 229 555.56 240.26 560.66 251.51 569.23 262.77 580.15 274.02 591.97 285.28 603.13 296.53 612.16 307.79 617.88 319.04 619.52 330.3 616.86 341.55 610.27 352.81 600.61 364.06 589.15 375.32 577.41 386.57 566.93 397.83 559.1 409.08 554.95 420.34 555.02 431.59 559.32 442.85 567.26 454.1 577.81 465.36 589.57 476.61 600.99 487.87 610.56 499.12 617.03 510.38 619.53 521.63 617.74 532.89 611.9 544.14 602.77 555.4 590.77 558.02 578.78 562.88 566.79 569.59 554.8 577.63 542.81 586.4 530.82 595.22 518.82 603.4 506.83 610.32 494.84 615.45 482.85 618.38 470.86 618.9 458.86 616.97 446.87 612.73 434.88 606.51 422.89 598.79 410.9 590.16 398.9 581.29 386.91 572.85 374.92 565.51 362.93 559.82 350.94 556.22 338.95 554.98 326.95 556.21 314.96 559.81 302.97 565.5 290.98 572.84 278.99 581.28 266.99 590.15 255 598.78 243.01 606.5 226.77 608.8 224.75 592.77 225.44 580.67 224.48 568.57 222.01 556.48 218.35 544.38 213.98 532.28 209.48 520.18 205.45 508.09 202.41 495.99 200.77 483.89 200.74 471.79 202.33 459.69 205.32 447.6 209.33 435.5 213.82 423.4 218.2 411.3 221.9 399.21 224.42 387.11 225.43 375.01 224.8 362.91 222.62 350.81 219.17 338.72 214.9 326.62 210.38 314.52 206.2 302.42 202.92 290.32 200.97 278.23 200.61 266.13 201.88 254.03 204.62 241.93 208.46 229.84" stroke-dasharray="11 10" transform="rotate(36.36, 400, 400)" opacity="0.11"></path>
    <path d="M215.43 238.96Q226.04 235.68 236.65 231.6 247.26 227 257.87 222.2 268.49 217.52 279.1 213.28 289.71 209.77 300.32 207.24 310.93 205.84 321.54 205.68 332.16 206.78 342.77 209.04 353.38 212.33 363.99 216.41 374.6 221.01 385.21 225.81 395.82 230.49 406.44 234.73 417.05 238.23 427.66 240.76 438.27 242.15 448.88 242.3 459.49 241.21 470.11 238.93 480.72 235.64 491.33 231.56 501.94 226.96 512.55 222.15 523.16 217.48 533.77 213.24 546.25 213.79 544.48 228.46 544.54 239.09 548.28 249.71 555.26 260.34 564.67 270.96 575.4 281.58 586.21 292.21 595.82 302.83 603.11 313.45 607.22 324.08 607.69 334.7 604.44 345.33 597.87 355.95 588.74 366.57 578.11 377.2 567.24 387.82 557.4 398.44 549.72 409.07 545.13 419.69 544.14 430.32 546.88 440.94 553.03 451.56 561.86 462.19 572.35 472.81 583.27 483.44 593.33 494.06 601.36 504.68 606.43 515.31 607.94 525.93 605.7 536.55 600 547.18 588.55 551.52 577.11 557.53 565.66 564.8 554.22 572.83 542.78 581.08 531.33 588.98 519.89 596 508.44 601.65 497 605.55 485.56 607.44 474.11 607.18 462.67 604.79 451.22 600.45 439.78 594.43 428.34 587.15 416.89 579.12 405.45 570.87 394 562.97 382.56 555.96 371.12 550.32 359.67 546.42 348.23 544.55 336.78 544.82 325.34 547.21 313.9 551.57 302.45 557.59 291.01 564.87 279.56 572.91 268.12 581.16 256.68 589.05 240.67 593.21 237.03 579.03 236.41 567.69 234.35 556.35 231.07 545.02 226.96 533.68 222.51 522.35 218.23 511.01 214.63 499.68 212.12 488.34 211 477.01 211.4 465.67 213.28 454.33 216.41 443 220.42 431.66 224.86 420.33 229.19 408.99 232.92 397.66 235.6 386.32 236.93 374.99 236.74 363.65 235.06 352.32 232.08 340.98 228.16 329.64 223.75 318.31 219.37 306.97 215.53 295.64 212.69 284.3 211.16 272.97 211.14 261.63 212.62 250.3 215.43 238.96" stroke-dasharray="4 8" transform="rotate(40.400000000000006, 400, 400)" opacity="0.32"></path>
    <path d="M223.1 246.94Q232.93 243.05 242.76 238.67 252.59 234.08 262.42 229.54 272.24 225.33 282.07 221.69 291.9 218.86 301.73 216.99 311.56 216.21 321.39 216.54 331.22 217.99 341.05 220.46 350.87 223.8 360.7 227.81 370.53 232.25 380.36 236.85 390.19 241.35 400.02 245.46 409.85 248.95 419.68 251.6 429.5 253.25 439.33 253.81 449.16 253.24 458.99 251.57 468.82 248.91 478.65 245.42 488.48 241.3 498.31 236.8 508.14 232.19 517.96 227.76 530.99 227.09 533.91 240.45 536.84 250.46 542.67 260.48 550.8 270.49 560.39 280.5 570.45 290.51 579.95 300.53 587.92 310.54 593.52 320.55 596.18 330.57 595.64 340.58 591.94 350.59 585.46 360.61 576.88 370.62 567.08 380.63 557.06 390.64 547.85 400.66 540.41 410.67 535.51 420.68 533.64 430.7 534.99 440.71 539.44 450.72 546.52 460.73 555.5 470.75 565.46 480.76 575.37 490.77 584.21 500.79 591.07 510.8 595.25 520.81 596.32 530.83 594.16 540.84 583.33 546.36 572.5 553 561.67 560.35 550.84 567.99 540.02 575.44 529.19 582.27 518.36 588.07 507.53 592.48 496.71 595.24 485.88 596.18 475.05 595.26 464.22 592.52 453.39 588.13 442.57 582.35 431.74 575.53 420.91 568.08 410.08 560.44 399.26 553.08 388.43 546.43 377.6 540.9 366.77 536.81 355.94 534.41 345.12 533.84 334.29 535.15 323.46 538.25 312.63 542.94 301.81 548.97 290.98 555.95 280.15 563.48 269.32 571.1 253.55 576.29 248.14 563.68 246.33 553.12 243.34 542.57 239.5 532.01 235.2 521.45 230.87 510.89 226.97 500.33 223.89 489.78 221.96 479.22 221.37 468.66 222.18 458.1 224.31 447.54 227.55 436.98 231.54 426.43 235.9 415.87 240.16 405.31 243.89 394.75 246.7 384.19 248.31 373.64 248.55 363.08 247.39 352.52 244.96 341.96 241.5 331.4 237.37 320.85 232.99 310.29 228.83 299.73 225.29 289.17 222.76 278.61 221.49 268.06 221.6 257.5 223.1 246.94" stroke-dasharray="2 7" transform="rotate(44.44, 400, 400)" opacity="0.30"></path>
    <path d="M231.97 253.94Q241.08 249.76 250.2 245.37 259.31 241.03 268.43 236.94 277.54 233.32 286.66 230.37 295.77 228.23 304.89 227.03 314 226.81 323.12 227.6 332.23 229.35 341.35 231.97 350.46 235.32 359.58 239.24 368.69 243.5 377.81 247.9 386.92 252.19 396.04 256.16 405.15 259.6 414.27 262.33 423.38 264.21 432.49 265.13 441.61 265.05 450.72 263.98 459.84 261.96 468.95 259.11 478.07 255.58 487.18 251.54 496.3 247.21 505.41 242.82 519.01 241.39 526.08 253.59 531.18 263 538.33 272.42 546.88 281.83 556.07 291.24 565.07 300.66 573.08 310.07 579.38 319.49 583.4 328.9 584.77 338.32 583.39 347.73 579.36 357.14 573.06 366.56 565.04 375.97 556.04 385.39 546.85 394.8 538.3 404.21 531.16 413.63 526.07 423.04 523.49 432.46 523.65 441.87 526.53 451.28 531.88 460.7 539.21 470.11 547.88 479.53 557.09 488.94 566.02 498.35 573.87 507.77 579.94 517.18 583.68 526.6 584.75 536.01 574.61 542.15 564.47 548.92 554.33 555.94 544.19 562.87 534.04 569.33 523.9 574.99 513.76 579.55 503.62 582.78 493.48 584.5 483.33 584.63 473.19 583.15 463.05 580.15 452.91 575.78 442.77 570.27 432.62 563.91 422.48 557.04 412.34 550 402.2 543.17 392.06 536.91 381.91 531.54 371.77 527.35 361.63 524.55 351.49 523.29 341.35 523.63 331.2 525.56 321.06 528.98 310.92 533.71 300.78 539.49 290.64 546.04 280.49 553 265.03 558.48 257.99 547.17 255.18 537.39 251.55 527.62 247.42 517.84 243.17 508.07 239.16 498.29 235.78 488.52 233.3 478.75 231.97 468.97 231.9 459.2 233.09 449.42 235.44 439.65 238.74 429.88 242.69 420.1 246.94 410.33 251.1 400.55 254.8 390.78 257.72 381 259.58 371.23 260.22 361.46 259.58 351.68 257.72 341.91 254.82 332.13 251.11 322.36 246.95 312.59 242.71 302.81 238.75 293.04 235.45 283.26 233.1 273.49 231.9 263.71 231.97 253.94" stroke-dasharray="1 6" transform="rotate(48.48, 400, 400)" opacity="0.51"></path>
    <path d="M242.41 260.2Q250.88 256.04 259.34 251.92 267.81 248.03 276.27 244.54 293.2 239.78 310.13 237.37 327.06 239.26 343.99 243.58 352.45 246.91 360.92 250.7 369.38 254.77 377.85 258.94 386.31 263.02 394.78 266.83 403.24 270.2 411.71 272.97 428.64 275.83 445.56 276.11 454.03 274.73 462.49 272.55 470.96 269.67 479.42 266.22 487.89 262.35 496.35 258.24 510.36 256.46 520.62 267.67 527.07 276.49 534.76 285.31 543.08 294.13 551.4 302.95 559.07 311.77 565.49 320.59 570.17 329.41 572.74 338.22 573.01 347.04 570.95 355.86 566.72 364.68 560.66 373.5 553.22 382.32 545 391.14 536.62 399.96 528.73 408.77 521.95 417.59 516.8 426.41 513.68 435.23 512.83 444.05 514.32 452.87 518.03 461.69 523.68 470.51 530.82 479.32 538.91 488.14 547.31 496.96 555.38 505.78 562.49 514.6 565.22 530.95 552.95 544.92 543.56 551.27 534.16 557.26 524.77 562.6 515.37 567.05 505.98 570.42 496.58 572.55 487.19 573.35 477.79 572.78 468.4 570.87 459 567.7 449.61 563.41 440.21 558.2 430.82 552.31 421.42 546 412.03 539.55 402.63 533.26 393.24 527.4 383.84 522.25 374.45 518.04 365.05 514.95 355.66 513.12 346.26 512.65 336.87 513.54 327.47 515.76 318.08 519.21 308.68 523.74 299.29 529.13 289.89 535.15 274.9 540.24 266.56 529.97 263.07 520.98 259.11 511.99 254.99 502.99 251.02 494 247.52 485.01 244.75 476.02 242.92 467.03 242.19 458.03 242.61 449.04 244.14 440.05 246.67 431.06 249.99 422.06 253.86 413.07 257.98 404.08 262.01 395.09 265.66 386.1 268.64 377.1 270.71 368.11 271.72 359.12 271.59 350.13 270.33 341.13 268.03 332.14 264.88 323.15 261.12 314.16 257.04 305.17 252.95 296.17 249.18 287.18 246.01 278.19 243.7 269.2 242.41 260.2" stroke-dasharray="5 7" transform="rotate(52.52, 400, 400)" opacity="0.86"></path>
    <path d="M254.63 266.04Q270.36 258.55 286.1 252.5 301.83 248.81 317.56 248.04 333.29 250.32 349.02 255.28 364.75 262.19 380.48 269.98 396.21 277.46 411.94 283.51 427.67 287.19 443.4 287.95 459.13 285.66 474.87 280.69 490.6 273.78 506.33 265.99 516.93 282.43 531.45 298.86 546.11 315.3 557.1 331.74 561.56 348.18 558.34 364.62 548.26 381.05 533.96 397.49 519.14 413.93 507.67 430.37 502.52 446.81 505.04 463.24 514.56 479.68 528.62 496.12 543.56 512.56 555.49 529 538.28 540.63 521.08 550.95 503.88 558.39 486.67 561.8 469.47 560.67 452.26 555.17 435.06 546.14 417.86 534.96 400.65 523.32 383.45 513.01 366.24 505.59 349.04 502.19 331.84 503.33 314.63 508.85 297.43 517.88 280.22 529.07 274.01 512.63 266.24 496.19 258.92 479.75 253.96 463.31 252.65 446.87 255.33 430.43 261.3 413.99 269.02 397.55 276.46 381.12 281.71 364.68 283.39 348.24 281.06 331.8 275.34 315.36 267.71 298.92 260.15 282.48 254.63 266.04" stroke-dasharray="10 3" transform="rotate(56.56, 400, 400)" opacity="0.69"></path>
    <path d="M268.62 271.79Q283.21 265.51 297.81 260.95 312.41 258.71 327.01 259.07 341.6 261.99 356.2 267.09 370.8 273.71 385.4 281.02 399.99 288.06 414.59 293.95 429.19 297.91 443.79 299.45 458.38 298.36 472.98 294.79 487.58 289.19 502.18 282.29 514.29 297.5 527.87 312.72 539.94 327.94 547.86 343.15 549.89 358.37 545.58 373.59 535.88 388.8 522.92 404.02 509.53 419.23 498.66 434.45 492.69 449.67 492.92 464.88 499.31 480.1 510.45 495.32 523.91 510.53 536.73 525.75 521.16 535.72 505.59 543.8 490.03 548.95 474.46 550.52 458.9 548.3 443.33 542.58 427.76 534.09 412.2 523.92 396.63 513.37 381.07 503.8 365.5 496.44 349.94 492.23 334.37 491.71 318.8 494.95 303.24 501.52 287.67 510.6 280.6 495.67 273.18 480.75 267.03 465.82 263.51 450.9 263.38 435.97 266.68 421.05 272.67 406.12 280.06 391.2 287.21 376.27 292.56 361.35 294.93 346.42 293.81 331.49 289.45 316.57 282.79 301.64 275.3 286.72 268.62 271.79" stroke-dasharray="10 0" transform="rotate(60.599999999999994, 400, 400)" opacity="0.54"></path>
    <path d="M284.12 277.84Q297.6 273.03 311.09 270.02 324.58 269.13 338.07 270.46 351.56 273.86 365.04 278.98 378.53 285.27 392.02 292.06 405.51 298.63 419 304.28 432.49 308.42 445.97 310.6 459.46 310.59 472.95 308.39 486.44 304.24 499.93 298.57 511.91 312.54 523.54 326.5 532.72 340.46 537.76 354.42 537.75 368.38 532.7 382.35 523.52 396.31 511.88 410.27 499.9 424.23 489.75 438.19 483.29 452.15 481.68 466.12 485.22 480.08 493.26 494.04 504.35 508 516.46 521.96 502.54 529.87 488.62 535.66 474.71 538.72 460.79 538.74 446.87 535.7 432.95 529.93 419.03 522.04 405.11 512.87 391.2 503.4 377.28 494.63 363.36 487.49 349.44 482.74 335.52 480.89 321.61 482.12 307.69 486.32 293.77 493.03 286.7 479.59 280.22 466.14 275.53 452.69 273.46 439.24 274.4 425.79 278.18 412.34 284.1 398.89 291.1 385.44 297.89 371.99 303.25 358.54 306.2 345.09 306.2 331.64 303.26 318.19 297.91 304.74 291.11 291.29 284.12 277.84" stroke-dasharray="1 9" transform="rotate(64.64, 400, 400)" opacity="0.66"></path>
    <path d="M300.68 284.54Q313.04 281.33 325.4 279.81 337.76 280.12 350.13 282.22 362.49 285.95 374.85 290.97 387.22 296.86 399.58 303.1 411.94 309.16 424.3 314.52 436.67 318.71 449.03 321.37 461.39 322.28 473.75 321.36 486.12 318.67 498.48 314.47 509.01 327.14 518.06 339.81 524.29 352.48 526.79 365.14 525.18 377.81 519.71 390.48 511.17 403.15 500.84 415.82 490.23 428.49 480.92 441.16 474.28 453.83 471.29 466.49 472.39 479.16 477.42 491.83 485.63 504.5 495.82 517.17 483.53 522.84 471.23 526.46 458.93 527.71 446.63 526.48 434.33 522.89 422.03 517.23 409.73 510.01 397.43 501.83 385.13 493.41 372.83 485.48 360.53 478.7 348.23 473.68 335.93 470.84 323.64 470.42 311.34 472.47 299.04 476.8 292.75 464.79 287.67 452.77 284.57 440.75 283.89 428.74 285.73 416.72 289.84 404.7 295.59 392.69 302.13 380.67 308.51 368.65 313.78 356.64 317.17 344.62 318.16 332.61 316.62 320.59 312.77 308.57 307.18 296.56 300.68 284.54" stroke-dasharray="8 4" transform="rotate(68.68, 400, 400)" opacity="0.84"></path>
    <path d="M317.67 292.23Q328.86 290.58 340.05 290.4 351.24 291.69 362.43 294.36 373.62 298.24 384.81 303.05 396 308.48 407.18 314.14 418.37 319.66 429.56 324.65 440.75 328.79 451.94 331.77 463.13 333.41 474.32 333.59 485.51 332.29 496.7 329.61 504.88 340.95 511.09 352.28 514.6 363.62 515 374.95 512.23 386.29 506.63 397.62 498.85 408.96 489.8 420.29 480.54 431.63 472.15 442.96 465.61 454.3 461.7 465.63 460.86 476.97 463.19 488.3 466.82 507.05 454.48 516.15 443.74 515.92 433 513.79 422.26 509.89 411.52 504.5 400.79 497.99 390.05 490.79 379.31 483.41 368.57 476.33 357.83 470.05 347.09 465 336.35 461.51 325.62 459.83 314.88 460.07 304.14 462.22 299.23 451.59 295.81 440.97 294.28 430.34 294.83 419.72 297.39 409.1 301.65 398.47 307.13 387.85 313.17 377.22 319.08 366.6 324.16 355.97 327.81 345.35 329.62 334.73 329.36 324.1 327.07 313.48 323.02 302.85 317.67 292.23" stroke-dasharray="10 10" transform="rotate(72.72, 400, 400)" opacity="0.78"></path>
    <path d="M334.38 301.18Q344.33 300.93 354.27 301.84 364.22 303.85 374.17 306.86 384.11 310.72 394.06 315.22 404 320.13 413.95 325.18 423.89 330.12 433.84 334.69 443.79 338.65 453.73 341.79 463.68 343.94 473.62 345 491.27 349.28 502.44 363.6 503.63 373.57 502.43 383.53 498.95 393.49 493.49 403.45 486.56 413.42 478.76 423.38 470.81 433.34 463.41 443.3 457.23 453.27 452.83 463.23 450.59 473.19 450.73 483.15 440.5 501.15 420.84 500.7 411.59 496.74 402.33 491.75 393.08 485.98 383.83 479.75 374.57 473.38 365.32 467.19 356.07 461.51 346.81 456.65 337.56 452.85 328.31 450.31 312.83 444.69 304.89 430.94 304.8 421.67 306.34 412.4 309.37 403.14 313.63 393.87 318.73 384.6 324.21 375.33 329.59 366.06 334.37 356.79 338.13 347.52 340.53 338.25 341.36 328.98 340.53 319.72 338.14 310.45 334.38 301.18" stroke-dasharray="5 4" transform="rotate(76.76, 400, 400)" opacity="0.14"></path>
    <path d="M350.07 311.58Q367.32 314.13 384.58 319.71 401.83 327.47 419.08 336.22 436.33 344.63 453.59 351.42 470.84 355.56 488.09 356.41 492.02 373.52 489.18 390.64 480.31 407.76 467.72 424.87 454.68 441.99 444.58 459.1 440.05 476.22 442.27 493.33 426.58 492.3 410.88 487.25 395.19 478.97 379.5 468.71 363.81 458.04 348.12 448.58 332.42 441.77 316.73 438.65 315.12 422.77 318.42 406.88 325.76 391 335.25 375.12 344.41 359.23 350.87 343.35 352.93 327.46 350.07 311.58" stroke-dasharray="7 3" transform="rotate(80.80000000000001, 400, 400)" opacity="0.59"></path>
    <path d="M364.09 323.53Q378.56 327.27 393.04 332.89 407.51 339.8 421.98 347.26 436.45 354.48 450.92 360.69 465.4 365.24 479.87 367.63 479.86 381.89 475.34 396.15 467.11 410.41 456.68 424.67 445.95 438.93 436.86 453.18 431.07 467.44 429.62 481.7 416.61 478.88 403.6 473.52 390.58 466.19 377.57 457.67 364.56 448.87 351.54 440.72 338.53 434.08 325.52 429.67 326.62 416.4 331.07 403.14 338.05 389.87 346.29 376.6 354.3 363.33 360.61 350.07 364.09 336.8 364.09 323.53" stroke-dasharray="5 4" transform="rotate(84.84, 400, 400)" opacity="0.14"></path>
    <path d="M375.96 337.02Q387.55 341.19 399.13 346.37 410.72 352.21 422.31 358.3 433.89 364.24 445.48 369.62 461.6 381.36 461.01 400.03 453.91 411.4 445.64 422.78 437.19 434.16 429.52 445.53 416.55 460.76 399.12 459.54 388.69 453.41 378.26 446.63 367.83 439.67 357.41 433.01 343.21 419.39 344.28 401.01 350.48 390.34 357.33 379.68 364.02 369.02 369.78 358.35 373.92 347.69 375.96 337.02" stroke-dasharray="10 9" transform="rotate(88.88, 400, 400)" opacity="0.83"></path>
    <path d="M385.44 351.93Q402.73 360.11 420.02 369.34 437.31 378.22 454.6 385.38 446.34 402.36 434.6 419.34 422.45 436.32 413.04 453.3 397.27 445.39 381.5 435.59 365.73 425.4 349.96 416.36 357.99 400.25 368.37 384.15 378.39 368.04 385.44 351.93" stroke-dasharray="9 11" transform="rotate(92.92, 400, 400)" opacity="0.30"></path>
    <path d="M392.59 368.03Q403.99 374.07 415.4 380.39 426.8 386.53 438.2 392.1 431.44 403.34 423.57 414.58 415.51 425.82 408.21 437.06 397.56 431.12 386.9 424.55 376.25 417.81 365.59 411.35 372.16 400.52 379.41 389.69 386.49 378.86 392.59 368.03" stroke-dasharray="4 9" transform="rotate(96.96, 400, 400)" opacity="0.54"></path>
  </g>
</svg>
