<svg xmlns="http://www.w3.org/2000/svg" version="1.1" xmlns:xlink="http://www.w3.org/1999/xlink" xmlns:svgjs="http://svgjs.dev/svgjs" width="1440" height="630" preserveAspectRatio="none" viewBox="0 0 1440 630"><g clip-path="url(&quot;#SvgjsClipPath1025&quot;)" fill="none"><rect width="1440" height="630" x="0" y="0" fill="rgba(255, 255, 255, 1)"></rect><path d="M6.82 361.47C22.88 363.36 40.66 363.86 52.74 353.12 65.26 341.99 69.6 323.86 67.86 307.2 66.27 291.97 55.7 279.9 44.06 269.96 33.49 260.93 20.72 255.2 6.82 255.06-7.22 254.92-20.54 260.03-31.15 269.23-42.67 279.21-53.69 291.96-53.34 307.2-52.99 322.25-40.63 333.39-29.45 343.47-19.03 352.87-7.11 359.83 6.82 361.47" fill="rgba(255, 160, 210, 1)" stroke="none"></path><path d="M-11.18 342.47C4.88 344.36 22.66 344.86 34.74 334.12 47.26 322.99 51.6 304.86 49.86 288.2 48.27 272.97 37.7 260.9 26.06 250.96 15.49 241.93 2.72 236.2-11.18 236.06-25.22 235.92-38.54 241.03-49.15 250.23-60.67 260.21-71.69 272.96-71.34 288.2-70.99 303.25-58.63 314.39-47.45 324.47-37.03 333.87-25.11 340.83-11.18 342.47" fill="none" stroke-width="2" stroke="#ff2497"></path><path d="M74.3 648.17C100.53 646.76 124.82 636.86 144.42 619.37 165.4 600.66 183.44 577.31 185.19 549.25 187.04 519.7 174.79 490.64 153.77 469.78 132.82 448.99 103.81 439.06 74.3 439.2 44.94 439.34 14.94 448.46-4.42 470.53-22.86 491.56-22.34 521.28-22.23 549.25-22.12 577.05-23.19 607.42-3.77 627.32 15.79 647.36 46.34 649.67 74.3 648.17" fill="rgba(255, 160, 210, 1)" stroke="none"></path><path d="M85.3 660.17C111.53 658.76 135.82 648.86 155.42 631.37 176.4 612.66 194.44 589.31 196.19 561.25 198.04 531.7 185.79 502.64 164.77 481.78 143.82 460.99 114.81 451.06 85.3 451.2 55.94 451.34 25.94 460.46 6.58 482.53-11.86 503.56-11.34 533.28-11.23 561.25-11.12 589.05-12.19 619.42 7.23 639.32 26.79 659.36 57.34 661.67 85.3 660.17" fill="none" stroke-width="2" stroke="#ff2497"></path><path d="M1126.51 522.86C1137.87 523.33 1149.69 522.66 1158.48 515.45 1168.06 507.59 1175.1 495.85 1174.48 483.48 1173.88 471.5 1164.23 462.72 1155.42 454.57 1147.08 446.86 1137.87 439.16 1126.51 439.12 1115.12 439.08 1105.29 446.15 1097.41 454.38 1089.73 462.4 1084.11 472.38 1084.05 483.48 1083.99 494.63 1088.91 505.32 1097.09 512.9 1104.98 520.22 1115.76 522.41 1126.51 522.86" fill="rgba(248, 159, 255, 1)" stroke="none"></path><path d="M1117.51 540.86C1128.87 541.33 1140.69 540.66 1149.48 533.45 1159.06 525.59 1166.1 513.85 1165.48 501.48 1164.88 489.5 1155.23 480.72 1146.42 472.57 1138.08 464.86 1128.87 457.16 1117.51 457.12 1106.12 457.08 1096.29 464.15 1088.41 472.38 1080.73 480.4 1075.11 490.38 1075.05 501.48 1074.99 512.63 1079.91 523.32 1088.09 530.9 1095.98 538.22 1106.76 540.41 1117.51 540.86" fill="none" stroke-width="2" stroke="#ef23ff"></path><path d="M753.73 655.19C780.87 655.41 809.86 654.04 829.49 635.3 849.43 616.25 854.92 587.1 853.88 559.54 852.88 533.11 842.84 507.84 823.97 489.3 805.27 470.92 779.93 462.14 753.73 461.14 726.34 460.1 697.78 464.84 677.94 483.75 657.71 503.02 650.23 531.6 650.46 559.54 650.69 587.22 658.88 615.27 679.19 634.08 698.89 652.33 726.88 654.97 753.73 655.19" fill="rgba(94, 165, 241, 1)" stroke="none"></path><path d="M761.73 660.19C788.87 660.41 817.86 659.04 837.49 640.3 857.43 621.25 862.92 592.1 861.88 564.54 860.88 538.11 850.84 512.84 831.97 494.3 813.27 475.92 787.93 467.14 761.73 466.14 734.34 465.1 705.78 469.84 685.94 488.75 665.71 508.02 658.23 536.6 658.46 564.54 658.69 592.22 666.88 620.27 687.19 639.08 706.89 657.33 734.88 659.97 761.73 660.19" fill="none" stroke-width="2" stroke="#1372d8"></path><path d="M325.56 586.47C353.18 586.84 374.03 563.56 392.21 542.77 408.87 523.72 420.31 501.37 422.09 476.12 424.02 448.73 422.09 418.42 402.3 399.38 382.72 380.54 352.72 382.47 325.56 383.27 299.51 384.03 272.88 386.67 253.2 403.76 232.22 421.98 217.13 448.37 218.64 476.12 220.1 502.87 242.02 521.78 260.66 541.02 279.77 560.74 298.1 586.1 325.56 586.47" fill="rgba(255, 160, 210, 1)" stroke="none"></path><path d="M340.56 577.47C368.18 577.84 389.03 554.56 407.21 533.77 423.87 514.72 435.31 492.37 437.09 467.12 439.02 439.73 437.09 409.42 417.3 390.38 397.72 371.54 367.72 373.47 340.56 374.27 314.51 375.03 287.88 377.67 268.2 394.76 247.22 412.98 232.13 439.37 233.64 467.12 235.1 493.87 257.02 512.78 275.66 532.02 294.77 551.74 313.1 577.1 340.56 577.47" fill="none" stroke-width="2" stroke="#ff2497"></path><path d="M480.81 56.81C491.67 56.71 500.11 47.96 506.93 39.51 512.93 32.07 515.69 22.95 515.85 13.39 516.01 3.63 514.3-6.32 507.8-13.6 500.96-21.26 491.08-25.86 480.81-25.84 470.56-25.82 460.76-21.14 453.91-13.51 447.39-6.25 445.56 3.63 445.61 13.39 445.66 23.08 448.1 32.47 454.2 40 461.07 48.48 469.9 56.91 480.81 56.81" fill="rgba(94, 165, 241, 1)" stroke="none"></path><path d="M490.81 71.81C501.67 71.71 510.11 62.96 516.93 54.51 522.93 47.07 525.69 37.95 525.85 28.39 526.01 18.63 524.3 8.68 517.8 1.4 510.96-6.26 501.08-10.86 490.81-10.84 480.56-10.82 470.76-6.14 463.91 1.49 457.39 8.75 455.56 18.63 455.61 28.39 455.66 38.08 458.1 47.47 464.2 55 471.07 63.48 479.9 71.91 490.81 71.81" fill="none" stroke-width="2" stroke="#1372d8"></path><path d="M916.1 60.45C935.14 61.22 955.4 63.86 970.47 52.19 987.03 39.36 997.82 18.75 996.92-2.18 996.05-22.5 980.44-37.76 965.98-52.06 951.63-66.25 936.25-83.11 916.1-82.11 896.37-81.13 884.25-61.93 870.96-47.32 858.63-33.77 844.38-20.47 843.42-2.18 842.42 16.84 851.51 35.54 865.94 47.98 879.51 59.67 898.2 59.73 916.1 60.45" fill="rgba(248, 102, 179, 1)" stroke="none"></path><path d="M906.1 44.45C925.14 45.22 945.4 47.86 960.47 36.19 977.03 23.36 987.82 2.75 986.92-18.18 986.05-38.5 970.44-53.76 955.98-68.06 941.63-82.25 926.25-99.11 906.1-98.11 886.37-97.13 874.25-77.93 860.96-63.32 848.63-49.77 834.38-36.47 833.42-18.18 832.42 0.84 841.51 19.54 855.94 31.98 869.51 43.67 888.2 43.73 906.1 44.45" fill="none" stroke-width="2" stroke="#ea0b81"></path><path d="M1341.12 254.07C1360.78 256.19 1382.86 255.69 1396.81 241.68 1410.73 227.69 1410.41 205.67 1408.86 185.99 1407.45 168.15 1401.56 150.86 1388.65 138.46 1375.99 126.29 1358.68 121.28 1341.12 120.88 1323.08 120.47 1305.03 124.46 1291.39 136.26 1276.74 148.93 1264.86 166.65 1265.86 185.99 1266.83 204.73 1282.37 218.23 1296.29 230.82 1309.27 242.56 1323.72 252.19 1341.12 254.07" fill="rgba(248, 102, 179, 1)" stroke="none"></path><path d="M1334.12 241.07C1353.78 243.19 1375.86 242.69 1389.81 228.68 1403.73 214.69 1403.41 192.67 1401.86 172.99 1400.45 155.15 1394.56 137.86 1381.65 125.46 1368.99 113.29 1351.68 108.28 1334.12 107.88 1316.08 107.47 1298.03 111.46 1284.39 123.26 1269.74 135.93 1257.86 153.65 1258.86 172.99 1259.83 191.73 1275.37 205.23 1289.29 217.82 1302.27 229.56 1316.72 239.19 1334.12 241.07" fill="none" stroke-width="2" stroke="#ea0b81"></path></g><defs><clipPath id="SvgjsClipPath1025"><rect width="1440" height="630" x="0" y="0"></rect></clipPath></defs></svg>