<svg xmlns="http://www.w3.org/2000/svg" version="1.1" xmlns:xlink="http://www.w3.org/1999/xlink" xmlns:svgjs="http://svgjs.dev/svgjs" width="1200" height="630" preserveAspectRatio="none" viewBox="0 0 1200 630"><g mask="url(&quot;#SvgjsMask1042&quot;)" fill="none"><rect width="1200" height="630" x="0" y="0" fill="rgba(255, 225, 240, 1)"></rect><path d="M-93.56 549.59L-93.56 549.59" stroke="rgba(246, 209, 227, 1)" stroke-width="1.5"></path><path d="M-93.56 549.59L-90.72 704.99" stroke="rgba(246, 209, 227, 1)" stroke-width="1.5"></path><path d="M-93.56 549.59L108.21 540.82" stroke="rgba(246, 209, 227, 1)" stroke-width="1.5"></path><path d="M-93.56 549.59L60.38 401.58" stroke="rgba(246, 209, 227, 1)" stroke-width="1.5"></path><path d="M-93.56 549.59L90.68 665.14" stroke="rgba(246, 209, 227, 1)" stroke-width="1.5"></path><path d="M-90.72 704.99L-90.72 704.99" stroke="rgba(246, 209, 227, 1)" stroke-width="1.5"></path><path d="M-90.72 704.99L90.68 665.14" stroke="rgba(246, 209, 227, 1)" stroke-width="1.5"></path><path d="M-90.72 704.99L94.26 840.86" stroke="rgba(246, 209, 227, 1)" stroke-width="1.5"></path><path d="M-90.72 704.99L108.21 540.82" stroke="rgba(246, 209, 227, 1)" stroke-width="1.5"></path><path d="M-90.72 704.99L215.78 788.65" stroke="rgba(246, 209, 227, 1)" stroke-width="1.5"></path><path d="M-90.72 704.99L60.38 401.58" stroke="rgba(246, 209, 227, 1)" stroke-width="1.5"></path><path d="M60.38 401.58L60.38 401.58" stroke="rgba(246, 209, 227, 1)" stroke-width="1.5"></path><path d="M60.38 401.58L108.21 540.82" stroke="rgba(246, 209, 227, 1)" stroke-width="1.5"></path><path d="M60.38 401.58L225.89 371.4" stroke="rgba(246, 209, 227, 1)" stroke-width="1.5"></path><path d="M108.21 540.82L108.21 540.82" stroke="rgba(246, 209, 227, 1)" stroke-width="1.5"></path><path d="M108.21 540.82L90.68 665.14" stroke="rgba(246, 209, 227, 1)" stroke-width="1.5"></path><path d="M108.21 540.82L262.15 529.36" stroke="rgba(246, 209, 227, 1)" stroke-width="1.5"></path><path d="M108.21 540.82L225.89 371.4" stroke="rgba(246, 209, 227, 1)" stroke-width="1.5"></path><path d="M108.21 540.82L340.52 531.75" stroke="rgba(246, 209, 227, 1)" stroke-width="1.5"></path><path d="M90.68 665.14L90.68 665.14" stroke="rgba(246, 209, 227, 1)" stroke-width="1.5"></path><path d="M90.68 665.14L94.26 840.86" stroke="rgba(246, 209, 227, 1)" stroke-width="1.5"></path><path d="M94.26 840.86L94.26 840.86" stroke="rgba(246, 209, 227, 1)" stroke-width="1.5"></path><path d="M94.26 840.86L215.78 788.65" stroke="rgba(246, 209, 227, 1)" stroke-width="1.5"></path><path d="M225.89 371.4L225.89 371.4" stroke="rgba(246, 209, 227, 1)" stroke-width="1.5"></path><path d="M225.89 371.4L368.28 353.94" stroke="rgba(246, 209, 227, 1)" stroke-width="1.5"></path><path d="M225.89 371.4L262.15 529.36" stroke="rgba(246, 209, 227, 1)" stroke-width="1.5"></path><path d="M225.89 371.4L340.52 531.75" stroke="rgba(246, 209, 227, 1)" stroke-width="1.5"></path><path d="M262.15 529.36L262.15 529.36" stroke="rgba(246, 209, 227, 1)" stroke-width="1.5"></path><path d="M262.15 529.36L340.52 531.75" stroke="rgba(246, 209, 227, 1)" stroke-width="1.5"></path><path d="M262.15 529.36L391.31 661.72" stroke="rgba(246, 209, 227, 1)" stroke-width="1.5"></path><path d="M215.78 788.65L215.78 788.65" stroke="rgba(246, 209, 227, 1)" stroke-width="1.5"></path><path d="M215.78 788.65L350.05 802.12" stroke="rgba(246, 209, 227, 1)" stroke-width="1.5"></path><path d="M215.78 788.65L90.68 665.14" stroke="rgba(246, 209, 227, 1)" stroke-width="1.5"></path><path d="M368.28 353.94L368.28 353.94" stroke="rgba(246, 209, 227, 1)" stroke-width="1.5"></path><path d="M368.28 353.94L540.62 376.94" stroke="rgba(246, 209, 227, 1)" stroke-width="1.5"></path><path d="M368.28 353.94L340.52 531.75" stroke="rgba(246, 209, 227, 1)" stroke-width="1.5"></path><path d="M368.28 353.94L262.15 529.36" stroke="rgba(246, 209, 227, 1)" stroke-width="1.5"></path><path d="M368.28 353.94L518.6 557.23" stroke="rgba(246, 209, 227, 1)" stroke-width="1.5"></path><path d="M368.28 353.94L391.31 661.72" stroke="rgba(246, 209, 227, 1)" stroke-width="1.5"></path><path d="M340.52 531.75L340.52 531.75" stroke="rgba(246, 209, 227, 1)" stroke-width="1.5"></path><path d="M340.52 531.75L391.31 661.72" stroke="rgba(246, 209, 227, 1)" stroke-width="1.5"></path><path d="M340.52 531.75L518.6 557.23" stroke="rgba(246, 209, 227, 1)" stroke-width="1.5"></path><path d="M391.31 661.72L391.31 661.72" stroke="rgba(246, 209, 227, 1)" stroke-width="1.5"></path><path d="M391.31 661.72L350.05 802.12" stroke="rgba(246, 209, 227, 1)" stroke-width="1.5"></path><path d="M350.05 802.12L350.05 802.12" stroke="rgba(246, 209, 227, 1)" stroke-width="1.5"></path><path d="M540.62 376.94L540.62 376.94" stroke="rgba(246, 209, 227, 1)" stroke-width="1.5"></path><path d="M540.62 376.94L701.14 360.71" stroke="rgba(246, 209, 227, 1)" stroke-width="1.5"></path><path d="M540.62 376.94L518.6 557.23" stroke="rgba(246, 209, 227, 1)" stroke-width="1.5"></path><path d="M540.62 376.94L711.96 214.75" stroke="rgba(246, 209, 227, 1)" stroke-width="1.5"></path><path d="M540.62 376.94L711.87 539.43" stroke="rgba(246, 209, 227, 1)" stroke-width="1.5"></path><path d="M540.62 376.94L340.52 531.75" stroke="rgba(246, 209, 227, 1)" stroke-width="1.5"></path><path d="M518.6 557.23L518.6 557.23" stroke="rgba(246, 209, 227, 1)" stroke-width="1.5"></path><path d="M518.6 557.23L562.35 709.26" stroke="rgba(246, 209, 227, 1)" stroke-width="1.5"></path><path d="M518.6 557.23L655.51 644.43" stroke="rgba(246, 209, 227, 1)" stroke-width="1.5"></path><path d="M518.6 557.23L391.31 661.72" stroke="rgba(246, 209, 227, 1)" stroke-width="1.5"></path><path d="M562.35 709.26L562.35 709.26" stroke="rgba(246, 209, 227, 1)" stroke-width="1.5"></path><path d="M562.35 709.26L539.07 814.16" stroke="rgba(246, 209, 227, 1)" stroke-width="1.5"></path><path d="M539.07 814.16L539.07 814.16" stroke="rgba(246, 209, 227, 1)" stroke-width="1.5"></path><path d="M539.07 814.16L710.53 820.18" stroke="rgba(246, 209, 227, 1)" stroke-width="1.5"></path><path d="M539.07 814.16L350.05 802.12" stroke="rgba(246, 209, 227, 1)" stroke-width="1.5"></path><path d="M539.07 814.16L655.51 644.43" stroke="rgba(246, 209, 227, 1)" stroke-width="1.5"></path><path d="M539.07 814.16L391.31 661.72" stroke="rgba(246, 209, 227, 1)" stroke-width="1.5"></path><path d="M711.96 214.75L711.96 214.75" stroke="rgba(246, 209, 227, 1)" stroke-width="1.5"></path><path d="M711.96 214.75L701.14 360.71" stroke="rgba(246, 209, 227, 1)" stroke-width="1.5"></path><path d="M711.96 214.75L861.41 251.19" stroke="rgba(246, 209, 227, 1)" stroke-width="1.5"></path><path d="M701.14 360.71L701.14 360.71" stroke="rgba(246, 209, 227, 1)" stroke-width="1.5"></path><path d="M701.14 360.71L792.92 352.21" stroke="rgba(246, 209, 227, 1)" stroke-width="1.5"></path><path d="M711.87 539.43L711.87 539.43" stroke="rgba(246, 209, 227, 1)" stroke-width="1.5"></path><path d="M711.87 539.43L819.42 489.74" stroke="rgba(246, 209, 227, 1)" stroke-width="1.5"></path><path d="M711.87 539.43L655.51 644.43" stroke="rgba(246, 209, 227, 1)" stroke-width="1.5"></path><path d="M711.87 539.43L819.93 676.06" stroke="rgba(246, 209, 227, 1)" stroke-width="1.5"></path><path d="M711.87 539.43L701.14 360.71" stroke="rgba(246, 209, 227, 1)" stroke-width="1.5"></path><path d="M711.87 539.43L518.6 557.23" stroke="rgba(246, 209, 227, 1)" stroke-width="1.5"></path><path d="M711.87 539.43L792.92 352.21" stroke="rgba(246, 209, 227, 1)" stroke-width="1.5"></path><path d="M655.51 644.43L655.51 644.43" stroke="rgba(246, 209, 227, 1)" stroke-width="1.5"></path><path d="M655.51 644.43L562.35 709.26" stroke="rgba(246, 209, 227, 1)" stroke-width="1.5"></path><path d="M655.51 644.43L819.93 676.06" stroke="rgba(246, 209, 227, 1)" stroke-width="1.5"></path><path d="M655.51 644.43L710.53 820.18" stroke="rgba(246, 209, 227, 1)" stroke-width="1.5"></path><path d="M655.51 644.43L796.28 793.75" stroke="rgba(246, 209, 227, 1)" stroke-width="1.5"></path><path d="M710.53 820.18L710.53 820.18" stroke="rgba(246, 209, 227, 1)" stroke-width="1.5"></path><path d="M710.53 820.18L796.28 793.75" stroke="rgba(246, 209, 227, 1)" stroke-width="1.5"></path><path d="M710.53 820.18L819.93 676.06" stroke="rgba(246, 209, 227, 1)" stroke-width="1.5"></path><path d="M710.53 820.18L562.35 709.26" stroke="rgba(246, 209, 227, 1)" stroke-width="1.5"></path><path d="M852.14 -82.68L852.14 -82.68" stroke="rgba(246, 209, 227, 1)" stroke-width="1.5"></path><path d="M852.14 -82.68L979.92 -38.13" stroke="rgba(246, 209, 227, 1)" stroke-width="1.5"></path><path d="M852.14 -82.68L838.97 68.35" stroke="rgba(246, 209, 227, 1)" stroke-width="1.5"></path><path d="M852.14 -82.68L961.95 61.68" stroke="rgba(246, 209, 227, 1)" stroke-width="1.5"></path><path d="M838.97 68.35L838.97 68.35" stroke="rgba(246, 209, 227, 1)" stroke-width="1.5"></path><path d="M838.97 68.35L961.95 61.68" stroke="rgba(246, 209, 227, 1)" stroke-width="1.5"></path><path d="M861.41 251.19L861.41 251.19" stroke="rgba(246, 209, 227, 1)" stroke-width="1.5"></path><path d="M861.41 251.19L792.92 352.21" stroke="rgba(246, 209, 227, 1)" stroke-width="1.5"></path><path d="M792.92 352.21L792.92 352.21" stroke="rgba(246, 209, 227, 1)" stroke-width="1.5"></path><path d="M819.42 489.74L819.42 489.74" stroke="rgba(246, 209, 227, 1)" stroke-width="1.5"></path><path d="M819.42 489.74L945.41 529.08" stroke="rgba(246, 209, 227, 1)" stroke-width="1.5"></path><path d="M819.42 489.74L792.92 352.21" stroke="rgba(246, 209, 227, 1)" stroke-width="1.5"></path><path d="M819.42 489.74L701.14 360.71" stroke="rgba(246, 209, 227, 1)" stroke-width="1.5"></path><path d="M819.42 489.74L982.12 408.74" stroke="rgba(246, 209, 227, 1)" stroke-width="1.5"></path><path d="M819.93 676.06L819.93 676.06" stroke="rgba(246, 209, 227, 1)" stroke-width="1.5"></path><path d="M819.93 676.06L796.28 793.75" stroke="rgba(246, 209, 227, 1)" stroke-width="1.5"></path><path d="M796.28 793.75L796.28 793.75" stroke="rgba(246, 209, 227, 1)" stroke-width="1.5"></path><path d="M796.28 793.75L998.78 825.66" stroke="rgba(246, 209, 227, 1)" stroke-width="1.5"></path><path d="M979.92 -38.13L979.92 -38.13" stroke="rgba(246, 209, 227, 1)" stroke-width="1.5"></path><path d="M979.92 -38.13L961.95 61.68" stroke="rgba(246, 209, 227, 1)" stroke-width="1.5"></path><path d="M979.92 -38.13L1102.91 -67.16" stroke="rgba(246, 209, 227, 1)" stroke-width="1.5"></path><path d="M979.92 -38.13L838.97 68.35" stroke="rgba(246, 209, 227, 1)" stroke-width="1.5"></path><path d="M979.92 -38.13L1113.86 102.15" stroke="rgba(246, 209, 227, 1)" stroke-width="1.5"></path><path d="M979.92 -38.13L1007.78 195" stroke="rgba(246, 209, 227, 1)" stroke-width="1.5"></path><path d="M961.95 61.68L961.95 61.68" stroke="rgba(246, 209, 227, 1)" stroke-width="1.5"></path><path d="M1007.78 195L1007.78 195" stroke="rgba(246, 209, 227, 1)" stroke-width="1.5"></path><path d="M1007.78 195L1113.86 102.15" stroke="rgba(246, 209, 227, 1)" stroke-width="1.5"></path><path d="M1007.78 195L961.95 61.68" stroke="rgba(246, 209, 227, 1)" stroke-width="1.5"></path><path d="M1007.78 195L1152.03 228.94" stroke="rgba(246, 209, 227, 1)" stroke-width="1.5"></path><path d="M1007.78 195L861.41 251.19" stroke="rgba(246, 209, 227, 1)" stroke-width="1.5"></path><path d="M1007.78 195L1131.14 344.19" stroke="rgba(246, 209, 227, 1)" stroke-width="1.5"></path><path d="M982.12 408.74L982.12 408.74" stroke="rgba(246, 209, 227, 1)" stroke-width="1.5"></path><path d="M982.12 408.74L945.41 529.08" stroke="rgba(246, 209, 227, 1)" stroke-width="1.5"></path><path d="M982.12 408.74L1131.14 344.19" stroke="rgba(246, 209, 227, 1)" stroke-width="1.5"></path><path d="M945.41 529.08L945.41 529.08" stroke="rgba(246, 209, 227, 1)" stroke-width="1.5"></path><path d="M945.41 529.08L985.44 646.9" stroke="rgba(246, 209, 227, 1)" stroke-width="1.5"></path><path d="M985.44 646.9L985.44 646.9" stroke="rgba(246, 209, 227, 1)" stroke-width="1.5"></path><path d="M985.44 646.9L819.93 676.06" stroke="rgba(246, 209, 227, 1)" stroke-width="1.5"></path><path d="M985.44 646.9L998.78 825.66" stroke="rgba(246, 209, 227, 1)" stroke-width="1.5"></path><path d="M985.44 646.9L1134.1 526.38" stroke="rgba(246, 209, 227, 1)" stroke-width="1.5"></path><path d="M985.44 646.9L1105.28 807.04" stroke="rgba(246, 209, 227, 1)" stroke-width="1.5"></path><path d="M985.44 646.9L819.42 489.74" stroke="rgba(246, 209, 227, 1)" stroke-width="1.5"></path><path d="M998.78 825.66L998.78 825.66" stroke="rgba(246, 209, 227, 1)" stroke-width="1.5"></path><path d="M998.78 825.66L1105.28 807.04" stroke="rgba(246, 209, 227, 1)" stroke-width="1.5"></path><path d="M998.78 825.66L819.93 676.06" stroke="rgba(246, 209, 227, 1)" stroke-width="1.5"></path><path d="M1102.91 -67.16L1102.91 -67.16" stroke="rgba(246, 209, 227, 1)" stroke-width="1.5"></path><path d="M1102.91 -67.16L1113.86 102.15" stroke="rgba(246, 209, 227, 1)" stroke-width="1.5"></path><path d="M1102.91 -67.16L1283.56 -39.85" stroke="rgba(246, 209, 227, 1)" stroke-width="1.5"></path><path d="M1102.91 -67.16L961.95 61.68" stroke="rgba(246, 209, 227, 1)" stroke-width="1.5"></path><path d="M1102.91 -67.16L852.14 -82.68" stroke="rgba(246, 209, 227, 1)" stroke-width="1.5"></path><path d="M1102.91 -67.16L1309.16 81.04" stroke="rgba(246, 209, 227, 1)" stroke-width="1.5"></path><path d="M1113.86 102.15L1113.86 102.15" stroke="rgba(246, 209, 227, 1)" stroke-width="1.5"></path><path d="M1113.86 102.15L1152.03 228.94" stroke="rgba(246, 209, 227, 1)" stroke-width="1.5"></path><path d="M1152.03 228.94L1152.03 228.94" stroke="rgba(246, 209, 227, 1)" stroke-width="1.5"></path><path d="M1152.03 228.94L1242.4 224.71" stroke="rgba(246, 209, 227, 1)" stroke-width="1.5"></path><path d="M1152.03 228.94L1131.14 344.19" stroke="rgba(246, 209, 227, 1)" stroke-width="1.5"></path><path d="M1152.03 228.94L1309.16 81.04" stroke="rgba(246, 209, 227, 1)" stroke-width="1.5"></path><path d="M1152.03 228.94L982.12 408.74" stroke="rgba(246, 209, 227, 1)" stroke-width="1.5"></path><path d="M1131.14 344.19L1131.14 344.19" stroke="rgba(246, 209, 227, 1)" stroke-width="1.5"></path><path d="M1134.1 526.38L1134.1 526.38" stroke="rgba(246, 209, 227, 1)" stroke-width="1.5"></path><path d="M1134.1 526.38L1298.86 553.28" stroke="rgba(246, 209, 227, 1)" stroke-width="1.5"></path><path d="M1134.1 526.38L1131.14 344.19" stroke="rgba(246, 209, 227, 1)" stroke-width="1.5"></path><path d="M1134.1 526.38L945.41 529.08" stroke="rgba(246, 209, 227, 1)" stroke-width="1.5"></path><path d="M1134.1 526.38L982.12 408.74" stroke="rgba(246, 209, 227, 1)" stroke-width="1.5"></path><path d="M1105.28 807.04L1105.28 807.04" stroke="rgba(246, 209, 227, 1)" stroke-width="1.5"></path><path d="M1105.28 807.04L1259.63 789.69" stroke="rgba(246, 209, 227, 1)" stroke-width="1.5"></path><path d="M1105.28 807.04L1291.92 649.33" stroke="rgba(246, 209, 227, 1)" stroke-width="1.5"></path><path d="M1283.56 -39.85L1283.56 -39.85" stroke="rgba(246, 209, 227, 1)" stroke-width="1.5"></path><path d="M1283.56 -39.85L1309.16 81.04" stroke="rgba(246, 209, 227, 1)" stroke-width="1.5"></path><path d="M1283.56 -39.85L1113.86 102.15" stroke="rgba(246, 209, 227, 1)" stroke-width="1.5"></path><path d="M1309.16 81.04L1309.16 81.04" stroke="rgba(246, 209, 227, 1)" stroke-width="1.5"></path><path d="M1309.16 81.04L1242.4 224.71" stroke="rgba(246, 209, 227, 1)" stroke-width="1.5"></path><path d="M1309.16 81.04L1113.86 102.15" stroke="rgba(246, 209, 227, 1)" stroke-width="1.5"></path><path d="M1242.4 224.71L1242.4 224.71" stroke="rgba(246, 209, 227, 1)" stroke-width="1.5"></path><path d="M1298.86 553.28L1298.86 553.28" stroke="rgba(246, 209, 227, 1)" stroke-width="1.5"></path><path d="M1298.86 553.28L1291.92 649.33" stroke="rgba(246, 209, 227, 1)" stroke-width="1.5"></path><path d="M1298.86 553.28L1259.63 789.69" stroke="rgba(246, 209, 227, 1)" stroke-width="1.5"></path><path d="M1291.92 649.33L1291.92 649.33" stroke="rgba(246, 209, 227, 1)" stroke-width="1.5"></path><path d="M1291.92 649.33L1259.63 789.69" stroke="rgba(246, 209, 227, 1)" stroke-width="1.5"></path><path d="M1291.92 649.33L1134.1 526.38" stroke="rgba(246, 209, 227, 1)" stroke-width="1.5"></path><path d="M1259.63 789.69L1259.63 789.69" stroke="rgba(246, 209, 227, 1)" stroke-width="1.5"></path><circle r="5" cx="-93.56" cy="549.59" fill="rgba(246, 209, 227, 1)"></circle><circle r="5" cx="-90.72" cy="704.99" fill="rgba(246, 209, 227, 1)"></circle><circle r="5" cx="60.38" cy="401.58" fill="rgba(246, 209, 227, 1)"></circle><circle r="5" cx="108.21" cy="540.82" fill="rgba(246, 209, 227, 1)"></circle><circle r="5" cx="90.68" cy="665.14" fill="rgba(246, 209, 227, 1)"></circle><circle r="5" cx="94.26" cy="840.86" fill="rgba(246, 209, 227, 1)"></circle><circle r="5" cx="225.89" cy="371.4" fill="rgba(246, 209, 227, 1)"></circle><circle r="5" cx="262.15" cy="529.36" fill="rgba(246, 209, 227, 1)"></circle><circle r="5" cx="215.78" cy="788.65" fill="rgba(246, 209, 227, 1)"></circle><circle r="5" cx="368.28" cy="353.94" fill="rgba(246, 209, 227, 1)"></circle><circle r="5" cx="340.52" cy="531.75" fill="rgba(246, 209, 227, 1)"></circle><circle r="5" cx="391.31" cy="661.72" fill="rgba(246, 209, 227, 1)"></circle><circle r="5" cx="350.05" cy="802.12" fill="rgba(246, 209, 227, 1)"></circle><circle r="5" cx="540.62" cy="376.94" fill="rgba(246, 209, 227, 1)"></circle><circle r="5" cx="518.6" cy="557.23" fill="rgba(246, 209, 227, 1)"></circle><circle r="5" cx="562.35" cy="709.26" fill="rgba(246, 209, 227, 1)"></circle><circle r="5" cx="539.07" cy="814.16" fill="rgba(246, 209, 227, 1)"></circle><circle r="5" cx="711.96" cy="214.75" fill="rgba(246, 209, 227, 1)"></circle><circle r="5" cx="701.14" cy="360.71" fill="rgba(246, 209, 227, 1)"></circle><circle r="5" cx="711.87" cy="539.43" fill="rgba(246, 209, 227, 1)"></circle><circle r="5" cx="655.51" cy="644.43" fill="rgba(246, 209, 227, 1)"></circle><circle r="5" cx="710.53" cy="820.18" fill="rgba(246, 209, 227, 1)"></circle><circle r="5" cx="852.14" cy="-82.68" fill="rgba(246, 209, 227, 1)"></circle><circle r="5" cx="838.97" cy="68.35" fill="rgba(246, 209, 227, 1)"></circle><circle r="5" cx="861.41" cy="251.19" fill="rgba(246, 209, 227, 1)"></circle><circle r="5" cx="792.92" cy="352.21" fill="rgba(246, 209, 227, 1)"></circle><circle r="5" cx="819.42" cy="489.74" fill="rgba(246, 209, 227, 1)"></circle><circle r="5" cx="819.93" cy="676.06" fill="rgba(246, 209, 227, 1)"></circle><circle r="5" cx="796.28" cy="793.75" fill="rgba(246, 209, 227, 1)"></circle><circle r="5" cx="979.92" cy="-38.13" fill="rgba(246, 209, 227, 1)"></circle><circle r="5" cx="961.95" cy="61.68" fill="rgba(246, 209, 227, 1)"></circle><circle r="5" cx="1007.78" cy="195" fill="rgba(246, 209, 227, 1)"></circle><circle r="5" cx="982.12" cy="408.74" fill="rgba(246, 209, 227, 1)"></circle><circle r="5" cx="945.41" cy="529.08" fill="rgba(246, 209, 227, 1)"></circle><circle r="5" cx="985.44" cy="646.9" fill="rgba(246, 209, 227, 1)"></circle><circle r="5" cx="998.78" cy="825.66" fill="rgba(246, 209, 227, 1)"></circle><circle r="5" cx="1102.91" cy="-67.16" fill="rgba(246, 209, 227, 1)"></circle><circle r="5" cx="1113.86" cy="102.15" fill="rgba(246, 209, 227, 1)"></circle><circle r="5" cx="1152.03" cy="228.94" fill="rgba(246, 209, 227, 1)"></circle><circle r="5" cx="1131.14" cy="344.19" fill="rgba(246, 209, 227, 1)"></circle><circle r="5" cx="1134.1" cy="526.38" fill="rgba(246, 209, 227, 1)"></circle><circle r="5" cx="1105.28" cy="807.04" fill="rgba(246, 209, 227, 1)"></circle><circle r="5" cx="1283.56" cy="-39.85" fill="rgba(246, 209, 227, 1)"></circle><circle r="5" cx="1309.16" cy="81.04" fill="rgba(246, 209, 227, 1)"></circle><circle r="5" cx="1242.4" cy="224.71" fill="rgba(246, 209, 227, 1)"></circle><circle r="5" cx="1298.86" cy="553.28" fill="rgba(246, 209, 227, 1)"></circle><circle r="5" cx="1291.92" cy="649.33" fill="rgba(246, 209, 227, 1)"></circle><circle r="5" cx="1259.63" cy="789.69" fill="rgba(246, 209, 227, 1)"></circle><path d="M220.06 547.01L220.06 547.01" stroke="hsla(314.4, 83.1%, 72.6%, 0.62)" stroke-width="1.5"></path><path d="M220.06 547.01L351.19 523.58" stroke="hsla(314.4, 83.1%, 72.6%, 0.62)" stroke-width="1.5"></path><path d="M240.15 850.59L240.15 850.59" stroke="hsla(314.4, 83.1%, 72.6%, 0.62)" stroke-width="1.5"></path><path d="M240.15 850.59L340.16 803.83" stroke="hsla(314.4, 83.1%, 72.6%, 0.62)" stroke-width="1.5"></path><path d="M240.15 850.59L251.25 703.63" stroke="hsla(314.4, 83.1%, 72.6%, 0.62)" stroke-width="1.5"></path><path d="M240.15 850.59L87.66 817.91" stroke="hsla(314.4, 83.1%, 72.6%, 0.62)" stroke-width="1.5"></path><path d="M240.15 850.59L59.03 708.71" stroke="hsla(314.4, 83.1%, 72.6%, 0.62)" stroke-width="1.5"></path><path d="M240.15 850.59L400.93 648.41" stroke="hsla(314.4, 83.1%, 72.6%, 0.62)" stroke-width="1.5"></path><path d="M670.73 555.68L670.73 555.68" stroke="hsla(314.4, 83.1%, 72.6%, 0.62)" stroke-width="1.5"></path><path d="M670.73 555.68L711.97 697.12" stroke="hsla(314.4, 83.1%, 72.6%, 0.62)" stroke-width="1.5"></path><path d="M670.73 555.68L496.13 550.89" stroke="hsla(314.4, 83.1%, 72.6%, 0.62)" stroke-width="1.5"></path><path d="M670.73 555.68L842.47 498.55" stroke="hsla(314.4, 83.1%, 72.6%, 0.62)" stroke-width="1.5"></path><path d="M842.47 498.55L842.47 498.55" stroke="hsla(314.4, 83.1%, 72.6%, 0.62)" stroke-width="1.5"></path><path d="M842.47 498.55L976.54 490.37" stroke="hsla(314.4, 83.1%, 72.6%, 0.62)" stroke-width="1.5"></path><path d="M842.47 498.55L793.38 354.01" stroke="hsla(314.4, 83.1%, 72.6%, 0.62)" stroke-width="1.5"></path><path d="M842.47 498.55L797.28 693.72" stroke="hsla(314.4, 83.1%, 72.6%, 0.62)" stroke-width="1.5"></path><path d="M957.59 795.45L957.59 795.45" stroke="hsla(314.4, 83.1%, 72.6%, 0.62)" stroke-width="1.5"></path><path d="M957.59 795.45L967.04 698.22" stroke="hsla(314.4, 83.1%, 72.6%, 0.62)" stroke-width="1.5"></path><path d="M957.59 795.45L1092.14 829.45" stroke="hsla(314.4, 83.1%, 72.6%, 0.62)" stroke-width="1.5"></path><path d="M957.59 795.45L798.82 809.63" stroke="hsla(314.4, 83.1%, 72.6%, 0.62)" stroke-width="1.5"></path><path d="M957.59 795.45L797.28 693.72" stroke="hsla(314.4, 83.1%, 72.6%, 0.62)" stroke-width="1.5"></path><path d="M957.59 795.45L1156.2 710.21" stroke="hsla(314.4, 83.1%, 72.6%, 0.62)" stroke-width="1.5"></path><path d="M957.59 795.45L711.97 697.12" stroke="hsla(314.4, 83.1%, 72.6%, 0.62)" stroke-width="1.5"></path><path d="M1134.53 192.05L1134.53 192.05" stroke="hsla(314.4, 83.1%, 72.6%, 0.62)" stroke-width="1.5"></path><path d="M1134.53 192.05L1108.62 99.82" stroke="hsla(314.4, 83.1%, 72.6%, 0.62)" stroke-width="1.5"></path><path d="M1134.53 192.05L980.43 201.47" stroke="hsla(314.4, 83.1%, 72.6%, 0.62)" stroke-width="1.5"></path><path d="M1134.53 192.05L1104.28 344.98" stroke="hsla(314.4, 83.1%, 72.6%, 0.62)" stroke-width="1.5"></path><path d="M1134.53 192.05L1312 231.34" stroke="hsla(314.4, 83.1%, 72.6%, 0.62)" stroke-width="1.5"></path><path d="M1134.53 192.05L996.64 64.43" stroke="hsla(314.4, 83.1%, 72.6%, 0.62)" stroke-width="1.5"></path><path d="M1134.53 192.05L1273.1 55.65" stroke="hsla(314.4, 83.1%, 72.6%, 0.62)" stroke-width="1.5"></path><path d="M1104.28 344.98L1104.28 344.98" stroke="hsla(314.4, 83.1%, 72.6%, 0.62)" stroke-width="1.5"></path><path d="M1104.28 344.98L990.06 343.66" stroke="hsla(314.4, 83.1%, 72.6%, 0.62)" stroke-width="1.5"></path><path d="M1104.28 344.98L1122.27 501.71" stroke="hsla(314.4, 83.1%, 72.6%, 0.62)" stroke-width="1.5"></path><path d="M1250.58 -78.49L1250.58 -78.49" stroke="hsla(314.4, 83.1%, 72.6%, 0.62)" stroke-width="1.5"></path><path d="M1250.58 -78.49L1122.16 -82.21" stroke="hsla(314.4, 83.1%, 72.6%, 0.62)" stroke-width="1.5"></path><path d="M1250.58 -78.49L1273.1 55.65" stroke="hsla(314.4, 83.1%, 72.6%, 0.62)" stroke-width="1.5"></path><path d="M1250.58 -78.49L1108.62 99.82" stroke="hsla(314.4, 83.1%, 72.6%, 0.62)" stroke-width="1.5"></path><path d="M-71.53 508.87L-71.53 508.87" stroke="hsla(314.4, 83.1%, 72.6%, 0.62)" stroke-width="1.5"></path><path d="M-71.53 508.87L84.12 512.9" stroke="hsla(314.4, 83.1%, 72.6%, 0.62)" stroke-width="1.5"></path><path d="M-71.53 508.87L-60.21 669.01" stroke="hsla(314.4, 83.1%, 72.6%, 0.62)" stroke-width="1.5"></path><path d="M-71.53 508.87L59.03 708.71" stroke="hsla(314.4, 83.1%, 72.6%, 0.62)" stroke-width="1.5"></path><path d="M-71.53 508.87L220.06 547.01" stroke="hsla(314.4, 83.1%, 72.6%, 0.62)" stroke-width="1.5"></path><path d="M-71.53 508.87L-66.91 831.87" stroke="hsla(314.4, 83.1%, 72.6%, 0.62)" stroke-width="1.5"></path><path d="M-71.53 508.87L87.66 817.91" stroke="hsla(314.4, 83.1%, 72.6%, 0.62)" stroke-width="1.5"></path><path d="M-60.21 669.01L-60.21 669.01" stroke="hsla(314.4, 83.1%, 72.6%, 0.62)" stroke-width="1.5"></path><path d="M-60.21 669.01L59.03 708.71" stroke="hsla(314.4, 83.1%, 72.6%, 0.62)" stroke-width="1.5"></path><path d="M-66.91 831.87L-66.91 831.87" stroke="hsla(314.4, 83.1%, 72.6%, 0.62)" stroke-width="1.5"></path><path d="M-66.91 831.87L87.66 817.91" stroke="hsla(314.4, 83.1%, 72.6%, 0.62)" stroke-width="1.5"></path><path d="M-66.91 831.87L-60.21 669.01" stroke="hsla(314.4, 83.1%, 72.6%, 0.62)" stroke-width="1.5"></path><path d="M-66.91 831.87L59.03 708.71" stroke="hsla(314.4, 83.1%, 72.6%, 0.62)" stroke-width="1.5"></path><path d="M-66.91 831.87L240.15 850.59" stroke="hsla(314.4, 83.1%, 72.6%, 0.62)" stroke-width="1.5"></path><path d="M84.12 512.9L84.12 512.9" stroke="hsla(314.4, 83.1%, 72.6%, 0.62)" stroke-width="1.5"></path><path d="M84.12 512.9L220.06 547.01" stroke="hsla(314.4, 83.1%, 72.6%, 0.62)" stroke-width="1.5"></path><path d="M84.12 512.9L59.03 708.71" stroke="hsla(314.4, 83.1%, 72.6%, 0.62)" stroke-width="1.5"></path><path d="M59.03 708.71L59.03 708.71" stroke="hsla(314.4, 83.1%, 72.6%, 0.62)" stroke-width="1.5"></path><path d="M59.03 708.71L87.66 817.91" stroke="hsla(314.4, 83.1%, 72.6%, 0.62)" stroke-width="1.5"></path><path d="M87.66 817.91L87.66 817.91" stroke="hsla(314.4, 83.1%, 72.6%, 0.62)" stroke-width="1.5"></path><path d="M251.25 703.63L251.25 703.63" stroke="hsla(314.4, 83.1%, 72.6%, 0.62)" stroke-width="1.5"></path><path d="M251.25 703.63L340.16 803.83" stroke="hsla(314.4, 83.1%, 72.6%, 0.62)" stroke-width="1.5"></path><path d="M351.19 523.58L351.19 523.58" stroke="hsla(314.4, 83.1%, 72.6%, 0.62)" stroke-width="1.5"></path><path d="M351.19 523.58L400.93 648.41" stroke="hsla(314.4, 83.1%, 72.6%, 0.62)" stroke-width="1.5"></path><path d="M351.19 523.58L496.13 550.89" stroke="hsla(314.4, 83.1%, 72.6%, 0.62)" stroke-width="1.5"></path><path d="M351.19 523.58L251.25 703.63" stroke="hsla(314.4, 83.1%, 72.6%, 0.62)" stroke-width="1.5"></path><path d="M351.19 523.58L84.12 512.9" stroke="hsla(314.4, 83.1%, 72.6%, 0.62)" stroke-width="1.5"></path><path d="M400.93 648.41L400.93 648.41" stroke="hsla(314.4, 83.1%, 72.6%, 0.62)" stroke-width="1.5"></path><path d="M400.93 648.41L496.13 550.89" stroke="hsla(314.4, 83.1%, 72.6%, 0.62)" stroke-width="1.5"></path><path d="M400.93 648.41L251.25 703.63" stroke="hsla(314.4, 83.1%, 72.6%, 0.62)" stroke-width="1.5"></path><path d="M400.93 648.41L340.16 803.83" stroke="hsla(314.4, 83.1%, 72.6%, 0.62)" stroke-width="1.5"></path><path d="M340.16 803.83L340.16 803.83" stroke="hsla(314.4, 83.1%, 72.6%, 0.62)" stroke-width="1.5"></path><path d="M340.16 803.83L538.69 840" stroke="hsla(314.4, 83.1%, 72.6%, 0.62)" stroke-width="1.5"></path><path d="M340.16 803.83L87.66 817.91" stroke="hsla(314.4, 83.1%, 72.6%, 0.62)" stroke-width="1.5"></path><path d="M496.13 550.89L496.13 550.89" stroke="hsla(314.4, 83.1%, 72.6%, 0.62)" stroke-width="1.5"></path><path d="M538.69 840L538.69 840" stroke="hsla(314.4, 83.1%, 72.6%, 0.62)" stroke-width="1.5"></path><path d="M538.69 840L650.04 798.37" stroke="hsla(314.4, 83.1%, 72.6%, 0.62)" stroke-width="1.5"></path><path d="M538.69 840L711.97 697.12" stroke="hsla(314.4, 83.1%, 72.6%, 0.62)" stroke-width="1.5"></path><path d="M538.69 840L400.93 648.41" stroke="hsla(314.4, 83.1%, 72.6%, 0.62)" stroke-width="1.5"></path><path d="M538.69 840L798.82 809.63" stroke="hsla(314.4, 83.1%, 72.6%, 0.62)" stroke-width="1.5"></path><path d="M677.36 359.13L677.36 359.13" stroke="hsla(314.4, 83.1%, 72.6%, 0.62)" stroke-width="1.5"></path><path d="M677.36 359.13L793.38 354.01" stroke="hsla(314.4, 83.1%, 72.6%, 0.62)" stroke-width="1.5"></path><path d="M677.36 359.13L670.73 555.68" stroke="hsla(314.4, 83.1%, 72.6%, 0.62)" stroke-width="1.5"></path><path d="M677.36 359.13L842.47 498.55" stroke="hsla(314.4, 83.1%, 72.6%, 0.62)" stroke-width="1.5"></path><path d="M677.36 359.13L496.13 550.89" stroke="hsla(314.4, 83.1%, 72.6%, 0.62)" stroke-width="1.5"></path><path d="M677.36 359.13L990.06 343.66" stroke="hsla(314.4, 83.1%, 72.6%, 0.62)" stroke-width="1.5"></path><path d="M711.97 697.12L711.97 697.12" stroke="hsla(314.4, 83.1%, 72.6%, 0.62)" stroke-width="1.5"></path><path d="M711.97 697.12L797.28 693.72" stroke="hsla(314.4, 83.1%, 72.6%, 0.62)" stroke-width="1.5"></path><path d="M711.97 697.12L650.04 798.37" stroke="hsla(314.4, 83.1%, 72.6%, 0.62)" stroke-width="1.5"></path><path d="M650.04 798.37L650.04 798.37" stroke="hsla(314.4, 83.1%, 72.6%, 0.62)" stroke-width="1.5"></path><path d="M793.38 354.01L793.38 354.01" stroke="hsla(314.4, 83.1%, 72.6%, 0.62)" stroke-width="1.5"></path><path d="M797.28 693.72L797.28 693.72" stroke="hsla(314.4, 83.1%, 72.6%, 0.62)" stroke-width="1.5"></path><path d="M797.28 693.72L798.82 809.63" stroke="hsla(314.4, 83.1%, 72.6%, 0.62)" stroke-width="1.5"></path><path d="M797.28 693.72L967.04 698.22" stroke="hsla(314.4, 83.1%, 72.6%, 0.62)" stroke-width="1.5"></path><path d="M797.28 693.72L650.04 798.37" stroke="hsla(314.4, 83.1%, 72.6%, 0.62)" stroke-width="1.5"></path><path d="M797.28 693.72L670.73 555.68" stroke="hsla(314.4, 83.1%, 72.6%, 0.62)" stroke-width="1.5"></path><path d="M798.82 809.63L798.82 809.63" stroke="hsla(314.4, 83.1%, 72.6%, 0.62)" stroke-width="1.5"></path><path d="M798.82 809.63L711.97 697.12" stroke="hsla(314.4, 83.1%, 72.6%, 0.62)" stroke-width="1.5"></path><path d="M798.82 809.63L650.04 798.37" stroke="hsla(314.4, 83.1%, 72.6%, 0.62)" stroke-width="1.5"></path><path d="M798.82 809.63L967.04 698.22" stroke="hsla(314.4, 83.1%, 72.6%, 0.62)" stroke-width="1.5"></path><path d="M996.64 64.43L996.64 64.43" stroke="hsla(314.4, 83.1%, 72.6%, 0.62)" stroke-width="1.5"></path><path d="M996.64 64.43L1108.62 99.82" stroke="hsla(314.4, 83.1%, 72.6%, 0.62)" stroke-width="1.5"></path><path d="M996.64 64.43L980.43 201.47" stroke="hsla(314.4, 83.1%, 72.6%, 0.62)" stroke-width="1.5"></path><path d="M980.43 201.47L980.43 201.47" stroke="hsla(314.4, 83.1%, 72.6%, 0.62)" stroke-width="1.5"></path><path d="M990.06 343.66L990.06 343.66" stroke="hsla(314.4, 83.1%, 72.6%, 0.62)" stroke-width="1.5"></path><path d="M990.06 343.66L980.43 201.47" stroke="hsla(314.4, 83.1%, 72.6%, 0.62)" stroke-width="1.5"></path><path d="M990.06 343.66L976.54 490.37" stroke="hsla(314.4, 83.1%, 72.6%, 0.62)" stroke-width="1.5"></path><path d="M976.54 490.37L976.54 490.37" stroke="hsla(314.4, 83.1%, 72.6%, 0.62)" stroke-width="1.5"></path><path d="M976.54 490.37L1122.27 501.71" stroke="hsla(314.4, 83.1%, 72.6%, 0.62)" stroke-width="1.5"></path><path d="M976.54 490.37L1104.28 344.98" stroke="hsla(314.4, 83.1%, 72.6%, 0.62)" stroke-width="1.5"></path><path d="M967.04 698.22L967.04 698.22" stroke="hsla(314.4, 83.1%, 72.6%, 0.62)" stroke-width="1.5"></path><path d="M967.04 698.22L1092.14 829.45" stroke="hsla(314.4, 83.1%, 72.6%, 0.62)" stroke-width="1.5"></path><path d="M967.04 698.22L1156.2 710.21" stroke="hsla(314.4, 83.1%, 72.6%, 0.62)" stroke-width="1.5"></path><path d="M1122.16 -82.21L1122.16 -82.21" stroke="hsla(314.4, 83.1%, 72.6%, 0.62)" stroke-width="1.5"></path><path d="M1122.16 -82.21L1108.62 99.82" stroke="hsla(314.4, 83.1%, 72.6%, 0.62)" stroke-width="1.5"></path><path d="M1122.16 -82.21L996.64 64.43" stroke="hsla(314.4, 83.1%, 72.6%, 0.62)" stroke-width="1.5"></path><path d="M1122.16 -82.21L1273.1 55.65" stroke="hsla(314.4, 83.1%, 72.6%, 0.62)" stroke-width="1.5"></path><path d="M1108.62 99.82L1108.62 99.82" stroke="hsla(314.4, 83.1%, 72.6%, 0.62)" stroke-width="1.5"></path><path d="M1108.62 99.82L980.43 201.47" stroke="hsla(314.4, 83.1%, 72.6%, 0.62)" stroke-width="1.5"></path><path d="M1108.62 99.82L1273.1 55.65" stroke="hsla(314.4, 83.1%, 72.6%, 0.62)" stroke-width="1.5"></path><path d="M1122.27 501.71L1122.27 501.71" stroke="hsla(314.4, 83.1%, 72.6%, 0.62)" stroke-width="1.5"></path><path d="M1122.27 501.71L1279.74 513.23" stroke="hsla(314.4, 83.1%, 72.6%, 0.62)" stroke-width="1.5"></path><path d="M1122.27 501.71L990.06 343.66" stroke="hsla(314.4, 83.1%, 72.6%, 0.62)" stroke-width="1.5"></path><path d="M1156.2 710.21L1156.2 710.21" stroke="hsla(314.4, 83.1%, 72.6%, 0.62)" stroke-width="1.5"></path><path d="M1156.2 710.21L1253.27 790.89" stroke="hsla(314.4, 83.1%, 72.6%, 0.62)" stroke-width="1.5"></path><path d="M1156.2 710.21L1092.14 829.45" stroke="hsla(314.4, 83.1%, 72.6%, 0.62)" stroke-width="1.5"></path><path d="M1156.2 710.21L1296.99 642.4" stroke="hsla(314.4, 83.1%, 72.6%, 0.62)" stroke-width="1.5"></path><path d="M1092.14 829.45L1092.14 829.45" stroke="hsla(314.4, 83.1%, 72.6%, 0.62)" stroke-width="1.5"></path><path d="M1092.14 829.45L1253.27 790.89" stroke="hsla(314.4, 83.1%, 72.6%, 0.62)" stroke-width="1.5"></path><path d="M1092.14 829.45L1296.99 642.4" stroke="hsla(314.4, 83.1%, 72.6%, 0.62)" stroke-width="1.5"></path><path d="M1273.1 55.65L1273.1 55.65" stroke="hsla(314.4, 83.1%, 72.6%, 0.62)" stroke-width="1.5"></path><path d="M1273.1 55.65L1312 231.34" stroke="hsla(314.4, 83.1%, 72.6%, 0.62)" stroke-width="1.5"></path><path d="M1273.1 55.65L996.64 64.43" stroke="hsla(314.4, 83.1%, 72.6%, 0.62)" stroke-width="1.5"></path><path d="M1312 231.34L1312 231.34" stroke="hsla(314.4, 83.1%, 72.6%, 0.62)" stroke-width="1.5"></path><path d="M1312 231.34L1269.02 340" stroke="hsla(314.4, 83.1%, 72.6%, 0.62)" stroke-width="1.5"></path><path d="M1312 231.34L1104.28 344.98" stroke="hsla(314.4, 83.1%, 72.6%, 0.62)" stroke-width="1.5"></path><path d="M1269.02 340L1269.02 340" stroke="hsla(314.4, 83.1%, 72.6%, 0.62)" stroke-width="1.5"></path><path d="M1279.74 513.23L1279.74 513.23" stroke="hsla(314.4, 83.1%, 72.6%, 0.62)" stroke-width="1.5"></path><path d="M1279.74 513.23L1296.99 642.4" stroke="hsla(314.4, 83.1%, 72.6%, 0.62)" stroke-width="1.5"></path><path d="M1296.99 642.4L1296.99 642.4" stroke="hsla(314.4, 83.1%, 72.6%, 0.62)" stroke-width="1.5"></path><path d="M1296.99 642.4L1253.27 790.89" stroke="hsla(314.4, 83.1%, 72.6%, 0.62)" stroke-width="1.5"></path><path d="M1296.99 642.4L1122.27 501.71" stroke="hsla(314.4, 83.1%, 72.6%, 0.62)" stroke-width="1.5"></path><path d="M1253.27 790.89L1253.27 790.89" stroke="hsla(314.4, 83.1%, 72.6%, 0.62)" stroke-width="1.5"></path><circle r="25" cx="220.06" cy="547.01" fill="rgba(236, 49, 191, 0.12)"></circle><circle r="25" cx="240.15" cy="850.59" fill="rgba(236, 49, 191, 0.12)"></circle><circle r="25" cx="670.73" cy="555.68" fill="rgba(236, 49, 191, 0.12)"></circle><circle r="25" cx="842.47" cy="498.55" fill="rgba(236, 49, 191, 0.12)"></circle><circle r="25" cx="957.59" cy="795.45" fill="rgba(236, 49, 191, 0.12)"></circle><circle r="25" cx="1134.53" cy="192.05" fill="rgba(236, 49, 191, 0.12)"></circle><circle r="25" cx="1104.28" cy="344.98" fill="rgba(236, 49, 191, 0.12)"></circle><circle r="25" cx="1250.58" cy="-78.49" fill="rgba(236, 49, 191, 0.12)"></circle><circle r="5" cx="-71.53" cy="508.87" fill="rgba(249, 191, 235, 0.81)"></circle><circle r="5" cx="-60.21" cy="669.01" fill="rgba(249, 191, 235, 0.81)"></circle><circle r="5" cx="-66.91" cy="831.87" fill="rgba(249, 191, 235, 0.81)"></circle><circle r="5" cx="84.12" cy="512.9" fill="rgba(249, 191, 235, 0.81)"></circle><circle r="5" cx="59.03" cy="708.71" fill="rgba(249, 191, 235, 0.81)"></circle><circle r="5" cx="87.66" cy="817.91" fill="rgba(249, 191, 235, 0.81)"></circle><circle r="5" cx="251.25" cy="703.63" fill="rgba(249, 191, 235, 0.81)"></circle><circle r="5" cx="351.19" cy="523.58" fill="rgba(249, 191, 235, 0.81)"></circle><circle r="5" cx="400.93" cy="648.41" fill="rgba(249, 191, 235, 0.81)"></circle><circle r="5" cx="340.16" cy="803.83" fill="rgba(249, 191, 235, 0.81)"></circle><circle r="5" cx="496.13" cy="550.89" fill="rgba(249, 191, 235, 0.81)"></circle><circle r="5" cx="538.69" cy="840" fill="rgba(249, 191, 235, 0.81)"></circle><circle r="5" cx="677.36" cy="359.13" fill="rgba(249, 191, 235, 0.81)"></circle><circle r="5" cx="711.97" cy="697.12" fill="rgba(249, 191, 235, 0.81)"></circle><circle r="5" cx="650.04" cy="798.37" fill="rgba(249, 191, 235, 0.81)"></circle><circle r="5" cx="793.38" cy="354.01" fill="rgba(249, 191, 235, 0.81)"></circle><circle r="5" cx="797.28" cy="693.72" fill="rgba(249, 191, 235, 0.81)"></circle><circle r="5" cx="798.82" cy="809.63" fill="rgba(249, 191, 235, 0.81)"></circle><circle r="5" cx="996.64" cy="64.43" fill="rgba(249, 191, 235, 0.81)"></circle><circle r="5" cx="980.43" cy="201.47" fill="rgba(249, 191, 235, 0.81)"></circle><circle r="5" cx="990.06" cy="343.66" fill="rgba(249, 191, 235, 0.81)"></circle><circle r="5" cx="976.54" cy="490.37" fill="rgba(249, 191, 235, 0.81)"></circle><circle r="5" cx="967.04" cy="698.22" fill="rgba(249, 191, 235, 0.81)"></circle><circle r="5" cx="1122.16" cy="-82.21" fill="rgba(249, 191, 235, 0.81)"></circle><circle r="5" cx="1108.62" cy="99.82" fill="rgba(249, 191, 235, 0.81)"></circle><circle r="5" cx="1122.27" cy="501.71" fill="rgba(249, 191, 235, 0.81)"></circle><circle r="5" cx="1156.2" cy="710.21" fill="rgba(249, 191, 235, 0.81)"></circle><circle r="5" cx="1092.14" cy="829.45" fill="rgba(249, 191, 235, 0.81)"></circle><circle r="5" cx="1273.1" cy="55.65" fill="rgba(249, 191, 235, 0.81)"></circle><circle r="5" cx="1312" cy="231.34" fill="rgba(249, 191, 235, 0.81)"></circle><circle r="5" cx="1269.02" cy="340" fill="rgba(249, 191, 235, 0.81)"></circle><circle r="5" cx="1279.74" cy="513.23" fill="rgba(249, 191, 235, 0.81)"></circle><circle r="5" cx="1296.99" cy="642.4" fill="rgba(249, 191, 235, 0.81)"></circle><circle r="5" cx="1253.27" cy="790.89" fill="rgba(249, 191, 235, 0.81)"></circle></g><defs><mask id="SvgjsMask1042"><rect width="1200" height="630" fill="#ffffff"></rect></mask></defs></svg>