<svg xmlns="http://www.w3.org/2000/svg" version="1.1" xmlns:xlink="http://www.w3.org/1999/xlink" xmlns:svgjs="http://svgjs.dev/svgjs" width="1440" height="560" preserveAspectRatio="none" viewBox="0 0 1440 560"><g mask="url(&quot;#SvgjsMask1635&quot;)" fill="none"><rect width="1440" height="560" x="0" y="0" fill="url(&quot;#SvgjsRadialGradient1636&quot;)"></rect><path d="M-79.51 342.57L-79.51 342.57" stroke="rgba(207, 208, 210, 1)" stroke-width="1.5"></path><path d="M-79.51 342.57L50.14 524.24" stroke="rgba(207, 208, 210, 1)" stroke-width="1.5"></path><path d="M-79.51 342.57L192.41 522.06" stroke="rgba(207, 208, 210, 1)" stroke-width="1.5"></path><path d="M-62.61 695.66L-62.61 695.66" stroke="rgba(207, 208, 210, 1)" stroke-width="1.5"></path><path d="M-62.61 695.66L100.99 651.12" stroke="rgba(207, 208, 210, 1)" stroke-width="1.5"></path><path d="M-62.61 695.66L50.14 524.24" stroke="rgba(207, 208, 210, 1)" stroke-width="1.5"></path><path d="M-62.61 695.66L192.41 522.06" stroke="rgba(207, 208, 210, 1)" stroke-width="1.5"></path><path d="M-62.61 695.66L251.66 700.01" stroke="rgba(207, 208, 210, 1)" stroke-width="1.5"></path><path d="M50.14 524.24L50.14 524.24" stroke="rgba(207, 208, 210, 1)" stroke-width="1.5"></path><path d="M50.14 524.24L100.99 651.12" stroke="rgba(207, 208, 210, 1)" stroke-width="1.5"></path><path d="M50.14 524.24L192.41 522.06" stroke="rgba(207, 208, 210, 1)" stroke-width="1.5"></path><path d="M50.14 524.24L251.66 700.01" stroke="rgba(207, 208, 210, 1)" stroke-width="1.5"></path><path d="M50.14 524.24L340.93 371.43" stroke="rgba(207, 208, 210, 1)" stroke-width="1.5"></path><path d="M100.99 651.12L100.99 651.12" stroke="rgba(207, 208, 210, 1)" stroke-width="1.5"></path><path d="M100.99 651.12L192.41 522.06" stroke="rgba(207, 208, 210, 1)" stroke-width="1.5"></path><path d="M100.99 651.12L251.66 700.01" stroke="rgba(207, 208, 210, 1)" stroke-width="1.5"></path><path d="M192.41 522.06L192.41 522.06" stroke="rgba(207, 208, 210, 1)" stroke-width="1.5"></path><path d="M192.41 522.06L251.66 700.01" stroke="rgba(207, 208, 210, 1)" stroke-width="1.5"></path><path d="M192.41 522.06L340.93 371.43" stroke="rgba(207, 208, 210, 1)" stroke-width="1.5"></path><path d="M192.41 522.06L373.79 702.75" stroke="rgba(207, 208, 210, 1)" stroke-width="1.5"></path><path d="M251.66 700.01L251.66 700.01" stroke="rgba(207, 208, 210, 1)" stroke-width="1.5"></path><path d="M251.66 700.01L373.79 702.75" stroke="rgba(207, 208, 210, 1)" stroke-width="1.5"></path><path d="M340.93 371.43L340.93 371.43" stroke="rgba(207, 208, 210, 1)" stroke-width="1.5"></path><path d="M340.93 371.43L532.86 400.85" stroke="rgba(207, 208, 210, 1)" stroke-width="1.5"></path><path d="M373.79 702.75L373.79 702.75" stroke="rgba(207, 208, 210, 1)" stroke-width="1.5"></path><path d="M373.79 702.75L533.14 690.97" stroke="rgba(207, 208, 210, 1)" stroke-width="1.5"></path><path d="M373.79 702.75L505.78 558.31" stroke="rgba(207, 208, 210, 1)" stroke-width="1.5"></path><path d="M373.79 702.75L100.99 651.12" stroke="rgba(207, 208, 210, 1)" stroke-width="1.5"></path><path d="M532.86 400.85L532.86 400.85" stroke="rgba(207, 208, 210, 1)" stroke-width="1.5"></path><path d="M532.86 400.85L660.18 337.92" stroke="rgba(207, 208, 210, 1)" stroke-width="1.5"></path><path d="M532.86 400.85L505.78 558.31" stroke="rgba(207, 208, 210, 1)" stroke-width="1.5"></path><path d="M532.86 400.85L655.48 249.14" stroke="rgba(207, 208, 210, 1)" stroke-width="1.5"></path><path d="M505.78 558.31L505.78 558.31" stroke="rgba(207, 208, 210, 1)" stroke-width="1.5"></path><path d="M505.78 558.31L533.14 690.97" stroke="rgba(207, 208, 210, 1)" stroke-width="1.5"></path><path d="M505.78 558.31L649.58 655.29" stroke="rgba(207, 208, 210, 1)" stroke-width="1.5"></path><path d="M533.14 690.97L533.14 690.97" stroke="rgba(207, 208, 210, 1)" stroke-width="1.5"></path><path d="M533.14 690.97L649.58 655.29" stroke="rgba(207, 208, 210, 1)" stroke-width="1.5"></path><path d="M533.14 690.97L694.32 526.01" stroke="rgba(207, 208, 210, 1)" stroke-width="1.5"></path><path d="M533.14 690.97L251.66 700.01" stroke="rgba(207, 208, 210, 1)" stroke-width="1.5"></path><path d="M655.48 249.14L655.48 249.14" stroke="rgba(207, 208, 210, 1)" stroke-width="1.5"></path><path d="M655.48 249.14L660.18 337.92" stroke="rgba(207, 208, 210, 1)" stroke-width="1.5"></path><path d="M655.48 249.14L837.96 250.54" stroke="rgba(207, 208, 210, 1)" stroke-width="1.5"></path><path d="M660.18 337.92L660.18 337.92" stroke="rgba(207, 208, 210, 1)" stroke-width="1.5"></path><path d="M660.18 337.92L793.78 368.38" stroke="rgba(207, 208, 210, 1)" stroke-width="1.5"></path><path d="M660.18 337.92L694.32 526.01" stroke="rgba(207, 208, 210, 1)" stroke-width="1.5"></path><path d="M660.18 337.92L837.96 250.54" stroke="rgba(207, 208, 210, 1)" stroke-width="1.5"></path><path d="M660.18 337.92L802.49 508.48" stroke="rgba(207, 208, 210, 1)" stroke-width="1.5"></path><path d="M694.32 526.01L694.32 526.01" stroke="rgba(207, 208, 210, 1)" stroke-width="1.5"></path><path d="M694.32 526.01L802.49 508.48" stroke="rgba(207, 208, 210, 1)" stroke-width="1.5"></path><path d="M694.32 526.01L649.58 655.29" stroke="rgba(207, 208, 210, 1)" stroke-width="1.5"></path><path d="M649.58 655.29L649.58 655.29" stroke="rgba(207, 208, 210, 1)" stroke-width="1.5"></path><path d="M837.96 250.54L837.96 250.54" stroke="rgba(207, 208, 210, 1)" stroke-width="1.5"></path><path d="M837.96 250.54L793.78 368.38" stroke="rgba(207, 208, 210, 1)" stroke-width="1.5"></path><path d="M837.96 250.54L958.5 191.47" stroke="rgba(207, 208, 210, 1)" stroke-width="1.5"></path><path d="M793.78 368.38L793.78 368.38" stroke="rgba(207, 208, 210, 1)" stroke-width="1.5"></path><path d="M793.78 368.38L802.49 508.48" stroke="rgba(207, 208, 210, 1)" stroke-width="1.5"></path><path d="M802.49 508.48L802.49 508.48" stroke="rgba(207, 208, 210, 1)" stroke-width="1.5"></path><path d="M802.49 508.48L860.04 669.01" stroke="rgba(207, 208, 210, 1)" stroke-width="1.5"></path><path d="M802.49 508.48L972.81 560.62" stroke="rgba(207, 208, 210, 1)" stroke-width="1.5"></path><path d="M802.49 508.48L649.58 655.29" stroke="rgba(207, 208, 210, 1)" stroke-width="1.5"></path><path d="M860.04 669.01L860.04 669.01" stroke="rgba(207, 208, 210, 1)" stroke-width="1.5"></path><path d="M860.04 669.01L1005.29 676.22" stroke="rgba(207, 208, 210, 1)" stroke-width="1.5"></path><path d="M860.04 669.01L972.81 560.62" stroke="rgba(207, 208, 210, 1)" stroke-width="1.5"></path><path d="M860.04 669.01L649.58 655.29" stroke="rgba(207, 208, 210, 1)" stroke-width="1.5"></path><path d="M860.04 669.01L694.32 526.01" stroke="rgba(207, 208, 210, 1)" stroke-width="1.5"></path><path d="M860.04 669.01L1138.52 712.43" stroke="rgba(207, 208, 210, 1)" stroke-width="1.5"></path><path d="M1004.07 -93.02L1004.07 -93.02" stroke="rgba(207, 208, 210, 1)" stroke-width="1.5"></path><path d="M1004.07 -93.02L1092.7 -62.59" stroke="rgba(207, 208, 210, 1)" stroke-width="1.5"></path><path d="M1009.92 38.69L1009.92 38.69" stroke="rgba(207, 208, 210, 1)" stroke-width="1.5"></path><path d="M1009.92 38.69L1092.7 -62.59" stroke="rgba(207, 208, 210, 1)" stroke-width="1.5"></path><path d="M958.5 191.47L958.5 191.47" stroke="rgba(207, 208, 210, 1)" stroke-width="1.5"></path><path d="M958.5 191.47L1009.92 38.69" stroke="rgba(207, 208, 210, 1)" stroke-width="1.5"></path><path d="M958.5 191.47L991.56 391.29" stroke="rgba(207, 208, 210, 1)" stroke-width="1.5"></path><path d="M958.5 191.47L1156.19 243.3" stroke="rgba(207, 208, 210, 1)" stroke-width="1.5"></path><path d="M991.56 391.29L991.56 391.29" stroke="rgba(207, 208, 210, 1)" stroke-width="1.5"></path><path d="M991.56 391.29L1147.51 398.7" stroke="rgba(207, 208, 210, 1)" stroke-width="1.5"></path><path d="M991.56 391.29L972.81 560.62" stroke="rgba(207, 208, 210, 1)" stroke-width="1.5"></path><path d="M991.56 391.29L1106.44 523.78" stroke="rgba(207, 208, 210, 1)" stroke-width="1.5"></path><path d="M991.56 391.29L793.78 368.38" stroke="rgba(207, 208, 210, 1)" stroke-width="1.5"></path><path d="M972.81 560.62L972.81 560.62" stroke="rgba(207, 208, 210, 1)" stroke-width="1.5"></path><path d="M972.81 560.62L1005.29 676.22" stroke="rgba(207, 208, 210, 1)" stroke-width="1.5"></path><path d="M972.81 560.62L1106.44 523.78" stroke="rgba(207, 208, 210, 1)" stroke-width="1.5"></path><path d="M1005.29 676.22L1005.29 676.22" stroke="rgba(207, 208, 210, 1)" stroke-width="1.5"></path><path d="M1005.29 676.22L1138.52 712.43" stroke="rgba(207, 208, 210, 1)" stroke-width="1.5"></path><path d="M1092.7 -62.59L1092.7 -62.59" stroke="rgba(207, 208, 210, 1)" stroke-width="1.5"></path><path d="M1092.7 -62.59L1148.55 61.33" stroke="rgba(207, 208, 210, 1)" stroke-width="1.5"></path><path d="M1092.7 -62.59L1284.18 -71.32" stroke="rgba(207, 208, 210, 1)" stroke-width="1.5"></path><path d="M1148.55 61.33L1148.55 61.33" stroke="rgba(207, 208, 210, 1)" stroke-width="1.5"></path><path d="M1148.55 61.33L1009.92 38.69" stroke="rgba(207, 208, 210, 1)" stroke-width="1.5"></path><path d="M1156.19 243.3L1156.19 243.3" stroke="rgba(207, 208, 210, 1)" stroke-width="1.5"></path><path d="M1156.19 243.3L1273.68 205.78" stroke="rgba(207, 208, 210, 1)" stroke-width="1.5"></path><path d="M1156.19 243.3L1147.51 398.7" stroke="rgba(207, 208, 210, 1)" stroke-width="1.5"></path><path d="M1156.19 243.3L1287.23 337.57" stroke="rgba(207, 208, 210, 1)" stroke-width="1.5"></path><path d="M1156.19 243.3L1148.55 61.33" stroke="rgba(207, 208, 210, 1)" stroke-width="1.5"></path><path d="M1147.51 398.7L1147.51 398.7" stroke="rgba(207, 208, 210, 1)" stroke-width="1.5"></path><path d="M1147.51 398.7L1106.44 523.78" stroke="rgba(207, 208, 210, 1)" stroke-width="1.5"></path><path d="M1147.51 398.7L1247.89 509.86" stroke="rgba(207, 208, 210, 1)" stroke-width="1.5"></path><path d="M1106.44 523.78L1106.44 523.78" stroke="rgba(207, 208, 210, 1)" stroke-width="1.5"></path><path d="M1106.44 523.78L1247.89 509.86" stroke="rgba(207, 208, 210, 1)" stroke-width="1.5"></path><path d="M1138.52 712.43L1138.52 712.43" stroke="rgba(207, 208, 210, 1)" stroke-width="1.5"></path><path d="M1138.52 712.43L1106.44 523.78" stroke="rgba(207, 208, 210, 1)" stroke-width="1.5"></path><path d="M1138.52 712.43L972.81 560.62" stroke="rgba(207, 208, 210, 1)" stroke-width="1.5"></path><path d="M1138.52 712.43L1247.89 509.86" stroke="rgba(207, 208, 210, 1)" stroke-width="1.5"></path><path d="M1284.18 -71.32L1284.18 -71.32" stroke="rgba(207, 208, 210, 1)" stroke-width="1.5"></path><path d="M1284.18 -71.32L1397.23 -87.71" stroke="rgba(207, 208, 210, 1)" stroke-width="1.5"></path><path d="M1284.18 -71.32L1298.79 54.88" stroke="rgba(207, 208, 210, 1)" stroke-width="1.5"></path><path d="M1284.18 -71.32L1407.67 66.27" stroke="rgba(207, 208, 210, 1)" stroke-width="1.5"></path><path d="M1284.18 -71.32L1148.55 61.33" stroke="rgba(207, 208, 210, 1)" stroke-width="1.5"></path><path d="M1298.79 54.88L1298.79 54.88" stroke="rgba(207, 208, 210, 1)" stroke-width="1.5"></path><path d="M1298.79 54.88L1407.67 66.27" stroke="rgba(207, 208, 210, 1)" stroke-width="1.5"></path><path d="M1273.68 205.78L1273.68 205.78" stroke="rgba(207, 208, 210, 1)" stroke-width="1.5"></path><path d="M1287.23 337.57L1287.23 337.57" stroke="rgba(207, 208, 210, 1)" stroke-width="1.5"></path><path d="M1287.23 337.57L1273.68 205.78" stroke="rgba(207, 208, 210, 1)" stroke-width="1.5"></path><path d="M1287.23 337.57L1425.23 347.03" stroke="rgba(207, 208, 210, 1)" stroke-width="1.5"></path><path d="M1287.23 337.57L1147.51 398.7" stroke="rgba(207, 208, 210, 1)" stroke-width="1.5"></path><path d="M1247.89 509.86L1247.89 509.86" stroke="rgba(207, 208, 210, 1)" stroke-width="1.5"></path><path d="M1247.89 509.86L1392.42 527.4" stroke="rgba(207, 208, 210, 1)" stroke-width="1.5"></path><path d="M1247.89 509.86L1287.23 337.57" stroke="rgba(207, 208, 210, 1)" stroke-width="1.5"></path><path d="M1397.23 -87.71L1397.23 -87.71" stroke="rgba(207, 208, 210, 1)" stroke-width="1.5"></path><path d="M1397.23 -87.71L1407.67 66.27" stroke="rgba(207, 208, 210, 1)" stroke-width="1.5"></path><path d="M1397.23 -87.71L1298.79 54.88" stroke="rgba(207, 208, 210, 1)" stroke-width="1.5"></path><path d="M1397.23 -87.71L1571.51 -50.85" stroke="rgba(207, 208, 210, 1)" stroke-width="1.5"></path><path d="M1397.23 -87.71L1594.42 55.94" stroke="rgba(207, 208, 210, 1)" stroke-width="1.5"></path><path d="M1397.23 -87.71L1148.55 61.33" stroke="rgba(207, 208, 210, 1)" stroke-width="1.5"></path><path d="M1407.67 66.27L1407.67 66.27" stroke="rgba(207, 208, 210, 1)" stroke-width="1.5"></path><path d="M1407.67 66.27L1424.22 238.15" stroke="rgba(207, 208, 210, 1)" stroke-width="1.5"></path><path d="M1407.67 66.27L1594.42 55.94" stroke="rgba(207, 208, 210, 1)" stroke-width="1.5"></path><path d="M1407.67 66.27L1273.68 205.78" stroke="rgba(207, 208, 210, 1)" stroke-width="1.5"></path><path d="M1424.22 238.15L1424.22 238.15" stroke="rgba(207, 208, 210, 1)" stroke-width="1.5"></path><path d="M1424.22 238.15L1425.23 347.03" stroke="rgba(207, 208, 210, 1)" stroke-width="1.5"></path><path d="M1424.22 238.15L1273.68 205.78" stroke="rgba(207, 208, 210, 1)" stroke-width="1.5"></path><path d="M1425.23 347.03L1425.23 347.03" stroke="rgba(207, 208, 210, 1)" stroke-width="1.5"></path><path d="M1425.23 347.03L1576.75 352.79" stroke="rgba(207, 208, 210, 1)" stroke-width="1.5"></path><path d="M1425.23 347.03L1392.42 527.4" stroke="rgba(207, 208, 210, 1)" stroke-width="1.5"></path><path d="M1425.23 347.03L1580.11 238.2" stroke="rgba(207, 208, 210, 1)" stroke-width="1.5"></path><path d="M1425.23 347.03L1273.68 205.78" stroke="rgba(207, 208, 210, 1)" stroke-width="1.5"></path><path d="M1392.42 527.4L1392.42 527.4" stroke="rgba(207, 208, 210, 1)" stroke-width="1.5"></path><path d="M1392.42 527.4L1460.93 645.37" stroke="rgba(207, 208, 210, 1)" stroke-width="1.5"></path><path d="M1392.42 527.4L1565.32 523.65" stroke="rgba(207, 208, 210, 1)" stroke-width="1.5"></path><path d="M1392.42 527.4L1287.23 337.57" stroke="rgba(207, 208, 210, 1)" stroke-width="1.5"></path><path d="M1460.93 645.37L1460.93 645.37" stroke="rgba(207, 208, 210, 1)" stroke-width="1.5"></path><path d="M1460.93 645.37L1573.68 651.63" stroke="rgba(207, 208, 210, 1)" stroke-width="1.5"></path><path d="M1460.93 645.37L1565.32 523.65" stroke="rgba(207, 208, 210, 1)" stroke-width="1.5"></path><path d="M1571.51 -50.85L1571.51 -50.85" stroke="rgba(207, 208, 210, 1)" stroke-width="1.5"></path><path d="M1571.51 -50.85L1594.42 55.94" stroke="rgba(207, 208, 210, 1)" stroke-width="1.5"></path><path d="M1571.51 -50.85L1407.67 66.27" stroke="rgba(207, 208, 210, 1)" stroke-width="1.5"></path><path d="M1571.51 -50.85L1284.18 -71.32" stroke="rgba(207, 208, 210, 1)" stroke-width="1.5"></path><path d="M1571.51 -50.85L1580.11 238.2" stroke="rgba(207, 208, 210, 1)" stroke-width="1.5"></path><path d="M1594.42 55.94L1594.42 55.94" stroke="rgba(207, 208, 210, 1)" stroke-width="1.5"></path><path d="M1594.42 55.94L1580.11 238.2" stroke="rgba(207, 208, 210, 1)" stroke-width="1.5"></path><path d="M1580.11 238.2L1580.11 238.2" stroke="rgba(207, 208, 210, 1)" stroke-width="1.5"></path><path d="M1580.11 238.2L1576.75 352.79" stroke="rgba(207, 208, 210, 1)" stroke-width="1.5"></path><path d="M1580.11 238.2L1424.22 238.15" stroke="rgba(207, 208, 210, 1)" stroke-width="1.5"></path><path d="M1580.11 238.2L1407.67 66.27" stroke="rgba(207, 208, 210, 1)" stroke-width="1.5"></path><path d="M1576.75 352.79L1576.75 352.79" stroke="rgba(207, 208, 210, 1)" stroke-width="1.5"></path><path d="M1565.32 523.65L1565.32 523.65" stroke="rgba(207, 208, 210, 1)" stroke-width="1.5"></path><path d="M1565.32 523.65L1573.68 651.63" stroke="rgba(207, 208, 210, 1)" stroke-width="1.5"></path><path d="M1565.32 523.65L1576.75 352.79" stroke="rgba(207, 208, 210, 1)" stroke-width="1.5"></path><path d="M1573.68 651.63L1573.68 651.63" stroke="rgba(207, 208, 210, 1)" stroke-width="1.5"></path><path d="M1573.68 651.63L1392.42 527.4" stroke="rgba(207, 208, 210, 1)" stroke-width="1.5"></path><path d="M1573.68 651.63L1576.75 352.79" stroke="rgba(207, 208, 210, 1)" stroke-width="1.5"></path><path d="M1573.68 651.63L1425.23 347.03" stroke="rgba(207, 208, 210, 1)" stroke-width="1.5"></path><path d="M1573.68 651.63L1247.89 509.86" stroke="rgba(207, 208, 210, 1)" stroke-width="1.5"></path><circle r="5" cx="-79.51" cy="342.57" fill="rgba(207, 208, 210, 1)"></circle><circle r="5" cx="-62.61" cy="695.66" fill="rgba(207, 208, 210, 1)"></circle><circle r="5" cx="50.14" cy="524.24" fill="rgba(207, 208, 210, 1)"></circle><circle r="5" cx="100.99" cy="651.12" fill="rgba(207, 208, 210, 1)"></circle><circle r="5" cx="192.41" cy="522.06" fill="rgba(207, 208, 210, 1)"></circle><circle r="5" cx="251.66" cy="700.01" fill="rgba(207, 208, 210, 1)"></circle><circle r="5" cx="340.93" cy="371.43" fill="rgba(207, 208, 210, 1)"></circle><circle r="5" cx="373.79" cy="702.75" fill="rgba(207, 208, 210, 1)"></circle><circle r="5" cx="532.86" cy="400.85" fill="rgba(207, 208, 210, 1)"></circle><circle r="5" cx="505.78" cy="558.31" fill="rgba(207, 208, 210, 1)"></circle><circle r="5" cx="533.14" cy="690.97" fill="rgba(207, 208, 210, 1)"></circle><circle r="5" cx="655.48" cy="249.14" fill="rgba(207, 208, 210, 1)"></circle><circle r="5" cx="660.18" cy="337.92" fill="rgba(207, 208, 210, 1)"></circle><circle r="5" cx="694.32" cy="526.01" fill="rgba(207, 208, 210, 1)"></circle><circle r="5" cx="649.58" cy="655.29" fill="rgba(207, 208, 210, 1)"></circle><circle r="5" cx="837.96" cy="250.54" fill="rgba(207, 208, 210, 1)"></circle><circle r="5" cx="793.78" cy="368.38" fill="rgba(207, 208, 210, 1)"></circle><circle r="5" cx="802.49" cy="508.48" fill="rgba(207, 208, 210, 1)"></circle><circle r="5" cx="860.04" cy="669.01" fill="rgba(207, 208, 210, 1)"></circle><circle r="5" cx="1004.07" cy="-93.02" fill="rgba(207, 208, 210, 1)"></circle><circle r="5" cx="1009.92" cy="38.69" fill="rgba(207, 208, 210, 1)"></circle><circle r="5" cx="958.5" cy="191.47" fill="rgba(207, 208, 210, 1)"></circle><circle r="5" cx="991.56" cy="391.29" fill="rgba(207, 208, 210, 1)"></circle><circle r="5" cx="972.81" cy="560.62" fill="rgba(207, 208, 210, 1)"></circle><circle r="5" cx="1005.29" cy="676.22" fill="rgba(207, 208, 210, 1)"></circle><circle r="5" cx="1092.7" cy="-62.59" fill="rgba(207, 208, 210, 1)"></circle><circle r="5" cx="1148.55" cy="61.33" fill="rgba(207, 208, 210, 1)"></circle><circle r="5" cx="1156.19" cy="243.3" fill="rgba(207, 208, 210, 1)"></circle><circle r="5" cx="1147.51" cy="398.7" fill="rgba(207, 208, 210, 1)"></circle><circle r="5" cx="1106.44" cy="523.78" fill="rgba(207, 208, 210, 1)"></circle><circle r="5" cx="1138.52" cy="712.43" fill="rgba(207, 208, 210, 1)"></circle><circle r="5" cx="1284.18" cy="-71.32" fill="rgba(207, 208, 210, 1)"></circle><circle r="5" cx="1298.79" cy="54.88" fill="rgba(207, 208, 210, 1)"></circle><circle r="5" cx="1273.68" cy="205.78" fill="rgba(207, 208, 210, 1)"></circle><circle r="5" cx="1287.23" cy="337.57" fill="rgba(207, 208, 210, 1)"></circle><circle r="5" cx="1247.89" cy="509.86" fill="rgba(207, 208, 210, 1)"></circle><circle r="5" cx="1397.23" cy="-87.71" fill="rgba(207, 208, 210, 1)"></circle><circle r="5" cx="1407.67" cy="66.27" fill="rgba(207, 208, 210, 1)"></circle><circle r="5" cx="1424.22" cy="238.15" fill="rgba(207, 208, 210, 1)"></circle><circle r="5" cx="1425.23" cy="347.03" fill="rgba(207, 208, 210, 1)"></circle><circle r="5" cx="1392.42" cy="527.4" fill="rgba(207, 208, 210, 1)"></circle><circle r="5" cx="1460.93" cy="645.37" fill="rgba(207, 208, 210, 1)"></circle><circle r="5" cx="1571.51" cy="-50.85" fill="rgba(207, 208, 210, 1)"></circle><circle r="5" cx="1594.42" cy="55.94" fill="rgba(207, 208, 210, 1)"></circle><circle r="5" cx="1580.11" cy="238.2" fill="rgba(207, 208, 210, 1)"></circle><circle r="5" cx="1576.75" cy="352.79" fill="rgba(207, 208, 210, 1)"></circle><circle r="5" cx="1565.32" cy="523.65" fill="rgba(207, 208, 210, 1)"></circle><circle r="5" cx="1573.68" cy="651.63" fill="rgba(207, 208, 210, 1)"></circle><path d="M68.66 554.23L68.66 554.23" stroke="hsla(314.29999999999995, 73.7%, 58.1%, 0.62)" stroke-width="1.5"></path><path d="M68.66 554.23L60.44 655.02" stroke="hsla(314.29999999999995, 73.7%, 58.1%, 0.62)" stroke-width="1.5"></path><path d="M68.66 554.23L230.44 509.86" stroke="hsla(314.29999999999995, 73.7%, 58.1%, 0.62)" stroke-width="1.5"></path><path d="M68.66 554.23L-95.93 495.46" stroke="hsla(314.29999999999995, 73.7%, 58.1%, 0.62)" stroke-width="1.5"></path><path d="M68.66 554.23L202.38 669.31" stroke="hsla(314.29999999999995, 73.7%, 58.1%, 0.62)" stroke-width="1.5"></path><path d="M60.44 655.02L60.44 655.02" stroke="hsla(314.29999999999995, 73.7%, 58.1%, 0.62)" stroke-width="1.5"></path><path d="M60.44 655.02L202.38 669.31" stroke="hsla(314.29999999999995, 73.7%, 58.1%, 0.62)" stroke-width="1.5"></path><path d="M202.38 669.31L202.38 669.31" stroke="hsla(314.29999999999995, 73.7%, 58.1%, 0.62)" stroke-width="1.5"></path><path d="M202.38 669.31L357.03 704.24" stroke="hsla(314.29999999999995, 73.7%, 58.1%, 0.62)" stroke-width="1.5"></path><path d="M202.38 669.31L230.44 509.86" stroke="hsla(314.29999999999995, 73.7%, 58.1%, 0.62)" stroke-width="1.5"></path><path d="M655.86 376.39L655.86 376.39" stroke="hsla(314.29999999999995, 73.7%, 58.1%, 0.62)" stroke-width="1.5"></path><path d="M655.86 376.39L680.84 509.76" stroke="hsla(314.29999999999995, 73.7%, 58.1%, 0.62)" stroke-width="1.5"></path><path d="M655.86 376.39L818.15 388.84" stroke="hsla(314.29999999999995, 73.7%, 58.1%, 0.62)" stroke-width="1.5"></path><path d="M655.86 376.39L551.63 523.07" stroke="hsla(314.29999999999995, 73.7%, 58.1%, 0.62)" stroke-width="1.5"></path><path d="M708.18 648.08L708.18 648.08" stroke="hsla(314.29999999999995, 73.7%, 58.1%, 0.62)" stroke-width="1.5"></path><path d="M708.18 648.08L680.84 509.76" stroke="hsla(314.29999999999995, 73.7%, 58.1%, 0.62)" stroke-width="1.5"></path><path d="M708.18 648.08L852.06 661.02" stroke="hsla(314.29999999999995, 73.7%, 58.1%, 0.62)" stroke-width="1.5"></path><path d="M708.18 648.08L840.88 556.05" stroke="hsla(314.29999999999995, 73.7%, 58.1%, 0.62)" stroke-width="1.5"></path><path d="M708.18 648.08L551.63 523.07" stroke="hsla(314.29999999999995, 73.7%, 58.1%, 0.62)" stroke-width="1.5"></path><path d="M708.18 648.08L489.04 651.65" stroke="hsla(314.29999999999995, 73.7%, 58.1%, 0.62)" stroke-width="1.5"></path><path d="M998.77 346.89L998.77 346.89" stroke="hsla(314.29999999999995, 73.7%, 58.1%, 0.62)" stroke-width="1.5"></path><path d="M998.77 346.89L1141.2 350.56" stroke="hsla(314.29999999999995, 73.7%, 58.1%, 0.62)" stroke-width="1.5"></path><path d="M998.77 346.89L818.15 388.84" stroke="hsla(314.29999999999995, 73.7%, 58.1%, 0.62)" stroke-width="1.5"></path><path d="M998.77 346.89L976.8 541.01" stroke="hsla(314.29999999999995, 73.7%, 58.1%, 0.62)" stroke-width="1.5"></path><path d="M998.77 346.89L1126.27 189.72" stroke="hsla(314.29999999999995, 73.7%, 58.1%, 0.62)" stroke-width="1.5"></path><path d="M998.77 346.89L1126.99 535" stroke="hsla(314.29999999999995, 73.7%, 58.1%, 0.62)" stroke-width="1.5"></path><path d="M998.77 346.89L840.88 556.05" stroke="hsla(314.29999999999995, 73.7%, 58.1%, 0.62)" stroke-width="1.5"></path><path d="M1128.55 653.63L1128.55 653.63" stroke="hsla(314.29999999999995, 73.7%, 58.1%, 0.62)" stroke-width="1.5"></path><path d="M1128.55 653.63L1126.99 535" stroke="hsla(314.29999999999995, 73.7%, 58.1%, 0.62)" stroke-width="1.5"></path><path d="M1128.55 653.63L955.58 705.4" stroke="hsla(314.29999999999995, 73.7%, 58.1%, 0.62)" stroke-width="1.5"></path><path d="M1128.55 653.63L1309.11 676.63" stroke="hsla(314.29999999999995, 73.7%, 58.1%, 0.62)" stroke-width="1.5"></path><path d="M1128.55 653.63L1256.47 519.16" stroke="hsla(314.29999999999995, 73.7%, 58.1%, 0.62)" stroke-width="1.5"></path><path d="M1398.81 -99.32L1398.81 -99.32" stroke="hsla(314.29999999999995, 73.7%, 58.1%, 0.62)" stroke-width="1.5"></path><path d="M1398.81 -99.32L1266.34 -67.3" stroke="hsla(314.29999999999995, 73.7%, 58.1%, 0.62)" stroke-width="1.5"></path><path d="M1398.81 -99.32L1462 50" stroke="hsla(314.29999999999995, 73.7%, 58.1%, 0.62)" stroke-width="1.5"></path><path d="M1398.81 -99.32L1605.18 -87.68" stroke="hsla(314.29999999999995, 73.7%, 58.1%, 0.62)" stroke-width="1.5"></path><path d="M1398.81 -99.32L1299.64 101.18" stroke="hsla(314.29999999999995, 73.7%, 58.1%, 0.62)" stroke-width="1.5"></path><path d="M1398.81 -99.32L1552.01 104.6" stroke="hsla(314.29999999999995, 73.7%, 58.1%, 0.62)" stroke-width="1.5"></path><path d="M1591.06 250.89L1591.06 250.89" stroke="hsla(314.29999999999995, 73.7%, 58.1%, 0.62)" stroke-width="1.5"></path><path d="M1591.06 250.89L1581.2 340.8" stroke="hsla(314.29999999999995, 73.7%, 58.1%, 0.62)" stroke-width="1.5"></path><path d="M1591.06 250.89L1552.01 104.6" stroke="hsla(314.29999999999995, 73.7%, 58.1%, 0.62)" stroke-width="1.5"></path><path d="M1591.06 250.89L1423.08 192.43" stroke="hsla(314.29999999999995, 73.7%, 58.1%, 0.62)" stroke-width="1.5"></path><path d="M-95.93 495.46L-95.93 495.46" stroke="hsla(314.29999999999995, 73.7%, 58.1%, 0.62)" stroke-width="1.5"></path><path d="M-95.93 495.46L-92.96 702.55" stroke="hsla(314.29999999999995, 73.7%, 58.1%, 0.62)" stroke-width="1.5"></path><path d="M-95.93 495.46L60.44 655.02" stroke="hsla(314.29999999999995, 73.7%, 58.1%, 0.62)" stroke-width="1.5"></path><path d="M-92.96 702.55L-92.96 702.55" stroke="hsla(314.29999999999995, 73.7%, 58.1%, 0.62)" stroke-width="1.5"></path><path d="M-92.96 702.55L60.44 655.02" stroke="hsla(314.29999999999995, 73.7%, 58.1%, 0.62)" stroke-width="1.5"></path><path d="M-92.96 702.55L68.66 554.23" stroke="hsla(314.29999999999995, 73.7%, 58.1%, 0.62)" stroke-width="1.5"></path><path d="M-92.96 702.55L202.38 669.31" stroke="hsla(314.29999999999995, 73.7%, 58.1%, 0.62)" stroke-width="1.5"></path><path d="M230.44 509.86L230.44 509.86" stroke="hsla(314.29999999999995, 73.7%, 58.1%, 0.62)" stroke-width="1.5"></path><path d="M230.44 509.86L347.39 552.61" stroke="hsla(314.29999999999995, 73.7%, 58.1%, 0.62)" stroke-width="1.5"></path><path d="M230.44 509.86L60.44 655.02" stroke="hsla(314.29999999999995, 73.7%, 58.1%, 0.62)" stroke-width="1.5"></path><path d="M347.39 552.61L347.39 552.61" stroke="hsla(314.29999999999995, 73.7%, 58.1%, 0.62)" stroke-width="1.5"></path><path d="M347.39 552.61L357.03 704.24" stroke="hsla(314.29999999999995, 73.7%, 58.1%, 0.62)" stroke-width="1.5"></path><path d="M357.03 704.24L357.03 704.24" stroke="hsla(314.29999999999995, 73.7%, 58.1%, 0.62)" stroke-width="1.5"></path><path d="M357.03 704.24L489.04 651.65" stroke="hsla(314.29999999999995, 73.7%, 58.1%, 0.62)" stroke-width="1.5"></path><path d="M357.03 704.24L230.44 509.86" stroke="hsla(314.29999999999995, 73.7%, 58.1%, 0.62)" stroke-width="1.5"></path><path d="M357.03 704.24L551.63 523.07" stroke="hsla(314.29999999999995, 73.7%, 58.1%, 0.62)" stroke-width="1.5"></path><path d="M551.63 523.07L551.63 523.07" stroke="hsla(314.29999999999995, 73.7%, 58.1%, 0.62)" stroke-width="1.5"></path><path d="M551.63 523.07L680.84 509.76" stroke="hsla(314.29999999999995, 73.7%, 58.1%, 0.62)" stroke-width="1.5"></path><path d="M551.63 523.07L489.04 651.65" stroke="hsla(314.29999999999995, 73.7%, 58.1%, 0.62)" stroke-width="1.5"></path><path d="M489.04 651.65L489.04 651.65" stroke="hsla(314.29999999999995, 73.7%, 58.1%, 0.62)" stroke-width="1.5"></path><path d="M489.04 651.65L347.39 552.61" stroke="hsla(314.29999999999995, 73.7%, 58.1%, 0.62)" stroke-width="1.5"></path><path d="M680.84 509.76L680.84 509.76" stroke="hsla(314.29999999999995, 73.7%, 58.1%, 0.62)" stroke-width="1.5"></path><path d="M680.84 509.76L840.88 556.05" stroke="hsla(314.29999999999995, 73.7%, 58.1%, 0.62)" stroke-width="1.5"></path><path d="M680.84 509.76L818.15 388.84" stroke="hsla(314.29999999999995, 73.7%, 58.1%, 0.62)" stroke-width="1.5"></path><path d="M680.84 509.76L852.06 661.02" stroke="hsla(314.29999999999995, 73.7%, 58.1%, 0.62)" stroke-width="1.5"></path><path d="M818.15 388.84L818.15 388.84" stroke="hsla(314.29999999999995, 73.7%, 58.1%, 0.62)" stroke-width="1.5"></path><path d="M818.15 388.84L840.88 556.05" stroke="hsla(314.29999999999995, 73.7%, 58.1%, 0.62)" stroke-width="1.5"></path><path d="M818.15 388.84L976.8 541.01" stroke="hsla(314.29999999999995, 73.7%, 58.1%, 0.62)" stroke-width="1.5"></path><path d="M840.88 556.05L840.88 556.05" stroke="hsla(314.29999999999995, 73.7%, 58.1%, 0.62)" stroke-width="1.5"></path><path d="M840.88 556.05L852.06 661.02" stroke="hsla(314.29999999999995, 73.7%, 58.1%, 0.62)" stroke-width="1.5"></path><path d="M840.88 556.05L976.8 541.01" stroke="hsla(314.29999999999995, 73.7%, 58.1%, 0.62)" stroke-width="1.5"></path><path d="M852.06 661.02L852.06 661.02" stroke="hsla(314.29999999999995, 73.7%, 58.1%, 0.62)" stroke-width="1.5"></path><path d="M852.06 661.02L955.58 705.4" stroke="hsla(314.29999999999995, 73.7%, 58.1%, 0.62)" stroke-width="1.5"></path><path d="M852.06 661.02L976.8 541.01" stroke="hsla(314.29999999999995, 73.7%, 58.1%, 0.62)" stroke-width="1.5"></path><path d="M976.8 541.01L976.8 541.01" stroke="hsla(314.29999999999995, 73.7%, 58.1%, 0.62)" stroke-width="1.5"></path><path d="M976.8 541.01L1126.99 535" stroke="hsla(314.29999999999995, 73.7%, 58.1%, 0.62)" stroke-width="1.5"></path><path d="M955.58 705.4L955.58 705.4" stroke="hsla(314.29999999999995, 73.7%, 58.1%, 0.62)" stroke-width="1.5"></path><path d="M955.58 705.4L976.8 541.01" stroke="hsla(314.29999999999995, 73.7%, 58.1%, 0.62)" stroke-width="1.5"></path><path d="M955.58 705.4L840.88 556.05" stroke="hsla(314.29999999999995, 73.7%, 58.1%, 0.62)" stroke-width="1.5"></path><path d="M955.58 705.4L1126.99 535" stroke="hsla(314.29999999999995, 73.7%, 58.1%, 0.62)" stroke-width="1.5"></path><path d="M955.58 705.4L708.18 648.08" stroke="hsla(314.29999999999995, 73.7%, 58.1%, 0.62)" stroke-width="1.5"></path><path d="M1126.27 189.72L1126.27 189.72" stroke="hsla(314.29999999999995, 73.7%, 58.1%, 0.62)" stroke-width="1.5"></path><path d="M1126.27 189.72L1141.2 350.56" stroke="hsla(314.29999999999995, 73.7%, 58.1%, 0.62)" stroke-width="1.5"></path><path d="M1126.27 189.72L1287.62 252.51" stroke="hsla(314.29999999999995, 73.7%, 58.1%, 0.62)" stroke-width="1.5"></path><path d="M1126.27 189.72L1299.64 101.18" stroke="hsla(314.29999999999995, 73.7%, 58.1%, 0.62)" stroke-width="1.5"></path><path d="M1141.2 350.56L1141.2 350.56" stroke="hsla(314.29999999999995, 73.7%, 58.1%, 0.62)" stroke-width="1.5"></path><path d="M1141.2 350.56L1274.96 387.31" stroke="hsla(314.29999999999995, 73.7%, 58.1%, 0.62)" stroke-width="1.5"></path><path d="M1141.2 350.56L1287.62 252.51" stroke="hsla(314.29999999999995, 73.7%, 58.1%, 0.62)" stroke-width="1.5"></path><path d="M1141.2 350.56L1126.99 535" stroke="hsla(314.29999999999995, 73.7%, 58.1%, 0.62)" stroke-width="1.5"></path><path d="M1126.99 535L1126.99 535" stroke="hsla(314.29999999999995, 73.7%, 58.1%, 0.62)" stroke-width="1.5"></path><path d="M1126.99 535L1256.47 519.16" stroke="hsla(314.29999999999995, 73.7%, 58.1%, 0.62)" stroke-width="1.5"></path><path d="M1266.34 -67.3L1266.34 -67.3" stroke="hsla(314.29999999999995, 73.7%, 58.1%, 0.62)" stroke-width="1.5"></path><path d="M1266.34 -67.3L1299.64 101.18" stroke="hsla(314.29999999999995, 73.7%, 58.1%, 0.62)" stroke-width="1.5"></path><path d="M1266.34 -67.3L1462 50" stroke="hsla(314.29999999999995, 73.7%, 58.1%, 0.62)" stroke-width="1.5"></path><path d="M1299.64 101.18L1299.64 101.18" stroke="hsla(314.29999999999995, 73.7%, 58.1%, 0.62)" stroke-width="1.5"></path><path d="M1299.64 101.18L1287.62 252.51" stroke="hsla(314.29999999999995, 73.7%, 58.1%, 0.62)" stroke-width="1.5"></path><path d="M1299.64 101.18L1423.08 192.43" stroke="hsla(314.29999999999995, 73.7%, 58.1%, 0.62)" stroke-width="1.5"></path><path d="M1299.64 101.18L1462 50" stroke="hsla(314.29999999999995, 73.7%, 58.1%, 0.62)" stroke-width="1.5"></path><path d="M1287.62 252.51L1287.62 252.51" stroke="hsla(314.29999999999995, 73.7%, 58.1%, 0.62)" stroke-width="1.5"></path><path d="M1287.62 252.51L1274.96 387.31" stroke="hsla(314.29999999999995, 73.7%, 58.1%, 0.62)" stroke-width="1.5"></path><path d="M1287.62 252.51L1423.08 192.43" stroke="hsla(314.29999999999995, 73.7%, 58.1%, 0.62)" stroke-width="1.5"></path><path d="M1274.96 387.31L1274.96 387.31" stroke="hsla(314.29999999999995, 73.7%, 58.1%, 0.62)" stroke-width="1.5"></path><path d="M1274.96 387.31L1256.47 519.16" stroke="hsla(314.29999999999995, 73.7%, 58.1%, 0.62)" stroke-width="1.5"></path><path d="M1256.47 519.16L1256.47 519.16" stroke="hsla(314.29999999999995, 73.7%, 58.1%, 0.62)" stroke-width="1.5"></path><path d="M1256.47 519.16L1309.11 676.63" stroke="hsla(314.29999999999995, 73.7%, 58.1%, 0.62)" stroke-width="1.5"></path><path d="M1256.47 519.16L1458.08 550.24" stroke="hsla(314.29999999999995, 73.7%, 58.1%, 0.62)" stroke-width="1.5"></path><path d="M1256.47 519.16L1141.2 350.56" stroke="hsla(314.29999999999995, 73.7%, 58.1%, 0.62)" stroke-width="1.5"></path><path d="M1309.11 676.63L1309.11 676.63" stroke="hsla(314.29999999999995, 73.7%, 58.1%, 0.62)" stroke-width="1.5"></path><path d="M1309.11 676.63L1391.44 702.31" stroke="hsla(314.29999999999995, 73.7%, 58.1%, 0.62)" stroke-width="1.5"></path><path d="M1309.11 676.63L1458.08 550.24" stroke="hsla(314.29999999999995, 73.7%, 58.1%, 0.62)" stroke-width="1.5"></path><path d="M1462 50L1462 50" stroke="hsla(314.29999999999995, 73.7%, 58.1%, 0.62)" stroke-width="1.5"></path><path d="M1462 50L1552.01 104.6" stroke="hsla(314.29999999999995, 73.7%, 58.1%, 0.62)" stroke-width="1.5"></path><path d="M1462 50L1423.08 192.43" stroke="hsla(314.29999999999995, 73.7%, 58.1%, 0.62)" stroke-width="1.5"></path><path d="M1423.08 192.43L1423.08 192.43" stroke="hsla(314.29999999999995, 73.7%, 58.1%, 0.62)" stroke-width="1.5"></path><path d="M1423.08 192.43L1552.01 104.6" stroke="hsla(314.29999999999995, 73.7%, 58.1%, 0.62)" stroke-width="1.5"></path><path d="M1423.08 192.43L1443.12 360.88" stroke="hsla(314.29999999999995, 73.7%, 58.1%, 0.62)" stroke-width="1.5"></path><path d="M1443.12 360.88L1443.12 360.88" stroke="hsla(314.29999999999995, 73.7%, 58.1%, 0.62)" stroke-width="1.5"></path><path d="M1443.12 360.88L1581.2 340.8" stroke="hsla(314.29999999999995, 73.7%, 58.1%, 0.62)" stroke-width="1.5"></path><path d="M1443.12 360.88L1274.96 387.31" stroke="hsla(314.29999999999995, 73.7%, 58.1%, 0.62)" stroke-width="1.5"></path><path d="M1458.08 550.24L1458.08 550.24" stroke="hsla(314.29999999999995, 73.7%, 58.1%, 0.62)" stroke-width="1.5"></path><path d="M1458.08 550.24L1585.69 557.57" stroke="hsla(314.29999999999995, 73.7%, 58.1%, 0.62)" stroke-width="1.5"></path><path d="M1458.08 550.24L1543.2 672.06" stroke="hsla(314.29999999999995, 73.7%, 58.1%, 0.62)" stroke-width="1.5"></path><path d="M1458.08 550.24L1391.44 702.31" stroke="hsla(314.29999999999995, 73.7%, 58.1%, 0.62)" stroke-width="1.5"></path><path d="M1458.08 550.24L1443.12 360.88" stroke="hsla(314.29999999999995, 73.7%, 58.1%, 0.62)" stroke-width="1.5"></path><path d="M1391.44 702.31L1391.44 702.31" stroke="hsla(314.29999999999995, 73.7%, 58.1%, 0.62)" stroke-width="1.5"></path><path d="M1391.44 702.31L1543.2 672.06" stroke="hsla(314.29999999999995, 73.7%, 58.1%, 0.62)" stroke-width="1.5"></path><path d="M1391.44 702.31L1256.47 519.16" stroke="hsla(314.29999999999995, 73.7%, 58.1%, 0.62)" stroke-width="1.5"></path><path d="M1391.44 702.31L1585.69 557.57" stroke="hsla(314.29999999999995, 73.7%, 58.1%, 0.62)" stroke-width="1.5"></path><path d="M1391.44 702.31L1128.55 653.63" stroke="hsla(314.29999999999995, 73.7%, 58.1%, 0.62)" stroke-width="1.5"></path><path d="M1605.18 -87.68L1605.18 -87.68" stroke="hsla(314.29999999999995, 73.7%, 58.1%, 0.62)" stroke-width="1.5"></path><path d="M1605.18 -87.68L1462 50" stroke="hsla(314.29999999999995, 73.7%, 58.1%, 0.62)" stroke-width="1.5"></path><path d="M1605.18 -87.68L1552.01 104.6" stroke="hsla(314.29999999999995, 73.7%, 58.1%, 0.62)" stroke-width="1.5"></path><path d="M1605.18 -87.68L1423.08 192.43" stroke="hsla(314.29999999999995, 73.7%, 58.1%, 0.62)" stroke-width="1.5"></path><path d="M1552.01 104.6L1552.01 104.6" stroke="hsla(314.29999999999995, 73.7%, 58.1%, 0.62)" stroke-width="1.5"></path><path d="M1581.2 340.8L1581.2 340.8" stroke="hsla(314.29999999999995, 73.7%, 58.1%, 0.62)" stroke-width="1.5"></path><path d="M1581.2 340.8L1585.69 557.57" stroke="hsla(314.29999999999995, 73.7%, 58.1%, 0.62)" stroke-width="1.5"></path><path d="M1581.2 340.8L1423.08 192.43" stroke="hsla(314.29999999999995, 73.7%, 58.1%, 0.62)" stroke-width="1.5"></path><path d="M1585.69 557.57L1585.69 557.57" stroke="hsla(314.29999999999995, 73.7%, 58.1%, 0.62)" stroke-width="1.5"></path><path d="M1585.69 557.57L1543.2 672.06" stroke="hsla(314.29999999999995, 73.7%, 58.1%, 0.62)" stroke-width="1.5"></path><path d="M1585.69 557.57L1443.12 360.88" stroke="hsla(314.29999999999995, 73.7%, 58.1%, 0.62)" stroke-width="1.5"></path><path d="M1585.69 557.57L1309.11 676.63" stroke="hsla(314.29999999999995, 73.7%, 58.1%, 0.62)" stroke-width="1.5"></path><path d="M1543.2 672.06L1543.2 672.06" stroke="hsla(314.29999999999995, 73.7%, 58.1%, 0.62)" stroke-width="1.5"></path><path d="M1543.2 672.06L1309.11 676.63" stroke="hsla(314.29999999999995, 73.7%, 58.1%, 0.62)" stroke-width="1.5"></path><circle r="25" cx="68.66" cy="554.23" fill="url(&quot;#SvgjsRadialGradient1637&quot;)"></circle><circle r="25" cx="60.44" cy="655.02" fill="url(&quot;#SvgjsRadialGradient1637&quot;)"></circle><circle r="25" cx="202.38" cy="669.31" fill="url(&quot;#SvgjsRadialGradient1637&quot;)"></circle><circle r="25" cx="655.86" cy="376.39" fill="url(&quot;#SvgjsRadialGradient1637&quot;)"></circle><circle r="25" cx="708.18" cy="648.08" fill="url(&quot;#SvgjsRadialGradient1637&quot;)"></circle><circle r="25" cx="998.77" cy="346.89" fill="url(&quot;#SvgjsRadialGradient1637&quot;)"></circle><circle r="25" cx="1128.55" cy="653.63" fill="url(&quot;#SvgjsRadialGradient1637&quot;)"></circle><circle r="25" cx="1398.81" cy="-99.32" fill="url(&quot;#SvgjsRadialGradient1637&quot;)"></circle><circle r="25" cx="1591.06" cy="250.89" fill="url(&quot;#SvgjsRadialGradient1637&quot;)"></circle><circle r="5" cx="-95.93" cy="495.46" fill="rgba(237, 185, 225, 0.81)"></circle><circle r="5" cx="-92.96" cy="702.55" fill="rgba(237, 185, 225, 0.81)"></circle><circle r="5" cx="230.44" cy="509.86" fill="rgba(237, 185, 225, 0.81)"></circle><circle r="5" cx="347.39" cy="552.61" fill="rgba(237, 185, 225, 0.81)"></circle><circle r="5" cx="357.03" cy="704.24" fill="rgba(237, 185, 225, 0.81)"></circle><circle r="5" cx="551.63" cy="523.07" fill="rgba(237, 185, 225, 0.81)"></circle><circle r="5" cx="489.04" cy="651.65" fill="rgba(237, 185, 225, 0.81)"></circle><circle r="5" cx="680.84" cy="509.76" fill="rgba(237, 185, 225, 0.81)"></circle><circle r="5" cx="818.15" cy="388.84" fill="rgba(237, 185, 225, 0.81)"></circle><circle r="5" cx="840.88" cy="556.05" fill="rgba(237, 185, 225, 0.81)"></circle><circle r="5" cx="852.06" cy="661.02" fill="rgba(237, 185, 225, 0.81)"></circle><circle r="5" cx="976.8" cy="541.01" fill="rgba(237, 185, 225, 0.81)"></circle><circle r="5" cx="955.58" cy="705.4" fill="rgba(237, 185, 225, 0.81)"></circle><circle r="5" cx="1126.27" cy="189.72" fill="rgba(237, 185, 225, 0.81)"></circle><circle r="5" cx="1141.2" cy="350.56" fill="rgba(237, 185, 225, 0.81)"></circle><circle r="5" cx="1126.99" cy="535" fill="rgba(237, 185, 225, 0.81)"></circle><circle r="5" cx="1266.34" cy="-67.3" fill="rgba(237, 185, 225, 0.81)"></circle><circle r="5" cx="1299.64" cy="101.18" fill="rgba(237, 185, 225, 0.81)"></circle><circle r="5" cx="1287.62" cy="252.51" fill="rgba(237, 185, 225, 0.81)"></circle><circle r="5" cx="1274.96" cy="387.31" fill="rgba(237, 185, 225, 0.81)"></circle><circle r="5" cx="1256.47" cy="519.16" fill="rgba(237, 185, 225, 0.81)"></circle><circle r="5" cx="1309.11" cy="676.63" fill="rgba(237, 185, 225, 0.81)"></circle><circle r="5" cx="1462" cy="50" fill="rgba(237, 185, 225, 0.81)"></circle><circle r="5" cx="1423.08" cy="192.43" fill="rgba(237, 185, 225, 0.81)"></circle><circle r="5" cx="1443.12" cy="360.88" fill="rgba(237, 185, 225, 0.81)"></circle><circle r="5" cx="1458.08" cy="550.24" fill="rgba(237, 185, 225, 0.81)"></circle><circle r="5" cx="1391.44" cy="702.31" fill="rgba(237, 185, 225, 0.81)"></circle><circle r="5" cx="1605.18" cy="-87.68" fill="rgba(237, 185, 225, 0.81)"></circle><circle r="5" cx="1552.01" cy="104.6" fill="rgba(237, 185, 225, 0.81)"></circle><circle r="5" cx="1581.2" cy="340.8" fill="rgba(237, 185, 225, 0.81)"></circle><circle r="5" cx="1585.69" cy="557.57" fill="rgba(237, 185, 225, 0.81)"></circle><circle r="5" cx="1543.2" cy="672.06" fill="rgba(237, 185, 225, 0.81)"></circle></g><defs><mask id="SvgjsMask1635"><rect width="1440" height="560" fill="#ffffff"></rect></mask><radialGradient cx="0%" cy="0%" r="1545.06" gradientUnits="userSpaceOnUse" id="SvgjsRadialGradient1636"><stop stop-color="rgba(235, 210, 239, 1)" offset="0.02"></stop><stop stop-color="rgba(248, 102, 179, 1)" offset="1"></stop></radialGradient><radialGradient id="SvgjsRadialGradient1637"><stop stop-color="#ffffff" offset="0.1"></stop><stop stop-color="rgba(198, 30, 158, 0.62)" offset="0.2"></stop><stop stop-color="rgba(198, 30, 158, 0)" offset="1"></stop></radialGradient></defs></svg>