<svg xmlns="http://www.w3.org/2000/svg" version="1.1" xmlns:xlink="http://www.w3.org/1999/xlink" xmlns:svgjs="http://svgjs.dev/svgjs" width="1200" height="630" preserveAspectRatio="none" viewBox="0 0 1200 630"><g mask="url(&quot;#SvgjsMask1063&quot;)" fill="none"><rect width="1200" height="630" x="0" y="0" fill="rgba(255, 255, 255, 1)"></rect><path d="M-110.04 507.77L-110.04 507.77" stroke="rgba(255, 180, 217, 0.49)" stroke-width="1.5"></path><path d="M-110.04 507.77L-40.28 672.37" stroke="rgba(255, 180, 217, 0.49)" stroke-width="1.5"></path><path d="M-110.04 507.77L87.26 502.21" stroke="rgba(255, 180, 217, 0.49)" stroke-width="1.5"></path><path d="M-110.04 507.77L71.4 395.54" stroke="rgba(255, 180, 217, 0.49)" stroke-width="1.5"></path><path d="M-110.04 507.77L102.96 670.78" stroke="rgba(255, 180, 217, 0.49)" stroke-width="1.5"></path><path d="M-110.04 507.77L-106.1 789.32" stroke="rgba(255, 180, 217, 0.49)" stroke-width="1.5"></path><path d="M-40.28 672.37L-40.28 672.37" stroke="rgba(255, 180, 217, 0.49)" stroke-width="1.5"></path><path d="M-40.28 672.37L-106.1 789.32" stroke="rgba(255, 180, 217, 0.49)" stroke-width="1.5"></path><path d="M-40.28 672.37L102.96 670.78" stroke="rgba(255, 180, 217, 0.49)" stroke-width="1.5"></path><path d="M-106.1 789.32L-106.1 789.32" stroke="rgba(255, 180, 217, 0.49)" stroke-width="1.5"></path><path d="M-106.1 789.32L78.27 851.58" stroke="rgba(255, 180, 217, 0.49)" stroke-width="1.5"></path><path d="M-106.1 789.32L102.96 670.78" stroke="rgba(255, 180, 217, 0.49)" stroke-width="1.5"></path><path d="M71.4 395.54L71.4 395.54" stroke="rgba(255, 180, 217, 0.49)" stroke-width="1.5"></path><path d="M71.4 395.54L87.26 502.21" stroke="rgba(255, 180, 217, 0.49)" stroke-width="1.5"></path><path d="M71.4 395.54L206.15 365.09" stroke="rgba(255, 180, 217, 0.49)" stroke-width="1.5"></path><path d="M71.4 395.54L236.3 510.02" stroke="rgba(255, 180, 217, 0.49)" stroke-width="1.5"></path><path d="M87.26 502.21L87.26 502.21" stroke="rgba(255, 180, 217, 0.49)" stroke-width="1.5"></path><path d="M87.26 502.21L236.3 510.02" stroke="rgba(255, 180, 217, 0.49)" stroke-width="1.5"></path><path d="M87.26 502.21L102.96 670.78" stroke="rgba(255, 180, 217, 0.49)" stroke-width="1.5"></path><path d="M87.26 502.21L206.15 365.09" stroke="rgba(255, 180, 217, 0.49)" stroke-width="1.5"></path><path d="M102.96 670.78L102.96 670.78" stroke="rgba(255, 180, 217, 0.49)" stroke-width="1.5"></path><path d="M102.96 670.78L248.41 689.48" stroke="rgba(255, 180, 217, 0.49)" stroke-width="1.5"></path><path d="M78.27 851.58L78.27 851.58" stroke="rgba(255, 180, 217, 0.49)" stroke-width="1.5"></path><path d="M78.27 851.58L228.2 828.22" stroke="rgba(255, 180, 217, 0.49)" stroke-width="1.5"></path><path d="M78.27 851.58L102.96 670.78" stroke="rgba(255, 180, 217, 0.49)" stroke-width="1.5"></path><path d="M78.27 851.58L-40.28 672.37" stroke="rgba(255, 180, 217, 0.49)" stroke-width="1.5"></path><path d="M78.27 851.58L248.41 689.48" stroke="rgba(255, 180, 217, 0.49)" stroke-width="1.5"></path><path d="M206.15 365.09L206.15 365.09" stroke="rgba(255, 180, 217, 0.49)" stroke-width="1.5"></path><path d="M206.15 365.09L236.3 510.02" stroke="rgba(255, 180, 217, 0.49)" stroke-width="1.5"></path><path d="M236.3 510.02L236.3 510.02" stroke="rgba(255, 180, 217, 0.49)" stroke-width="1.5"></path><path d="M236.3 510.02L338.92 530.83" stroke="rgba(255, 180, 217, 0.49)" stroke-width="1.5"></path><path d="M248.41 689.48L248.41 689.48" stroke="rgba(255, 180, 217, 0.49)" stroke-width="1.5"></path><path d="M248.41 689.48L342.71 654.36" stroke="rgba(255, 180, 217, 0.49)" stroke-width="1.5"></path><path d="M248.41 689.48L228.2 828.22" stroke="rgba(255, 180, 217, 0.49)" stroke-width="1.5"></path><path d="M248.41 689.48L367.2 804.25" stroke="rgba(255, 180, 217, 0.49)" stroke-width="1.5"></path><path d="M248.41 689.48L236.3 510.02" stroke="rgba(255, 180, 217, 0.49)" stroke-width="1.5"></path><path d="M228.2 828.22L228.2 828.22" stroke="rgba(255, 180, 217, 0.49)" stroke-width="1.5"></path><path d="M228.2 828.22L367.2 804.25" stroke="rgba(255, 180, 217, 0.49)" stroke-width="1.5"></path><path d="M228.2 828.22L102.96 670.78" stroke="rgba(255, 180, 217, 0.49)" stroke-width="1.5"></path><path d="M228.2 828.22L342.71 654.36" stroke="rgba(255, 180, 217, 0.49)" stroke-width="1.5"></path><path d="M390.11 409.3L390.11 409.3" stroke="rgba(255, 180, 217, 0.49)" stroke-width="1.5"></path><path d="M390.11 409.3L513.52 375.58" stroke="rgba(255, 180, 217, 0.49)" stroke-width="1.5"></path><path d="M390.11 409.3L338.92 530.83" stroke="rgba(255, 180, 217, 0.49)" stroke-width="1.5"></path><path d="M390.11 409.3L514.91 491.48" stroke="rgba(255, 180, 217, 0.49)" stroke-width="1.5"></path><path d="M338.92 530.83L338.92 530.83" stroke="rgba(255, 180, 217, 0.49)" stroke-width="1.5"></path><path d="M338.92 530.83L342.71 654.36" stroke="rgba(255, 180, 217, 0.49)" stroke-width="1.5"></path><path d="M342.71 654.36L342.71 654.36" stroke="rgba(255, 180, 217, 0.49)" stroke-width="1.5"></path><path d="M342.71 654.36L367.2 804.25" stroke="rgba(255, 180, 217, 0.49)" stroke-width="1.5"></path><path d="M342.71 654.36L236.3 510.02" stroke="rgba(255, 180, 217, 0.49)" stroke-width="1.5"></path><path d="M367.2 804.25L367.2 804.25" stroke="rgba(255, 180, 217, 0.49)" stroke-width="1.5"></path><path d="M367.2 804.25L504.92 849.72" stroke="rgba(255, 180, 217, 0.49)" stroke-width="1.5"></path><path d="M367.2 804.25L558.78 645.64" stroke="rgba(255, 180, 217, 0.49)" stroke-width="1.5"></path><path d="M367.2 804.25L338.92 530.83" stroke="rgba(255, 180, 217, 0.49)" stroke-width="1.5"></path><path d="M513.52 375.58L513.52 375.58" stroke="rgba(255, 180, 217, 0.49)" stroke-width="1.5"></path><path d="M513.52 375.58L514.91 491.48" stroke="rgba(255, 180, 217, 0.49)" stroke-width="1.5"></path><path d="M513.52 375.58L681.49 350.25" stroke="rgba(255, 180, 217, 0.49)" stroke-width="1.5"></path><path d="M513.52 375.58L683.67 250.86" stroke="rgba(255, 180, 217, 0.49)" stroke-width="1.5"></path><path d="M513.52 375.58L695.34 497.02" stroke="rgba(255, 180, 217, 0.49)" stroke-width="1.5"></path><path d="M513.52 375.58L338.92 530.83" stroke="rgba(255, 180, 217, 0.49)" stroke-width="1.5"></path><path d="M514.91 491.48L514.91 491.48" stroke="rgba(255, 180, 217, 0.49)" stroke-width="1.5"></path><path d="M514.91 491.48L558.78 645.64" stroke="rgba(255, 180, 217, 0.49)" stroke-width="1.5"></path><path d="M514.91 491.48L338.92 530.83" stroke="rgba(255, 180, 217, 0.49)" stroke-width="1.5"></path><path d="M514.91 491.48L695.34 497.02" stroke="rgba(255, 180, 217, 0.49)" stroke-width="1.5"></path><path d="M514.91 491.48L681.49 350.25" stroke="rgba(255, 180, 217, 0.49)" stroke-width="1.5"></path><path d="M558.78 645.64L558.78 645.64" stroke="rgba(255, 180, 217, 0.49)" stroke-width="1.5"></path><path d="M558.78 645.64L638.8 690.32" stroke="rgba(255, 180, 217, 0.49)" stroke-width="1.5"></path><path d="M558.78 645.64L695.34 497.02" stroke="rgba(255, 180, 217, 0.49)" stroke-width="1.5"></path><path d="M558.78 645.64L504.92 849.72" stroke="rgba(255, 180, 217, 0.49)" stroke-width="1.5"></path><path d="M504.92 849.72L504.92 849.72" stroke="rgba(255, 180, 217, 0.49)" stroke-width="1.5"></path><path d="M504.92 849.72L679.32 851.4" stroke="rgba(255, 180, 217, 0.49)" stroke-width="1.5"></path><path d="M683.67 250.86L683.67 250.86" stroke="rgba(255, 180, 217, 0.49)" stroke-width="1.5"></path><path d="M683.67 250.86L681.49 350.25" stroke="rgba(255, 180, 217, 0.49)" stroke-width="1.5"></path><path d="M683.67 250.86L802.3 229.73" stroke="rgba(255, 180, 217, 0.49)" stroke-width="1.5"></path><path d="M683.67 250.86L833.46 340.44" stroke="rgba(255, 180, 217, 0.49)" stroke-width="1.5"></path><path d="M683.67 250.86L816.68 107.05" stroke="rgba(255, 180, 217, 0.49)" stroke-width="1.5"></path><path d="M681.49 350.25L681.49 350.25" stroke="rgba(255, 180, 217, 0.49)" stroke-width="1.5"></path><path d="M681.49 350.25L695.34 497.02" stroke="rgba(255, 180, 217, 0.49)" stroke-width="1.5"></path><path d="M681.49 350.25L833.46 340.44" stroke="rgba(255, 180, 217, 0.49)" stroke-width="1.5"></path><path d="M695.34 497.02L695.34 497.02" stroke="rgba(255, 180, 217, 0.49)" stroke-width="1.5"></path><path d="M695.34 497.02L796.42 511.13" stroke="rgba(255, 180, 217, 0.49)" stroke-width="1.5"></path><path d="M638.8 690.32L638.8 690.32" stroke="rgba(255, 180, 217, 0.49)" stroke-width="1.5"></path><path d="M638.8 690.32L679.32 851.4" stroke="rgba(255, 180, 217, 0.49)" stroke-width="1.5"></path><path d="M638.8 690.32L695.34 497.02" stroke="rgba(255, 180, 217, 0.49)" stroke-width="1.5"></path><path d="M638.8 690.32L504.92 849.72" stroke="rgba(255, 180, 217, 0.49)" stroke-width="1.5"></path><path d="M679.32 851.4L679.32 851.4" stroke="rgba(255, 180, 217, 0.49)" stroke-width="1.5"></path><path d="M679.32 851.4L855.76 831.42" stroke="rgba(255, 180, 217, 0.49)" stroke-width="1.5"></path><path d="M818.69 -84.48L818.69 -84.48" stroke="rgba(255, 180, 217, 0.49)" stroke-width="1.5"></path><path d="M818.69 -84.48L955.03 -80.08" stroke="rgba(255, 180, 217, 0.49)" stroke-width="1.5"></path><path d="M818.69 -84.48L816.68 107.05" stroke="rgba(255, 180, 217, 0.49)" stroke-width="1.5"></path><path d="M818.69 -84.48L957.34 91.81" stroke="rgba(255, 180, 217, 0.49)" stroke-width="1.5"></path><path d="M818.69 -84.48L1117.08 -96.75" stroke="rgba(255, 180, 217, 0.49)" stroke-width="1.5"></path><path d="M818.69 -84.48L802.3 229.73" stroke="rgba(255, 180, 217, 0.49)" stroke-width="1.5"></path><path d="M818.69 -84.48L1100.9 59.12" stroke="rgba(255, 180, 217, 0.49)" stroke-width="1.5"></path><path d="M816.68 107.05L816.68 107.05" stroke="rgba(255, 180, 217, 0.49)" stroke-width="1.5"></path><path d="M816.68 107.05L802.3 229.73" stroke="rgba(255, 180, 217, 0.49)" stroke-width="1.5"></path><path d="M816.68 107.05L957.34 91.81" stroke="rgba(255, 180, 217, 0.49)" stroke-width="1.5"></path><path d="M816.68 107.05L1006.21 234.34" stroke="rgba(255, 180, 217, 0.49)" stroke-width="1.5"></path><path d="M816.68 107.05L955.03 -80.08" stroke="rgba(255, 180, 217, 0.49)" stroke-width="1.5"></path><path d="M802.3 229.73L802.3 229.73" stroke="rgba(255, 180, 217, 0.49)" stroke-width="1.5"></path><path d="M802.3 229.73L833.46 340.44" stroke="rgba(255, 180, 217, 0.49)" stroke-width="1.5"></path><path d="M802.3 229.73L681.49 350.25" stroke="rgba(255, 180, 217, 0.49)" stroke-width="1.5"></path><path d="M833.46 340.44L833.46 340.44" stroke="rgba(255, 180, 217, 0.49)" stroke-width="1.5"></path><path d="M833.46 340.44L796.42 511.13" stroke="rgba(255, 180, 217, 0.49)" stroke-width="1.5"></path><path d="M833.46 340.44L1006.21 234.34" stroke="rgba(255, 180, 217, 0.49)" stroke-width="1.5"></path><path d="M833.46 340.44L695.34 497.02" stroke="rgba(255, 180, 217, 0.49)" stroke-width="1.5"></path><path d="M796.42 511.13L796.42 511.13" stroke="rgba(255, 180, 217, 0.49)" stroke-width="1.5"></path><path d="M796.42 511.13L849.84 669.32" stroke="rgba(255, 180, 217, 0.49)" stroke-width="1.5"></path><path d="M796.42 511.13L982.19 494.41" stroke="rgba(255, 180, 217, 0.49)" stroke-width="1.5"></path><path d="M796.42 511.13L681.49 350.25" stroke="rgba(255, 180, 217, 0.49)" stroke-width="1.5"></path><path d="M796.42 511.13L638.8 690.32" stroke="rgba(255, 180, 217, 0.49)" stroke-width="1.5"></path><path d="M849.84 669.32L849.84 669.32" stroke="rgba(255, 180, 217, 0.49)" stroke-width="1.5"></path><path d="M849.84 669.32L969.23 679.24" stroke="rgba(255, 180, 217, 0.49)" stroke-width="1.5"></path><path d="M849.84 669.32L855.76 831.42" stroke="rgba(255, 180, 217, 0.49)" stroke-width="1.5"></path><path d="M849.84 669.32L980.24 823.91" stroke="rgba(255, 180, 217, 0.49)" stroke-width="1.5"></path><path d="M855.76 831.42L855.76 831.42" stroke="rgba(255, 180, 217, 0.49)" stroke-width="1.5"></path><path d="M855.76 831.42L980.24 823.91" stroke="rgba(255, 180, 217, 0.49)" stroke-width="1.5"></path><path d="M855.76 831.42L969.23 679.24" stroke="rgba(255, 180, 217, 0.49)" stroke-width="1.5"></path><path d="M855.76 831.42L1099.66 799.85" stroke="rgba(255, 180, 217, 0.49)" stroke-width="1.5"></path><path d="M855.76 831.42L638.8 690.32" stroke="rgba(255, 180, 217, 0.49)" stroke-width="1.5"></path><path d="M955.03 -80.08L955.03 -80.08" stroke="rgba(255, 180, 217, 0.49)" stroke-width="1.5"></path><path d="M955.03 -80.08L1117.08 -96.75" stroke="rgba(255, 180, 217, 0.49)" stroke-width="1.5"></path><path d="M955.03 -80.08L957.34 91.81" stroke="rgba(255, 180, 217, 0.49)" stroke-width="1.5"></path><path d="M955.03 -80.08L1100.9 59.12" stroke="rgba(255, 180, 217, 0.49)" stroke-width="1.5"></path><path d="M957.34 91.81L957.34 91.81" stroke="rgba(255, 180, 217, 0.49)" stroke-width="1.5"></path><path d="M957.34 91.81L1100.9 59.12" stroke="rgba(255, 180, 217, 0.49)" stroke-width="1.5"></path><path d="M957.34 91.81L1006.21 234.34" stroke="rgba(255, 180, 217, 0.49)" stroke-width="1.5"></path><path d="M1006.21 234.34L1006.21 234.34" stroke="rgba(255, 180, 217, 0.49)" stroke-width="1.5"></path><path d="M1006.21 234.34L1127.76 200.7" stroke="rgba(255, 180, 217, 0.49)" stroke-width="1.5"></path><path d="M1006.21 234.34L1100.9 59.12" stroke="rgba(255, 180, 217, 0.49)" stroke-width="1.5"></path><path d="M982.19 494.41L982.19 494.41" stroke="rgba(255, 180, 217, 0.49)" stroke-width="1.5"></path><path d="M982.19 494.41L1155.18 499.81" stroke="rgba(255, 180, 217, 0.49)" stroke-width="1.5"></path><path d="M982.19 494.41L969.23 679.24" stroke="rgba(255, 180, 217, 0.49)" stroke-width="1.5"></path><path d="M969.23 679.24L969.23 679.24" stroke="rgba(255, 180, 217, 0.49)" stroke-width="1.5"></path><path d="M969.23 679.24L980.24 823.91" stroke="rgba(255, 180, 217, 0.49)" stroke-width="1.5"></path><path d="M969.23 679.24L1125.04 664.88" stroke="rgba(255, 180, 217, 0.49)" stroke-width="1.5"></path><path d="M980.24 823.91L980.24 823.91" stroke="rgba(255, 180, 217, 0.49)" stroke-width="1.5"></path><path d="M980.24 823.91L1099.66 799.85" stroke="rgba(255, 180, 217, 0.49)" stroke-width="1.5"></path><path d="M980.24 823.91L1125.04 664.88" stroke="rgba(255, 180, 217, 0.49)" stroke-width="1.5"></path><path d="M980.24 823.91L1245.62 826.62" stroke="rgba(255, 180, 217, 0.49)" stroke-width="1.5"></path><path d="M1117.08 -96.75L1117.08 -96.75" stroke="rgba(255, 180, 217, 0.49)" stroke-width="1.5"></path><path d="M1117.08 -96.75L1100.9 59.12" stroke="rgba(255, 180, 217, 0.49)" stroke-width="1.5"></path><path d="M1117.08 -96.75L1281.85 -65.25" stroke="rgba(255, 180, 217, 0.49)" stroke-width="1.5"></path><path d="M1117.08 -96.75L1237.54 95.48" stroke="rgba(255, 180, 217, 0.49)" stroke-width="1.5"></path><path d="M1100.9 59.12L1100.9 59.12" stroke="rgba(255, 180, 217, 0.49)" stroke-width="1.5"></path><path d="M1100.9 59.12L1237.54 95.48" stroke="rgba(255, 180, 217, 0.49)" stroke-width="1.5"></path><path d="M1100.9 59.12L1127.76 200.7" stroke="rgba(255, 180, 217, 0.49)" stroke-width="1.5"></path><path d="M1127.76 200.7L1127.76 200.7" stroke="rgba(255, 180, 217, 0.49)" stroke-width="1.5"></path><path d="M1127.76 200.7L1258.62 229.09" stroke="rgba(255, 180, 217, 0.49)" stroke-width="1.5"></path><path d="M1127.76 200.7L1237.54 95.48" stroke="rgba(255, 180, 217, 0.49)" stroke-width="1.5"></path><path d="M1127.76 200.7L1151.48 384.49" stroke="rgba(255, 180, 217, 0.49)" stroke-width="1.5"></path><path d="M1127.76 200.7L957.34 91.81" stroke="rgba(255, 180, 217, 0.49)" stroke-width="1.5"></path><path d="M1151.48 384.49L1151.48 384.49" stroke="rgba(255, 180, 217, 0.49)" stroke-width="1.5"></path><path d="M1151.48 384.49L1248.82 405.61" stroke="rgba(255, 180, 217, 0.49)" stroke-width="1.5"></path><path d="M1151.48 384.49L1155.18 499.81" stroke="rgba(255, 180, 217, 0.49)" stroke-width="1.5"></path><path d="M1155.18 499.81L1155.18 499.81" stroke="rgba(255, 180, 217, 0.49)" stroke-width="1.5"></path><path d="M1155.18 499.81L1244.4 494.49" stroke="rgba(255, 180, 217, 0.49)" stroke-width="1.5"></path><path d="M1155.18 499.81L1248.82 405.61" stroke="rgba(255, 180, 217, 0.49)" stroke-width="1.5"></path><path d="M1155.18 499.81L1125.04 664.88" stroke="rgba(255, 180, 217, 0.49)" stroke-width="1.5"></path><path d="M1125.04 664.88L1125.04 664.88" stroke="rgba(255, 180, 217, 0.49)" stroke-width="1.5"></path><path d="M1125.04 664.88L1244.66 670.09" stroke="rgba(255, 180, 217, 0.49)" stroke-width="1.5"></path><path d="M1125.04 664.88L1099.66 799.85" stroke="rgba(255, 180, 217, 0.49)" stroke-width="1.5"></path><path d="M1099.66 799.85L1099.66 799.85" stroke="rgba(255, 180, 217, 0.49)" stroke-width="1.5"></path><path d="M1281.85 -65.25L1281.85 -65.25" stroke="rgba(255, 180, 217, 0.49)" stroke-width="1.5"></path><path d="M1281.85 -65.25L1237.54 95.48" stroke="rgba(255, 180, 217, 0.49)" stroke-width="1.5"></path><path d="M1281.85 -65.25L1100.9 59.12" stroke="rgba(255, 180, 217, 0.49)" stroke-width="1.5"></path><path d="M1281.85 -65.25L1258.62 229.09" stroke="rgba(255, 180, 217, 0.49)" stroke-width="1.5"></path><path d="M1281.85 -65.25L1127.76 200.7" stroke="rgba(255, 180, 217, 0.49)" stroke-width="1.5"></path><path d="M1281.85 -65.25L955.03 -80.08" stroke="rgba(255, 180, 217, 0.49)" stroke-width="1.5"></path><path d="M1237.54 95.48L1237.54 95.48" stroke="rgba(255, 180, 217, 0.49)" stroke-width="1.5"></path><path d="M1237.54 95.48L1258.62 229.09" stroke="rgba(255, 180, 217, 0.49)" stroke-width="1.5"></path><path d="M1258.62 229.09L1258.62 229.09" stroke="rgba(255, 180, 217, 0.49)" stroke-width="1.5"></path><path d="M1248.82 405.61L1248.82 405.61" stroke="rgba(255, 180, 217, 0.49)" stroke-width="1.5"></path><path d="M1248.82 405.61L1244.4 494.49" stroke="rgba(255, 180, 217, 0.49)" stroke-width="1.5"></path><path d="M1248.82 405.61L1258.62 229.09" stroke="rgba(255, 180, 217, 0.49)" stroke-width="1.5"></path><path d="M1244.4 494.49L1244.4 494.49" stroke="rgba(255, 180, 217, 0.49)" stroke-width="1.5"></path><path d="M1244.4 494.49L1151.48 384.49" stroke="rgba(255, 180, 217, 0.49)" stroke-width="1.5"></path><path d="M1244.4 494.49L1244.66 670.09" stroke="rgba(255, 180, 217, 0.49)" stroke-width="1.5"></path><path d="M1244.4 494.49L1125.04 664.88" stroke="rgba(255, 180, 217, 0.49)" stroke-width="1.5"></path><path d="M1244.66 670.09L1244.66 670.09" stroke="rgba(255, 180, 217, 0.49)" stroke-width="1.5"></path><path d="M1244.66 670.09L1245.62 826.62" stroke="rgba(255, 180, 217, 0.49)" stroke-width="1.5"></path><path d="M1244.66 670.09L1155.18 499.81" stroke="rgba(255, 180, 217, 0.49)" stroke-width="1.5"></path><path d="M1244.66 670.09L1099.66 799.85" stroke="rgba(255, 180, 217, 0.49)" stroke-width="1.5"></path><path d="M1244.66 670.09L1248.82 405.61" stroke="rgba(255, 180, 217, 0.49)" stroke-width="1.5"></path><path d="M1245.62 826.62L1245.62 826.62" stroke="rgba(255, 180, 217, 0.49)" stroke-width="1.5"></path><path d="M1245.62 826.62L1099.66 799.85" stroke="rgba(255, 180, 217, 0.49)" stroke-width="1.5"></path><path d="M1245.62 826.62L1125.04 664.88" stroke="rgba(255, 180, 217, 0.49)" stroke-width="1.5"></path><path d="M1245.62 826.62L969.23 679.24" stroke="rgba(255, 180, 217, 0.49)" stroke-width="1.5"></path><path d="M1245.62 826.62L1244.4 494.49" stroke="rgba(255, 180, 217, 0.49)" stroke-width="1.5"></path><circle r="5" cx="-110.04" cy="507.77" fill="rgba(255, 180, 217, 0.49)"></circle><circle r="5" cx="-40.28" cy="672.37" fill="rgba(255, 180, 217, 0.49)"></circle><circle r="5" cx="-106.1" cy="789.32" fill="rgba(255, 180, 217, 0.49)"></circle><circle r="5" cx="71.4" cy="395.54" fill="rgba(255, 180, 217, 0.49)"></circle><circle r="5" cx="87.26" cy="502.21" fill="rgba(255, 180, 217, 0.49)"></circle><circle r="5" cx="102.96" cy="670.78" fill="rgba(255, 180, 217, 0.49)"></circle><circle r="5" cx="78.27" cy="851.58" fill="rgba(255, 180, 217, 0.49)"></circle><circle r="5" cx="206.15" cy="365.09" fill="rgba(255, 180, 217, 0.49)"></circle><circle r="5" cx="236.3" cy="510.02" fill="rgba(255, 180, 217, 0.49)"></circle><circle r="5" cx="248.41" cy="689.48" fill="rgba(255, 180, 217, 0.49)"></circle><circle r="5" cx="228.2" cy="828.22" fill="rgba(255, 180, 217, 0.49)"></circle><circle r="5" cx="390.11" cy="409.3" fill="rgba(255, 180, 217, 0.49)"></circle><circle r="5" cx="338.92" cy="530.83" fill="rgba(255, 180, 217, 0.49)"></circle><circle r="5" cx="342.71" cy="654.36" fill="rgba(255, 180, 217, 0.49)"></circle><circle r="5" cx="367.2" cy="804.25" fill="rgba(255, 180, 217, 0.49)"></circle><circle r="5" cx="513.52" cy="375.58" fill="rgba(255, 180, 217, 0.49)"></circle><circle r="5" cx="514.91" cy="491.48" fill="rgba(255, 180, 217, 0.49)"></circle><circle r="5" cx="558.78" cy="645.64" fill="rgba(255, 180, 217, 0.49)"></circle><circle r="5" cx="504.92" cy="849.72" fill="rgba(255, 180, 217, 0.49)"></circle><circle r="5" cx="683.67" cy="250.86" fill="rgba(255, 180, 217, 0.49)"></circle><circle r="5" cx="681.49" cy="350.25" fill="rgba(255, 180, 217, 0.49)"></circle><circle r="5" cx="695.34" cy="497.02" fill="rgba(255, 180, 217, 0.49)"></circle><circle r="5" cx="638.8" cy="690.32" fill="rgba(255, 180, 217, 0.49)"></circle><circle r="5" cx="679.32" cy="851.4" fill="rgba(255, 180, 217, 0.49)"></circle><circle r="5" cx="818.69" cy="-84.48" fill="rgba(255, 180, 217, 0.49)"></circle><circle r="5" cx="816.68" cy="107.05" fill="rgba(255, 180, 217, 0.49)"></circle><circle r="5" cx="802.3" cy="229.73" fill="rgba(255, 180, 217, 0.49)"></circle><circle r="5" cx="833.46" cy="340.44" fill="rgba(255, 180, 217, 0.49)"></circle><circle r="5" cx="796.42" cy="511.13" fill="rgba(255, 180, 217, 0.49)"></circle><circle r="5" cx="849.84" cy="669.32" fill="rgba(255, 180, 217, 0.49)"></circle><circle r="5" cx="855.76" cy="831.42" fill="rgba(255, 180, 217, 0.49)"></circle><circle r="5" cx="955.03" cy="-80.08" fill="rgba(255, 180, 217, 0.49)"></circle><circle r="5" cx="957.34" cy="91.81" fill="rgba(255, 180, 217, 0.49)"></circle><circle r="5" cx="1006.21" cy="234.34" fill="rgba(255, 180, 217, 0.49)"></circle><circle r="5" cx="982.19" cy="494.41" fill="rgba(255, 180, 217, 0.49)"></circle><circle r="5" cx="969.23" cy="679.24" fill="rgba(255, 180, 217, 0.49)"></circle><circle r="5" cx="980.24" cy="823.91" fill="rgba(255, 180, 217, 0.49)"></circle><circle r="5" cx="1117.08" cy="-96.75" fill="rgba(255, 180, 217, 0.49)"></circle><circle r="5" cx="1100.9" cy="59.12" fill="rgba(255, 180, 217, 0.49)"></circle><circle r="5" cx="1127.76" cy="200.7" fill="rgba(255, 180, 217, 0.49)"></circle><circle r="5" cx="1151.48" cy="384.49" fill="rgba(255, 180, 217, 0.49)"></circle><circle r="5" cx="1155.18" cy="499.81" fill="rgba(255, 180, 217, 0.49)"></circle><circle r="5" cx="1125.04" cy="664.88" fill="rgba(255, 180, 217, 0.49)"></circle><circle r="5" cx="1099.66" cy="799.85" fill="rgba(255, 180, 217, 0.49)"></circle><circle r="5" cx="1281.85" cy="-65.25" fill="rgba(255, 180, 217, 0.49)"></circle><circle r="5" cx="1237.54" cy="95.48" fill="rgba(255, 180, 217, 0.49)"></circle><circle r="5" cx="1258.62" cy="229.09" fill="rgba(255, 180, 217, 0.49)"></circle><circle r="5" cx="1248.82" cy="405.61" fill="rgba(255, 180, 217, 0.49)"></circle><circle r="5" cx="1244.4" cy="494.49" fill="rgba(255, 180, 217, 0.49)"></circle><circle r="5" cx="1244.66" cy="670.09" fill="rgba(255, 180, 217, 0.49)"></circle><circle r="5" cx="1245.62" cy="826.62" fill="rgba(255, 180, 217, 0.49)"></circle><path d="M509.29 528.23L509.29 528.23" stroke="hsla(314.4, 83.1%, 72.6%, 0.56)" stroke-width="1.5"></path><path d="M509.29 528.23L354.54 507.6" stroke="hsla(314.4, 83.1%, 72.6%, 0.56)" stroke-width="1.5"></path><path d="M509.29 528.23L674.81 525.2" stroke="hsla(314.4, 83.1%, 72.6%, 0.56)" stroke-width="1.5"></path><path d="M509.29 528.23L533.8 698.4" stroke="hsla(314.4, 83.1%, 72.6%, 0.56)" stroke-width="1.5"></path><path d="M509.29 528.23L387.43 670.63" stroke="hsla(314.4, 83.1%, 72.6%, 0.56)" stroke-width="1.5"></path><path d="M509.29 528.23L651.79 663.39" stroke="hsla(314.4, 83.1%, 72.6%, 0.56)" stroke-width="1.5"></path><path d="M533.8 698.4L533.8 698.4" stroke="hsla(314.4, 83.1%, 72.6%, 0.56)" stroke-width="1.5"></path><path d="M533.8 698.4L651.79 663.39" stroke="hsla(314.4, 83.1%, 72.6%, 0.56)" stroke-width="1.5"></path><path d="M533.8 698.4L548.14 825.54" stroke="hsla(314.4, 83.1%, 72.6%, 0.56)" stroke-width="1.5"></path><path d="M533.8 698.4L387.43 670.63" stroke="hsla(314.4, 83.1%, 72.6%, 0.56)" stroke-width="1.5"></path><path d="M533.8 698.4L395.47 833.27" stroke="hsla(314.4, 83.1%, 72.6%, 0.56)" stroke-width="1.5"></path><path d="M655.15 379.82L655.15 379.82" stroke="hsla(314.4, 83.1%, 72.6%, 0.56)" stroke-width="1.5"></path><path d="M655.15 379.82L791.45 388.44" stroke="hsla(314.4, 83.1%, 72.6%, 0.56)" stroke-width="1.5"></path><path d="M655.15 379.82L674.81 525.2" stroke="hsla(314.4, 83.1%, 72.6%, 0.56)" stroke-width="1.5"></path><path d="M975.34 71.62L975.34 71.62" stroke="hsla(314.4, 83.1%, 72.6%, 0.56)" stroke-width="1.5"></path><path d="M975.34 71.62L966.28 -45.18" stroke="hsla(314.4, 83.1%, 72.6%, 0.56)" stroke-width="1.5"></path><path d="M975.34 71.62L993.27 194.21" stroke="hsla(314.4, 83.1%, 72.6%, 0.56)" stroke-width="1.5"></path><path d="M975.34 71.62L1119.28 103.67" stroke="hsla(314.4, 83.1%, 72.6%, 0.56)" stroke-width="1.5"></path><path d="M975.34 71.62L1101.35 197.84" stroke="hsla(314.4, 83.1%, 72.6%, 0.56)" stroke-width="1.5"></path><path d="M937.79 383.93L937.79 383.93" stroke="hsla(314.4, 83.1%, 72.6%, 0.56)" stroke-width="1.5"></path><path d="M937.79 383.93L791.45 388.44" stroke="hsla(314.4, 83.1%, 72.6%, 0.56)" stroke-width="1.5"></path><path d="M937.79 383.93L990.52 542.43" stroke="hsla(314.4, 83.1%, 72.6%, 0.56)" stroke-width="1.5"></path><path d="M937.79 383.93L862.48 538.94" stroke="hsla(314.4, 83.1%, 72.6%, 0.56)" stroke-width="1.5"></path><path d="M937.79 383.93L1117.85 391.68" stroke="hsla(314.4, 83.1%, 72.6%, 0.56)" stroke-width="1.5"></path><path d="M937.79 383.93L993.27 194.21" stroke="hsla(314.4, 83.1%, 72.6%, 0.56)" stroke-width="1.5"></path><path d="M1291.01 797.89L1291.01 797.89" stroke="hsla(314.4, 83.1%, 72.6%, 0.56)" stroke-width="1.5"></path><path d="M1291.01 797.89L1160.62 798.27" stroke="hsla(314.4, 83.1%, 72.6%, 0.56)" stroke-width="1.5"></path><path d="M1291.01 797.89L1238.8 667.91" stroke="hsla(314.4, 83.1%, 72.6%, 0.56)" stroke-width="1.5"></path><path d="M-95.99 548.08L-95.99 548.08" stroke="hsla(314.4, 83.1%, 72.6%, 0.56)" stroke-width="1.5"></path><path d="M-95.99 548.08L-54.33 710.58" stroke="hsla(314.4, 83.1%, 72.6%, 0.56)" stroke-width="1.5"></path><path d="M-54.33 710.58L-54.33 710.58" stroke="hsla(314.4, 83.1%, 72.6%, 0.56)" stroke-width="1.5"></path><path d="M-54.33 710.58L-71.03 840.43" stroke="hsla(314.4, 83.1%, 72.6%, 0.56)" stroke-width="1.5"></path><path d="M-54.33 710.58L66.33 642.6" stroke="hsla(314.4, 83.1%, 72.6%, 0.56)" stroke-width="1.5"></path><path d="M-54.33 710.58L221.95 692.69" stroke="hsla(314.4, 83.1%, 72.6%, 0.56)" stroke-width="1.5"></path><path d="M-54.33 710.58L257.13 825.26" stroke="hsla(314.4, 83.1%, 72.6%, 0.56)" stroke-width="1.5"></path><path d="M-54.33 710.58L222.89 498.21" stroke="hsla(314.4, 83.1%, 72.6%, 0.56)" stroke-width="1.5"></path><path d="M-71.03 840.43L-71.03 840.43" stroke="hsla(314.4, 83.1%, 72.6%, 0.56)" stroke-width="1.5"></path><path d="M-71.03 840.43L66.33 642.6" stroke="hsla(314.4, 83.1%, 72.6%, 0.56)" stroke-width="1.5"></path><path d="M-71.03 840.43L-95.99 548.08" stroke="hsla(314.4, 83.1%, 72.6%, 0.56)" stroke-width="1.5"></path><path d="M66.33 642.6L66.33 642.6" stroke="hsla(314.4, 83.1%, 72.6%, 0.56)" stroke-width="1.5"></path><path d="M66.33 642.6L221.95 692.69" stroke="hsla(314.4, 83.1%, 72.6%, 0.56)" stroke-width="1.5"></path><path d="M66.33 642.6L-95.99 548.08" stroke="hsla(314.4, 83.1%, 72.6%, 0.56)" stroke-width="1.5"></path><path d="M66.33 642.6L222.89 498.21" stroke="hsla(314.4, 83.1%, 72.6%, 0.56)" stroke-width="1.5"></path><path d="M66.33 642.6L257.13 825.26" stroke="hsla(314.4, 83.1%, 72.6%, 0.56)" stroke-width="1.5"></path><path d="M222.89 498.21L222.89 498.21" stroke="hsla(314.4, 83.1%, 72.6%, 0.56)" stroke-width="1.5"></path><path d="M222.89 498.21L354.54 507.6" stroke="hsla(314.4, 83.1%, 72.6%, 0.56)" stroke-width="1.5"></path><path d="M222.89 498.21L221.95 692.69" stroke="hsla(314.4, 83.1%, 72.6%, 0.56)" stroke-width="1.5"></path><path d="M222.89 498.21L387.43 670.63" stroke="hsla(314.4, 83.1%, 72.6%, 0.56)" stroke-width="1.5"></path><path d="M222.89 498.21L509.29 528.23" stroke="hsla(314.4, 83.1%, 72.6%, 0.56)" stroke-width="1.5"></path><path d="M222.89 498.21L-95.99 548.08" stroke="hsla(314.4, 83.1%, 72.6%, 0.56)" stroke-width="1.5"></path><path d="M221.95 692.69L221.95 692.69" stroke="hsla(314.4, 83.1%, 72.6%, 0.56)" stroke-width="1.5"></path><path d="M221.95 692.69L257.13 825.26" stroke="hsla(314.4, 83.1%, 72.6%, 0.56)" stroke-width="1.5"></path><path d="M221.95 692.69L387.43 670.63" stroke="hsla(314.4, 83.1%, 72.6%, 0.56)" stroke-width="1.5"></path><path d="M257.13 825.26L257.13 825.26" stroke="hsla(314.4, 83.1%, 72.6%, 0.56)" stroke-width="1.5"></path><path d="M257.13 825.26L395.47 833.27" stroke="hsla(314.4, 83.1%, 72.6%, 0.56)" stroke-width="1.5"></path><path d="M257.13 825.26L387.43 670.63" stroke="hsla(314.4, 83.1%, 72.6%, 0.56)" stroke-width="1.5"></path><path d="M257.13 825.26L548.14 825.54" stroke="hsla(314.4, 83.1%, 72.6%, 0.56)" stroke-width="1.5"></path><path d="M354.54 507.6L354.54 507.6" stroke="hsla(314.4, 83.1%, 72.6%, 0.56)" stroke-width="1.5"></path><path d="M387.43 670.63L387.43 670.63" stroke="hsla(314.4, 83.1%, 72.6%, 0.56)" stroke-width="1.5"></path><path d="M387.43 670.63L395.47 833.27" stroke="hsla(314.4, 83.1%, 72.6%, 0.56)" stroke-width="1.5"></path><path d="M395.47 833.27L395.47 833.27" stroke="hsla(314.4, 83.1%, 72.6%, 0.56)" stroke-width="1.5"></path><path d="M395.47 833.27L548.14 825.54" stroke="hsla(314.4, 83.1%, 72.6%, 0.56)" stroke-width="1.5"></path><path d="M548.14 825.54L548.14 825.54" stroke="hsla(314.4, 83.1%, 72.6%, 0.56)" stroke-width="1.5"></path><path d="M548.14 825.54L672.4 848.49" stroke="hsla(314.4, 83.1%, 72.6%, 0.56)" stroke-width="1.5"></path><path d="M548.14 825.54L651.79 663.39" stroke="hsla(314.4, 83.1%, 72.6%, 0.56)" stroke-width="1.5"></path><path d="M548.14 825.54L387.43 670.63" stroke="hsla(314.4, 83.1%, 72.6%, 0.56)" stroke-width="1.5"></path><path d="M674.81 525.2L674.81 525.2" stroke="hsla(314.4, 83.1%, 72.6%, 0.56)" stroke-width="1.5"></path><path d="M674.81 525.2L651.79 663.39" stroke="hsla(314.4, 83.1%, 72.6%, 0.56)" stroke-width="1.5"></path><path d="M651.79 663.39L651.79 663.39" stroke="hsla(314.4, 83.1%, 72.6%, 0.56)" stroke-width="1.5"></path><path d="M651.79 663.39L810.97 699.25" stroke="hsla(314.4, 83.1%, 72.6%, 0.56)" stroke-width="1.5"></path><path d="M651.79 663.39L672.4 848.49" stroke="hsla(314.4, 83.1%, 72.6%, 0.56)" stroke-width="1.5"></path><path d="M672.4 848.49L672.4 848.49" stroke="hsla(314.4, 83.1%, 72.6%, 0.56)" stroke-width="1.5"></path><path d="M672.4 848.49L802.37 834.89" stroke="hsla(314.4, 83.1%, 72.6%, 0.56)" stroke-width="1.5"></path><path d="M672.4 848.49L810.97 699.25" stroke="hsla(314.4, 83.1%, 72.6%, 0.56)" stroke-width="1.5"></path><path d="M791.45 388.44L791.45 388.44" stroke="hsla(314.4, 83.1%, 72.6%, 0.56)" stroke-width="1.5"></path><path d="M791.45 388.44L862.48 538.94" stroke="hsla(314.4, 83.1%, 72.6%, 0.56)" stroke-width="1.5"></path><path d="M791.45 388.44L674.81 525.2" stroke="hsla(314.4, 83.1%, 72.6%, 0.56)" stroke-width="1.5"></path><path d="M791.45 388.44L990.52 542.43" stroke="hsla(314.4, 83.1%, 72.6%, 0.56)" stroke-width="1.5"></path><path d="M862.48 538.94L862.48 538.94" stroke="hsla(314.4, 83.1%, 72.6%, 0.56)" stroke-width="1.5"></path><path d="M862.48 538.94L990.52 542.43" stroke="hsla(314.4, 83.1%, 72.6%, 0.56)" stroke-width="1.5"></path><path d="M810.97 699.25L810.97 699.25" stroke="hsla(314.4, 83.1%, 72.6%, 0.56)" stroke-width="1.5"></path><path d="M810.97 699.25L802.37 834.89" stroke="hsla(314.4, 83.1%, 72.6%, 0.56)" stroke-width="1.5"></path><path d="M810.97 699.25L965.3 680.77" stroke="hsla(314.4, 83.1%, 72.6%, 0.56)" stroke-width="1.5"></path><path d="M810.97 699.25L862.48 538.94" stroke="hsla(314.4, 83.1%, 72.6%, 0.56)" stroke-width="1.5"></path><path d="M810.97 699.25L940.59 858.3" stroke="hsla(314.4, 83.1%, 72.6%, 0.56)" stroke-width="1.5"></path><path d="M802.37 834.89L802.37 834.89" stroke="hsla(314.4, 83.1%, 72.6%, 0.56)" stroke-width="1.5"></path><path d="M802.37 834.89L940.59 858.3" stroke="hsla(314.4, 83.1%, 72.6%, 0.56)" stroke-width="1.5"></path><path d="M966.28 -45.18L966.28 -45.18" stroke="hsla(314.4, 83.1%, 72.6%, 0.56)" stroke-width="1.5"></path><path d="M966.28 -45.18L1109.63 -95.6" stroke="hsla(314.4, 83.1%, 72.6%, 0.56)" stroke-width="1.5"></path><path d="M966.28 -45.18L1119.28 103.67" stroke="hsla(314.4, 83.1%, 72.6%, 0.56)" stroke-width="1.5"></path><path d="M966.28 -45.18L993.27 194.21" stroke="hsla(314.4, 83.1%, 72.6%, 0.56)" stroke-width="1.5"></path><path d="M993.27 194.21L993.27 194.21" stroke="hsla(314.4, 83.1%, 72.6%, 0.56)" stroke-width="1.5"></path><path d="M993.27 194.21L1101.35 197.84" stroke="hsla(314.4, 83.1%, 72.6%, 0.56)" stroke-width="1.5"></path><path d="M990.52 542.43L990.52 542.43" stroke="hsla(314.4, 83.1%, 72.6%, 0.56)" stroke-width="1.5"></path><path d="M990.52 542.43L965.3 680.77" stroke="hsla(314.4, 83.1%, 72.6%, 0.56)" stroke-width="1.5"></path><path d="M990.52 542.43L1092.74 652.18" stroke="hsla(314.4, 83.1%, 72.6%, 0.56)" stroke-width="1.5"></path><path d="M965.3 680.77L965.3 680.77" stroke="hsla(314.4, 83.1%, 72.6%, 0.56)" stroke-width="1.5"></path><path d="M965.3 680.77L1092.74 652.18" stroke="hsla(314.4, 83.1%, 72.6%, 0.56)" stroke-width="1.5"></path><path d="M965.3 680.77L862.48 538.94" stroke="hsla(314.4, 83.1%, 72.6%, 0.56)" stroke-width="1.5"></path><path d="M965.3 680.77L940.59 858.3" stroke="hsla(314.4, 83.1%, 72.6%, 0.56)" stroke-width="1.5"></path><path d="M940.59 858.3L940.59 858.3" stroke="hsla(314.4, 83.1%, 72.6%, 0.56)" stroke-width="1.5"></path><path d="M940.59 858.3L1160.62 798.27" stroke="hsla(314.4, 83.1%, 72.6%, 0.56)" stroke-width="1.5"></path><path d="M940.59 858.3L1092.74 652.18" stroke="hsla(314.4, 83.1%, 72.6%, 0.56)" stroke-width="1.5"></path><path d="M1109.63 -95.6L1109.63 -95.6" stroke="hsla(314.4, 83.1%, 72.6%, 0.56)" stroke-width="1.5"></path><path d="M1109.63 -95.6L1280.17 -83.79" stroke="hsla(314.4, 83.1%, 72.6%, 0.56)" stroke-width="1.5"></path><path d="M1109.63 -95.6L1119.28 103.67" stroke="hsla(314.4, 83.1%, 72.6%, 0.56)" stroke-width="1.5"></path><path d="M1109.63 -95.6L975.34 71.62" stroke="hsla(314.4, 83.1%, 72.6%, 0.56)" stroke-width="1.5"></path><path d="M1109.63 -95.6L1101.35 197.84" stroke="hsla(314.4, 83.1%, 72.6%, 0.56)" stroke-width="1.5"></path><path d="M1119.28 103.67L1119.28 103.67" stroke="hsla(314.4, 83.1%, 72.6%, 0.56)" stroke-width="1.5"></path><path d="M1119.28 103.67L1101.35 197.84" stroke="hsla(314.4, 83.1%, 72.6%, 0.56)" stroke-width="1.5"></path><path d="M1119.28 103.67L993.27 194.21" stroke="hsla(314.4, 83.1%, 72.6%, 0.56)" stroke-width="1.5"></path><path d="M1119.28 103.67L1281.24 230.41" stroke="hsla(314.4, 83.1%, 72.6%, 0.56)" stroke-width="1.5"></path><path d="M1101.35 197.84L1101.35 197.84" stroke="hsla(314.4, 83.1%, 72.6%, 0.56)" stroke-width="1.5"></path><path d="M1101.35 197.84L1281.24 230.41" stroke="hsla(314.4, 83.1%, 72.6%, 0.56)" stroke-width="1.5"></path><path d="M1101.35 197.84L1117.85 391.68" stroke="hsla(314.4, 83.1%, 72.6%, 0.56)" stroke-width="1.5"></path><path d="M1117.85 391.68L1117.85 391.68" stroke="hsla(314.4, 83.1%, 72.6%, 0.56)" stroke-width="1.5"></path><path d="M1117.85 391.68L1140.93 497.96" stroke="hsla(314.4, 83.1%, 72.6%, 0.56)" stroke-width="1.5"></path><path d="M1117.85 391.68L1260.81 343.32" stroke="hsla(314.4, 83.1%, 72.6%, 0.56)" stroke-width="1.5"></path><path d="M1117.85 391.68L990.52 542.43" stroke="hsla(314.4, 83.1%, 72.6%, 0.56)" stroke-width="1.5"></path><path d="M1140.93 497.96L1140.93 497.96" stroke="hsla(314.4, 83.1%, 72.6%, 0.56)" stroke-width="1.5"></path><path d="M1140.93 497.96L990.52 542.43" stroke="hsla(314.4, 83.1%, 72.6%, 0.56)" stroke-width="1.5"></path><path d="M1140.93 497.96L1092.74 652.18" stroke="hsla(314.4, 83.1%, 72.6%, 0.56)" stroke-width="1.5"></path><path d="M1140.93 497.96L1309.67 554.21" stroke="hsla(314.4, 83.1%, 72.6%, 0.56)" stroke-width="1.5"></path><path d="M1092.74 652.18L1092.74 652.18" stroke="hsla(314.4, 83.1%, 72.6%, 0.56)" stroke-width="1.5"></path><path d="M1092.74 652.18L1238.8 667.91" stroke="hsla(314.4, 83.1%, 72.6%, 0.56)" stroke-width="1.5"></path><path d="M1092.74 652.18L1160.62 798.27" stroke="hsla(314.4, 83.1%, 72.6%, 0.56)" stroke-width="1.5"></path><path d="M1092.74 652.18L1309.67 554.21" stroke="hsla(314.4, 83.1%, 72.6%, 0.56)" stroke-width="1.5"></path><path d="M1160.62 798.27L1160.62 798.27" stroke="hsla(314.4, 83.1%, 72.6%, 0.56)" stroke-width="1.5"></path><path d="M1160.62 798.27L1238.8 667.91" stroke="hsla(314.4, 83.1%, 72.6%, 0.56)" stroke-width="1.5"></path><path d="M1280.17 -83.79L1280.17 -83.79" stroke="hsla(314.4, 83.1%, 72.6%, 0.56)" stroke-width="1.5"></path><path d="M1280.17 -83.79L1119.28 103.67" stroke="hsla(314.4, 83.1%, 72.6%, 0.56)" stroke-width="1.5"></path><path d="M1280.17 -83.79L1281.24 230.41" stroke="hsla(314.4, 83.1%, 72.6%, 0.56)" stroke-width="1.5"></path><path d="M1281.24 230.41L1281.24 230.41" stroke="hsla(314.4, 83.1%, 72.6%, 0.56)" stroke-width="1.5"></path><path d="M1281.24 230.41L1260.81 343.32" stroke="hsla(314.4, 83.1%, 72.6%, 0.56)" stroke-width="1.5"></path><path d="M1281.24 230.41L1117.85 391.68" stroke="hsla(314.4, 83.1%, 72.6%, 0.56)" stroke-width="1.5"></path><path d="M1281.24 230.41L993.27 194.21" stroke="hsla(314.4, 83.1%, 72.6%, 0.56)" stroke-width="1.5"></path><path d="M1281.24 230.41L1140.93 497.96" stroke="hsla(314.4, 83.1%, 72.6%, 0.56)" stroke-width="1.5"></path><path d="M1260.81 343.32L1260.81 343.32" stroke="hsla(314.4, 83.1%, 72.6%, 0.56)" stroke-width="1.5"></path><path d="M1309.67 554.21L1309.67 554.21" stroke="hsla(314.4, 83.1%, 72.6%, 0.56)" stroke-width="1.5"></path><path d="M1309.67 554.21L1238.8 667.91" stroke="hsla(314.4, 83.1%, 72.6%, 0.56)" stroke-width="1.5"></path><path d="M1309.67 554.21L1260.81 343.32" stroke="hsla(314.4, 83.1%, 72.6%, 0.56)" stroke-width="1.5"></path><path d="M1309.67 554.21L1291.01 797.89" stroke="hsla(314.4, 83.1%, 72.6%, 0.56)" stroke-width="1.5"></path><path d="M1309.67 554.21L1117.85 391.68" stroke="hsla(314.4, 83.1%, 72.6%, 0.56)" stroke-width="1.5"></path><path d="M1238.8 667.91L1238.8 667.91" stroke="hsla(314.4, 83.1%, 72.6%, 0.56)" stroke-width="1.5"></path><circle r="25" cx="509.29" cy="528.23" fill="url(&quot;#SvgjsRadialGradient1064&quot;)"></circle><circle r="25" cx="533.8" cy="698.4" fill="url(&quot;#SvgjsRadialGradient1064&quot;)"></circle><circle r="25" cx="655.15" cy="379.82" fill="url(&quot;#SvgjsRadialGradient1064&quot;)"></circle><circle r="25" cx="975.34" cy="71.62" fill="url(&quot;#SvgjsRadialGradient1064&quot;)"></circle><circle r="25" cx="937.79" cy="383.93" fill="url(&quot;#SvgjsRadialGradient1064&quot;)"></circle><circle r="25" cx="1291.01" cy="797.89" fill="url(&quot;#SvgjsRadialGradient1064&quot;)"></circle><circle r="5" cx="-95.99" cy="548.08" fill="rgba(250, 197, 237, 0.78)"></circle><circle r="5" cx="-54.33" cy="710.58" fill="rgba(250, 197, 237, 0.78)"></circle><circle r="5" cx="-71.03" cy="840.43" fill="rgba(250, 197, 237, 0.78)"></circle><circle r="5" cx="66.33" cy="642.6" fill="rgba(250, 197, 237, 0.78)"></circle><circle r="5" cx="222.89" cy="498.21" fill="rgba(250, 197, 237, 0.78)"></circle><circle r="5" cx="221.95" cy="692.69" fill="rgba(250, 197, 237, 0.78)"></circle><circle r="5" cx="257.13" cy="825.26" fill="rgba(250, 197, 237, 0.78)"></circle><circle r="5" cx="354.54" cy="507.6" fill="rgba(250, 197, 237, 0.78)"></circle><circle r="5" cx="387.43" cy="670.63" fill="rgba(250, 197, 237, 0.78)"></circle><circle r="5" cx="395.47" cy="833.27" fill="rgba(250, 197, 237, 0.78)"></circle><circle r="5" cx="548.14" cy="825.54" fill="rgba(250, 197, 237, 0.78)"></circle><circle r="5" cx="674.81" cy="525.2" fill="rgba(250, 197, 237, 0.78)"></circle><circle r="5" cx="651.79" cy="663.39" fill="rgba(250, 197, 237, 0.78)"></circle><circle r="5" cx="672.4" cy="848.49" fill="rgba(250, 197, 237, 0.78)"></circle><circle r="5" cx="791.45" cy="388.44" fill="rgba(250, 197, 237, 0.78)"></circle><circle r="5" cx="862.48" cy="538.94" fill="rgba(250, 197, 237, 0.78)"></circle><circle r="5" cx="810.97" cy="699.25" fill="rgba(250, 197, 237, 0.78)"></circle><circle r="5" cx="802.37" cy="834.89" fill="rgba(250, 197, 237, 0.78)"></circle><circle r="5" cx="966.28" cy="-45.18" fill="rgba(250, 197, 237, 0.78)"></circle><circle r="5" cx="993.27" cy="194.21" fill="rgba(250, 197, 237, 0.78)"></circle><circle r="5" cx="990.52" cy="542.43" fill="rgba(250, 197, 237, 0.78)"></circle><circle r="5" cx="965.3" cy="680.77" fill="rgba(250, 197, 237, 0.78)"></circle><circle r="5" cx="940.59" cy="858.3" fill="rgba(250, 197, 237, 0.78)"></circle><circle r="5" cx="1109.63" cy="-95.6" fill="rgba(250, 197, 237, 0.78)"></circle><circle r="5" cx="1119.28" cy="103.67" fill="rgba(250, 197, 237, 0.78)"></circle><circle r="5" cx="1101.35" cy="197.84" fill="rgba(250, 197, 237, 0.78)"></circle><circle r="5" cx="1117.85" cy="391.68" fill="rgba(250, 197, 237, 0.78)"></circle><circle r="5" cx="1140.93" cy="497.96" fill="rgba(250, 197, 237, 0.78)"></circle><circle r="5" cx="1092.74" cy="652.18" fill="rgba(250, 197, 237, 0.78)"></circle><circle r="5" cx="1160.62" cy="798.27" fill="rgba(250, 197, 237, 0.78)"></circle><circle r="5" cx="1280.17" cy="-83.79" fill="rgba(250, 197, 237, 0.78)"></circle><circle r="5" cx="1281.24" cy="230.41" fill="rgba(250, 197, 237, 0.78)"></circle><circle r="5" cx="1260.81" cy="343.32" fill="rgba(250, 197, 237, 0.78)"></circle><circle r="5" cx="1309.67" cy="554.21" fill="rgba(250, 197, 237, 0.78)"></circle><circle r="5" cx="1238.8" cy="667.91" fill="rgba(250, 197, 237, 0.78)"></circle></g><defs><mask id="SvgjsMask1063"><rect width="1200" height="630" fill="#ffffff"></rect></mask><radialGradient id="SvgjsRadialGradient1064"><stop stop-color="#ffffff" offset="0.1"></stop><stop stop-color="rgba(236, 49, 191, 0.56)" offset="0.2"></stop><stop stop-color="rgba(236, 49, 191, 0)" offset="1"></stop></radialGradient></defs></svg>