<svg xmlns="http://www.w3.org/2000/svg" version="1.1" xmlns:xlink="http://www.w3.org/1999/xlink" xmlns:svgjs="http://svgjs.com/svgjs" width="1440" height="560" preserveAspectRatio="none" viewBox="0 0 1440 560"><g mask="url(&quot;#SvgjsMask1367&quot;)" fill="none"><rect width="1440" height="560" x="0" y="0" fill="rgba(255, 255, 255, 1)"></rect><circle r="59.26399336735209" cx="1028.48" cy="143.89" fill="rgba(19, 113, 109, 1)"></circle><path d="M901.8000000000001 125.65 L941.1 68.84L888.0578634877652 63.852863487765106z" fill="rgba(19, 113, 109, 1)"></path><rect width="312" height="312" clip-path="url(&quot;#SvgjsClipPath1368&quot;)" x="997.83" y="56.67" fill="url(#SvgjsPattern1369)" transform="rotate(119.44, 1153.83, 212.67)"></rect><rect width="60" height="60" clip-path="url(&quot;#SvgjsClipPath1370&quot;)" x="1334.38" y="9.28" fill="url(#SvgjsPattern1371)" transform="rotate(316.03, 1364.38, 39.28)"></rect><path d="M752.68 485.93a5.6 5.6 0 1 0 8.64-7.13 5.6 5.6 0 1 0-8.64 7.13zM765.02 475.74a5.6 5.6 0 1 0 8.63-7.14 5.6 5.6 0 1 0-8.63 7.14zM777.35 465.55a5.6 5.6 0 1 0 8.63-7.14 5.6 5.6 0 1 0-8.63 7.14zM789.68 455.35a5.6 5.6 0 1 0 8.64-7.13 5.6 5.6 0 1 0-8.64 7.13z" stroke="rgba(19, 113, 109, 1)" stroke-width="1" stroke-dasharray="2, 2"></path><path d="M574.37 169.42L582.22 159.3 593.82 164.74 601.66 154.62 613.26 160.05 621.11 149.93 632.7 155.37M576.25 177.2L584.1 167.08 595.69 172.51 603.54 162.39 615.14 167.83 622.98 157.71 634.58 163.14" stroke="rgba(19, 113, 109, 1)" stroke-width="2.97" stroke-dasharray="3, 2"></path><rect width="289.8" height="289.8" clip-path="url(&quot;#SvgjsClipPath1372&quot;)" x="933.86" y="334.95" fill="url(#SvgjsPattern1373)" transform="rotate(79.71, 1078.76, 479.85)"></rect><circle r="47.51998707943742" cx="1031.33" cy="86.47" stroke="rgba(186, 13, 73, 1)" stroke-width="1.9" stroke-dasharray="3, 2"></circle><rect width="192" height="192" clip-path="url(&quot;#SvgjsClipPath1374&quot;)" x="631.33" y="18.86" fill="url(#SvgjsPattern1375)" transform="rotate(60.1, 727.33, 114.86)"></rect><path d="M1157.03 602.31 L1181.97 508.57L1212.6939801290987 598.6339801290986z" stroke="rgba(19, 113, 109, 1)" stroke-width="1" stroke-dasharray="3, 2"></path><circle r="57.424410767541225" cx="779.88" cy="463.54" fill="rgba(19, 113, 109, 1)"></circle><rect width="76.4" height="76.4" clip-path="url(&quot;#SvgjsClipPath1376&quot;)" x="584.04" y="401.49" fill="url(#SvgjsPattern1377)" transform="rotate(217, 622.24, 439.69)"></rect></g><defs><mask id="SvgjsMask1367"><rect width="1440" height="560" fill="#ffffff"></rect></mask><pattern x="0" y="0" width="6" height="6" patternUnits="userSpaceOnUse" id="SvgjsPattern1369"><path d="M0 6L3 0L6 6" stroke="rgba(19, 113, 109, 1)" fill="none"></path></pattern><clipPath id="SvgjsClipPath1368"><circle r="78" cx="1153.83" cy="212.67"></circle></clipPath><pattern x="0" y="0" width="6" height="6" patternUnits="userSpaceOnUse" id="SvgjsPattern1371"><path d="M0 6L3 0L6 6" stroke="rgba(19, 113, 109, 1)" fill="none"></path></pattern><clipPath id="SvgjsClipPath1370"><circle r="15" cx="1364.38" cy="39.28"></circle></clipPath><pattern x="0" y="0" width="6.9" height="6.9" patternUnits="userSpaceOnUse" id="SvgjsPattern1373"><path d="M3.45 1L3.45 5.9M1 3.45L5.9 3.45" stroke="rgba(186, 13, 73, 1)" fill="none" stroke-width="2.17"></path></pattern><clipPath id="SvgjsClipPath1372"><circle r="72.45" cx="1078.76" cy="479.85"></circle></clipPath><pattern x="0" y="0" width="6" height="6" patternUnits="userSpaceOnUse" id="SvgjsPattern1375"><path d="M0 6L3 0L6 6" stroke="rgba(19, 113, 109, 1)" fill="none"></path></pattern><clipPath id="SvgjsClipPath1374"><circle r="48" cx="727.33" cy="114.86"></circle></clipPath><pattern x="0" y="0" width="7.64" height="7.64" patternUnits="userSpaceOnUse" id="SvgjsPattern1377"><path d="M3.82 1L3.82 6.64M1 3.82L6.64 3.82" stroke="rgba(186, 13, 73, 1)" fill="none" stroke-width="1"></path></pattern><clipPath id="SvgjsClipPath1376"><circle r="19.1" cx="622.24" cy="439.69"></circle></clipPath></defs></svg>